<svg xmlns="http://www.w3.org/2000/svg" xmlns:xlink="http://www.w3.org/1999/xlink" width="103.833" height="112.074" viewBox="0 0 103.833 112.074"><defs><style>.a{mix-blend-mode:luminosity;isolation:isolate;}.b{fill:#13406b;}.ab,.ac,.ad,.ae,.b,.c,.i,.j,.k,.n,.o,.p,.q,.r,.s,.t,.u,.v,.w,.x,.y,.z{fill-rule:evenodd;}.c{fill:#0071e3;stroke:#13406b;stroke-width:0.984px;}.d{fill:#1f216a;}.e{fill:#043b88;}.f{fill:#e2ba65;}.g{fill:#35b95d;}.h,.l,.n{fill:#009d31;}.i{fill:#e49824;}.i,.j,.k{stroke:#e7c460;}.j,.o,.q{fill:#f7e964;}.k,.p,.r{fill:#f07a01;}.l,.n{stroke:#10556b;stroke-width:3px;}.ae,.m{fill:none;}.o,.p,.q,.r{stroke:#e6bd7b;}.o,.p{stroke-width:1.006px;}.q,.r{stroke-width:1.031px;}.s{fill:#f5f62d;stroke:#fade4f;}.t{fill:#c27259;}.u,.x{fill:#578554;}.u{stroke:#72997c;}.v,.w,.y{fill:#8d313e;stroke:#a42e50;}.v{stroke-width:0.481px;}.w{stroke-width:0.375px;}.x{stroke:#8da37d;}.y{stroke-width:0.481px;}.aa,.z{fill:#ddb461;}.ad,.ae,.z{stroke:#000;}.ae,.z{stroke-width:2.383px;}.ab{fill:#4f3b0a;}.ad{fill:#6d746c;stroke-width:1.421px;}.af{fill:url(#a);}.ag{fill:url(#b);}.ah{fill:#d08d6a;}.ai{fill:#8c2800;}.aj{fill:#611d08;}</style><radialGradient id="a" cx="0.481" cy="0.51" r="0.481" gradientTransform="matrix(0.999, -0.04, 0.042, 1.038, -0.02, -0.001)" gradientUnits="objectBoundingBox"><stop offset="0" stop-color="#f37d00"/><stop offset="0.5" stop-color="#ea9704"/><stop offset="0.75" stop-color="#dfb609"/><stop offset="1" stop-color="#d4d50f" stop-opacity="0.114"/></radialGradient><radialGradient id="b" cx="0.496" cy="0.517" r="0.47" gradientTransform="matrix(-0.01, 1, -0.889, -0.009, 0.973, 0.04)" gradientUnits="objectBoundingBox"><stop offset="0" stop-color="#fb6a00"/><stop offset="0.25" stop-color="#f26c00"/><stop offset="0.5" stop-color="#ea9704"/><stop offset="1" stop-color="#d4d50f"/></radialGradient></defs><g class="a" transform="translate(1.5 1.5)"><g transform="translate(34.273 56.592)"><path class="b" d="M-375.144,759.743v3.479a12.015,12.015,0,0,0-1.626.262l-1.072-3.316-1.971.637,1.07,3.309q-.547.229-1.069.512l-1.922-2.893-1.725,1.146,1.912,2.879a11.976,11.976,0,0,0-1.017.91l-2.651-2.216-1.328,1.59,2.644,2.21a11.994,11.994,0,0,0-.8,1.3l-3.173-1.321-.8,1.913,3.162,1.316a11.994,11.994,0,0,0-.366,1.4l-3.4-.341-.207,2.061,3.388.341q-.007.121-.012.241,0,.483.044.965l-3.341.586.358,2.04,3.332-.584q.119.447.272.883l-3.084,1.39.851,1.889,3.072-1.384a12,12,0,0,0,.655,1.053l-2.574,2.164,1.333,1.586,2.56-2.152a11.986,11.986,0,0,0,1.147,1.008l-1.812,2.813,1.741,1.123,1.8-2.8a11.984,11.984,0,0,0,1.131.527l-.974,3.183,1.981.606.972-3.178a12.024,12.024,0,0,0,1.49.224v3.323h2.072V787.1a12,12,0,0,0,1.673-.272l1.025,3.171,1.971-.637-1.026-3.173a12,12,0,0,0,1.1-.535l1.847,2.781,1.725-1.146-1.846-2.779a12,12,0,0,0,1.032-.942l2.57,2.148,1.328-1.59-2.572-2.149a11.984,11.984,0,0,0,.791-1.336l3.11,1.295.8-1.912-3.112-1.3a11.99,11.99,0,0,0,.34-1.418l3.372.339.207-2.061-3.38-.34q0-.043,0-.086-.005-.56-.063-1.117l3.36-.589-.357-2.041-3.365.59q-.125-.44-.283-.869l3.129-1.41-.851-1.889-3.143,1.416a12,12,0,0,0-.653-1.027l2.644-2.223-1.333-1.586-2.647,2.226a12,12,0,0,0-1.127-.977l1.88-2.917-1.741-1.122-1.881,2.918a12.006,12.006,0,0,0-1.1-.506l1.017-3.323-1.981-.606-1.016,3.323a11.985,11.985,0,0,0-1.446-.212v-3.479Zm.733,9.747a5.517,5.517,0,0,1,5.517,5.517,5.517,5.517,0,0,1-5.517,5.517,5.517,5.517,0,0,1-5.517-5.518,5.517,5.517,0,0,1,5.517-5.517Z" transform="translate(389.877 -759.743)"/><path class="c" d="M-377.8,759.743v3.479a12.015,12.015,0,0,0-1.626.262l-1.072-3.316-1.971.637,1.07,3.309q-.547.229-1.069.512l-1.922-2.893-1.725,1.146,1.912,2.879a11.985,11.985,0,0,0-1.017.91l-2.652-2.216-1.328,1.59,2.644,2.21a11.989,11.989,0,0,0-.8,1.3l-3.173-1.321-.8,1.913,3.162,1.316a11.982,11.982,0,0,0-.366,1.4l-3.4-.341-.207,2.061,3.388.341q-.007.121-.012.241,0,.483.044.965l-3.341.586.357,2.04,3.332-.584q.119.447.272.883l-3.084,1.39.851,1.889,3.072-1.384A12,12,0,0,0-386.6,782l-2.574,2.164,1.333,1.586,2.56-2.152a11.994,11.994,0,0,0,1.147,1.008l-1.812,2.813,1.741,1.123,1.8-2.8a11.994,11.994,0,0,0,1.131.527l-.974,3.183,1.981.606.972-3.178a12.024,12.024,0,0,0,1.49.224v3.323h2.072V787.1a12,12,0,0,0,1.673-.272L-373.03,790l1.971-.637-1.026-3.173a12,12,0,0,0,1.1-.535l1.847,2.781,1.725-1.146-1.846-2.779a11.984,11.984,0,0,0,1.032-.942l2.57,2.148,1.328-1.59-2.572-2.149a11.989,11.989,0,0,0,.791-1.336l3.11,1.295.8-1.912-3.113-1.3a11.993,11.993,0,0,0,.34-1.418l3.372.339.207-2.061-3.38-.34c0-.029,0-.058,0-.086q-.005-.56-.063-1.117l3.36-.589-.358-2.041-3.365.59q-.125-.44-.283-.869l3.129-1.41-.851-1.889-3.143,1.416a11.974,11.974,0,0,0-.653-1.027l2.644-2.223-1.333-1.586-2.647,2.226a12.01,12.01,0,0,0-1.127-.977l1.88-2.917-1.741-1.122-1.881,2.918a12,12,0,0,0-1.1-.506l1.017-3.323-1.981-.606-1.017,3.323a11.983,11.983,0,0,0-1.446-.212v-3.479Zm1.132,9.747a5.517,5.517,0,0,1,5.517,5.517,5.517,5.517,0,0,1-5.517,5.517,5.517,5.517,0,0,1-5.517-5.518,5.517,5.517,0,0,1,5.517-5.517Z" transform="translate(392.133 -759.743)"/><path class="d" d="M-340.227,801.3a9.014,9.014,0,0,0-9.014,9.014,9.014,9.014,0,0,0,9.014,9.014,9.014,9.014,0,0,0,9.014-9.014,9.014,9.014,0,0,0-9.014-9.014Zm0,3.312a5.7,5.7,0,0,1,5.7,5.7,5.7,5.7,0,0,1-5.7,5.7,5.7,5.7,0,0,1-5.7-5.7q0-.287.028-.57a5.7,5.7,0,0,1,5.673-5.131Z" transform="translate(355.692 -795.049)"/><path class="e" d="M-338.581,803.237a8.723,8.723,0,0,0-8.723,8.723,8.722,8.722,0,0,0,8.723,8.722,8.722,8.722,0,0,0,8.723-8.723,8.722,8.722,0,0,0-8.722-8.722Zm0,3.205a5.517,5.517,0,0,1,5.517,5.517,5.517,5.517,0,0,1-5.517,5.517,5.517,5.517,0,0,1-5.517-5.518q0-.277.027-.552a5.517,5.517,0,0,1,5.49-4.965Z" transform="translate(354.046 -796.695)"/></g><path class="f" d="M506.932,219.607a37.388,37.388,0,0,0,3.951-11.431c.056-.5.2-1.364.311-1.928.356-1.742.309-2-.526-2.882a5.49,5.49,0,0,1-1.6-3.2c-.634-3.313.061-6.314,1.87-8.081l.765-.746,0-.983c0-1.506-.944-6.688-1.217-9.17-.355-3.217-2.988-7.276-3.191-10.251.417-.417,4.874,3.774,6.091,5.728a24.331,24.331,0,0,1,3.445,8.091,45.089,45.089,0,0,1,1.323,8.135l.118,1.873.59.511c.324.281.945.785,1.379,1.121s.79.693.79.794a5.766,5.766,0,0,1-1.184,1.183c-1.244,1.049-1.373,1.288-1.373,2.534a10.135,10.135,0,0,1-.21,1.6c-.115.554-.293,1.481-.394,2.06a36.542,36.542,0,0,1-3.946,11.314A21,21,0,0,1,505.2,224.6c-4.251,2.494,1-3.7,1.733-4.99Zm4.681-18.313a68.407,68.407,0,0,0,.148-6.924c-.055-.4-.169-.7-.254-.668a5.734,5.734,0,0,0-1.159,2.725,8.977,8.977,0,0,0,.689,5.166C511.365,202.095,511.526,202.012,511.613,201.295Z" transform="translate(-427.813 -145.194)"/><path class="f" d="M57.664,212.35a37.388,37.388,0,0,1-3.951-11.431c-.056-.5-.2-1.364-.311-1.928-.356-1.742-.309-2,.526-2.882a5.49,5.49,0,0,0,1.6-3.2c.634-3.313-.061-6.314-1.87-8.081l-.764-.746,0-.983c0-1.506.944-6.688,1.218-9.17.355-3.217,2.988-7.276,3.191-10.251-7.5,3.046-10.255,14.783-10.859,21.954l-.118,1.873-.59.511c-.324.281-.945.785-1.379,1.121s-.79.693-.79.794a5.766,5.766,0,0,0,1.184,1.183c1.244,1.049,1.373,1.288,1.373,2.534a10.13,10.13,0,0,0,.21,1.6c.115.554.293,1.481.394,2.06,1.662,8.578,4.985,15.438,12.67,20.031,4.251,2.494-1-3.7-1.733-4.99Zm-4.681-18.313a68.388,68.388,0,0,1-.148-6.924c.055-.4.169-.7.254-.668a5.735,5.735,0,0,1,1.159,2.725,8.977,8.977,0,0,1-.689,5.166c-.329.5-.489.419-.576-.3Z" transform="translate(-37.013 -139.053)"/><g transform="translate(19.038 50.765)"><path class="g" d="M402.079-186.971c-.634-.311-.928-.64-1.74-1.946-1.579-2.54-3.1-4.189-3.857-4.189a1.433,1.433,0,0,1-.634-.491,5.987,5.987,0,0,0-2.483-1.512,6.435,6.435,0,0,1-1.131-.5,8.9,8.9,0,0,0-1.461-.605,17.6,17.6,0,0,1-1.882-.756,4.11,4.11,0,0,0-1.136-.409,8.283,8.283,0,0,1-1.3-.276,7.657,7.657,0,0,0-1.381-.272,4.026,4.026,0,0,1-2.019-1.141,8.206,8.206,0,0,1-.539-1.215,4.186,4.186,0,0,0-.6-1.163c-.191-.179-.26-.424-.26-.921,0-.639.017-.671.3-.579,1.124.368,1.744.807,1.668,1.18-.022.107.075.188.228.19a9.7,9.7,0,0,1,2.566,1.334,4.624,4.624,0,0,0,3.355,1.02,8.865,8.865,0,0,1,3.165.476,1.2,1.2,0,0,0,.66.072,12.328,12.328,0,0,0-.927-2.205l-1.017-2.112-.955-.57a22.562,22.562,0,0,0-2.5-1.194,11.736,11.736,0,0,0-3.511-.9c-2.806-.388-3.971-.64-4.289-.928a2.863,2.863,0,0,0-.643-.413c-.2-.089-.366-.25-.366-.358a2.3,2.3,0,0,0-.466-.774,2.447,2.447,0,0,1-.466-.745,1.372,1.372,0,0,1,.388-.553l.388-.385.96.5a4.474,4.474,0,0,0,1.361.5c.291,0,.574.168,1.031.611a2.014,2.014,0,0,0,2.253.627,7.719,7.719,0,0,1,1.157-.24,11.636,11.636,0,0,1,3.805.756c.216.2.233.192.233-.122a16.176,16.176,0,0,0-1.012-3.218c-.289-.563-.056-1.582.36-1.582.355,0,.785.244.785.445a2.112,2.112,0,0,0,.324.65,12.652,12.652,0,0,1,.855,2.556c.292,1.137.718,2.594.946,3.238s.566,1.617.751,2.161c.408,1.205.652,1.477.847.945a2.207,2.207,0,0,0,.135-.576c0-.114.182-1.068.4-2.119a15.106,15.106,0,0,1,2.178-5.3c.724-1.186,1.915-2.411,2.344-2.411.538,0,.668.224.472.808a10.325,10.325,0,0,0-.262,1.81,21.979,21.979,0,0,1-.963,4.878,9.582,9.582,0,0,1-1.748,3.013l-1.4,1.925.514,1.092a6.87,6.87,0,0,0,.751,1.314c.27.253.314.68.078.762-.166.057-.012.229.791.882a18.6,18.6,0,0,1,2.548,3.869c.176.4.37.686.432.646a7.476,7.476,0,0,0,.113-1.752,18.745,18.745,0,0,1,.2-2.782c.112-.606.264-1.536.337-2.067.22-1.6.509-2.379.946-2.537.207-.075.377-.1.377-.066s.127.7.282,1.474a13.7,13.7,0,0,1-.358,6.482,11.5,11.5,0,0,0-.456,2.045,4.581,4.581,0,0,0,1.261,2.407c.318.243.324.273.146.8C402.812-186.764,402.648-186.692,402.079-186.971Z" transform="translate(-378.437 212.395)"/><path class="h" d="M401.15-184.675a21.334,21.334,0,0,1-1.525-2.006,10.267,10.267,0,0,0-2.916-3.207c-.487-.323-1.158-.8-1.49-1.065a21.9,21.9,0,0,0-4.548-2.292c-.512-.164-1.081-.351-1.264-.414a23.379,23.379,0,0,0-4.113-1.114,4.215,4.215,0,0,1-1.294-.419,5.035,5.035,0,0,1-1.657-2.033,3.958,3.958,0,0,0-.4-.858,2.745,2.745,0,0,1-.334-.758l-.1-.4.3.276a4.161,4.161,0,0,1,.664,1.056,5.2,5.2,0,0,0,1.578,2.062c.434.335.492.348.639.141.124-.174.2-.189.32-.067a.807.807,0,0,0,.628.082c.349-.059.512-.02.632.151.144.2.181.206.329.021a.427.427,0,0,1,.741.033.85.85,0,0,0,.68.252c3.3.068,4.036.13,4.036.344a3.542,3.542,0,0,1-1.249.08,6.89,6.89,0,0,0-1.7.123c-.432.151-.437.16-.157.316a1.518,1.518,0,0,0,.6.165,2.593,2.593,0,0,1,.84.271,2.747,2.747,0,0,0,.931.276,1.787,1.787,0,0,1,.732.206,1.535,1.535,0,0,0,.617.2.743.743,0,0,1,.5.349c.12.189.282.344.361.344a7.945,7.945,0,0,1,1.266.758,14.076,14.076,0,0,0,1.191.758c.222,0-1.07-1.593-2.292-2.825-.764-.77-.939-1.171-.511-1.171.47,0,.314-.588-.717-2.711l-1.059-2.18-1.109-.637a14.548,14.548,0,0,0-5.234-1.907c-.732-.085-2.04-.279-2.908-.429-1.389-.242-1.65-.332-2.186-.755a4.178,4.178,0,0,1-.865-.925,5.655,5.655,0,0,0-.586-.808q-.331-.364-.18-.46c.2-.127.48.129.812.74a3.309,3.309,0,0,0,1.708,1.357,13.326,13.326,0,0,0,3.008.317c.146-.01.925-.034,1.73-.053a11.657,11.657,0,0,0,1.83-.147c.291-.089.366-.067.366.107,0,.253-.528.426-.965.316a.951.951,0,0,0-.6.095c-.28.158-.231.191.682.47a19.41,19.41,0,0,1,2.283.932c.857.418,1.344.586,1.431.5.195-.2,1.16,1.121,1.7,2.324a9.27,9.27,0,0,0,.617,1.131c.3.448.365.487.535.31a.5.5,0,0,0,.112-.468.8.8,0,0,1,.047-.517,6.963,6.963,0,0,0,.286-1.283,12.52,12.52,0,0,1,1.289-3.927,19.8,19.8,0,0,1,2.454-3.927c.078,0,.105.1.062.214a.737.737,0,0,0,.122.532c.213.336.133.819-.121.727-.082-.03-.133-.219-.112-.419s-.024-.364-.1-.364-.138.143-.138.319a.894.894,0,0,1-.392.619,11.636,11.636,0,0,0-1.87,3.9c0,.29.4-.084.533-.5a1.683,1.683,0,0,1,.339-.625.571.571,0,0,0,.193-.365,1.68,1.68,0,0,1,.317-.638,3.167,3.167,0,0,0,.4-.736.634.634,0,0,1,.291-.378c.141-.056.176-.176.113-.392-.072-.246-.056-.277.076-.147s.016.512-.568,1.86c-1.363,3.146-2.318,5.761-2.1,5.761.285,0,1.971-2.6,2.4-3.7.146-.374.147-.481.008-.57a.208.208,0,0,1-.071-.278c.077-.129.128-.125.222.019s.117.148.094-.02c-.054-.4.182-1.24.349-1.24.093,0,.2-.155.233-.344.043-.231,0-.344-.118-.344-.211,0-.233-.255-.048-.551.108-.172.129-.162.131.062,0,.583.253-.051.539-1.371a11.028,11.028,0,0,1,.381-1.476,18.165,18.165,0,0,1-.316,3.933,12.759,12.759,0,0,1-2.861,6.016,9.81,9.81,0,0,0-.839,1.206c-.076.171-.219.31-.317.31a.2.2,0,0,0-.178.212c0,.172-.052.183-.28.056s-.264-.241-.2-.556c.043-.223.02-.4-.052-.4s-.13.088-.13.2a.261.261,0,0,1-.134.241c-.08.028-.025.351.135.8a2.554,2.554,0,0,1,.189,1.14c-.069.331-.028.4.313.524.272.1.508.362.766.858.73,1.4,1.553,2.341,1.965,2.242a.262.262,0,0,1,.32.172,1.815,1.815,0,0,0,.274.466.534.534,0,0,1,.112.461c-.052.141.078.44.349.8a7.335,7.335,0,0,0,1.683,1.743.146.146,0,0,1,.148.143,1.429,1.429,0,0,0,.218.487l.218.345.151-.314c.35-.728,1.078-.29.927.558a1.064,1.064,0,0,1-.2.549c-.205.083-.119.424.143.569.369.2.437.178.341-.133-.124-.4.061-.331.715.28.571.535.578.55.363.89-.344.544-.715.434-1.51-.447Zm-6.693-14.406c.011-.37-.217-.157-.3.282-.233,1.2-.233,1.212.032.587A3.627,3.627,0,0,0,394.457-199.082Zm.45-1.663c.239-.378.3-.912.1-.912-.173,0-.4.737-.471,1.561-.053.578-.045.617.041.207A3.121,3.121,0,0,1,394.907-200.745Zm5.425,12.5a9.648,9.648,0,0,1-.163-3.557,27.173,27.173,0,0,1,.963-4.757c.285-.685.613-.96.449-.375-.233.829-.383,1.337-.6,2.032-.252.81-.319,1.653-.131,1.653.063,0,.142-.109.175-.241s.062.193.063.723c0,1.4-.2,1.945-.236.62l-.025-1.033-.188.689c-.223.818-.2,1.653.054,1.653.12,0,.191.273.229.874.045.735.022.862-.146.795s-.186.03-.112.607C400.762-187.807,400.6-187.649,400.332-188.248Zm.62.2a.572.572,0,0,1,.053-.385,19.286,19.286,0,0,0,.919-3.169c.023-.265.045-1.025.05-1.688.008-1.04.04-1.206.235-1.206s.219.134.156,1.206a18.848,18.848,0,0,1-.725,4.17C401.358-188.155,401.066-187.7,400.952-188.045Zm-2.2-.688a.554.554,0,0,1-.16-.271c0-.172.372.027.451.241C399.129-188.524,398.967-188.507,398.749-188.733Zm-2.788-3.923a.752.752,0,0,1-.3-.523.925.925,0,0,0-.28-.569,3.3,3.3,0,0,1-.537-.784c-.248-.5-.513-.58-.513-.151,0,.114-.06.168-.133.122a.557.557,0,0,1-.133-.405c0-.269.064-.317.4-.3s.469.145.9.915a11.987,11.987,0,0,1,.929,1.918A3.707,3.707,0,0,1,395.961-192.656Zm-3.626-2.112c-.172-.115-.168-.134.025-.136a.385.385,0,0,1,.307.136C392.772-194.593,392.6-194.593,392.335-194.768Zm9.581-.9c0-.205.057-.324.133-.276a.359.359,0,0,1,.133.276.359.359,0,0,1-.133.276C401.973-195.339,401.916-195.458,401.916-195.663Zm-14.151-.087c-.281-.153-.491-.3-.466-.325a2.152,2.152,0,0,1,.645.073,10.363,10.363,0,0,0,1.564.126c.551,0,.965.065.965.144s-.135.144-.3.152-.659.035-1.1.061A2.13,2.13,0,0,1,387.765-195.75Zm-2.283-.517c-.51-.242-1.17-.846-.919-.84a7.129,7.129,0,0,1,1.052.548C386.567-196,386.473-195.8,385.482-196.267Zm4.61-5.7a3.212,3.212,0,0,1-.194-1.412,5.751,5.751,0,0,0-.406-2.249,9.154,9.154,0,0,0-.6-1.578c-.192-.2-.189-.45.012-1.026.23-.657.64-.572.848.176l.156.559-.378-.057c-.374-.057-.376-.052-.236.405.078.254.225.769.327,1.144a2.9,2.9,0,0,0,.326.827c.1.1.116.075.053-.1s-.024-.241.116-.241a.73.73,0,0,1,.6.733c-.018.3-.019.3-.076-.01-.032-.171-.143-.31-.248-.31-.148,0-.19.23-.19,1.042a4.864,4.864,0,0,0,.118,1.274c.21.414.319,1.4.155,1.4C390.4-201.381,390.223-201.645,390.093-201.967Zm.777,0a3.178,3.178,0,0,0-.083-.517c-.079-.336-.076-.338.131-.069.238.31.29.758.087.758A.159.159,0,0,1,390.87-201.967Zm-2.863-1.809a1.922,1.922,0,0,0-.529-.26c-.147-.038-.027-.076.266-.083.6-.016.945.149.808.38C388.432-203.538,388.325-203.546,388.007-203.776Zm2.911-.16c-.043-.117-.049-.243-.013-.281s.1.058.137.213C391.125-203.676,391.033-203.626,390.918-203.936Zm7.007-4.059a.14.14,0,0,1,.141-.138c.077,0,.1.062.059.138s-.109.138-.141.138S397.924-207.919,397.924-207.995Z" transform="translate(-378.311 209.235)"/></g><g transform="translate(84.082 98.078) rotate(180)"><path class="i" d="M0,3.823C.238,3.178,1.968.848,3.31.8,3.31.8,5.3.3,6.091.036c.079-.45.953,3.443.953,3.443S1.456,5.041,0,3.823Z" transform="translate(0 0)"/><path class="j" d="M.583,3.337A12.73,12.73,0,0,1,5.084,0C3.567.7.831.877,0,1.059A16.025,16.025,0,0,0,.583,3.337Z" transform="translate(1.854 3.399)"/><path class="k" d="M.612,6.547C.18,6.56-.132,6.326.056,5.858A18.643,18.643,0,0,1,4.584,2.734c-.073-.661-.443-1.229-.4-1.748A4.044,4.044,0,0,1,5.961.271C6.689.12,8.57-.209,9.006.191a4.512,4.512,0,0,0,.053.9C7.2,2.24,1.838,5.633.612,6.547Z" transform="translate(2.434 0.613)"/></g><path class="j" d="M88.487,621.343a34.516,34.516,0,0,1-2.542,4.131c11.592,14.558,57.294,18.14,73.617,1.165-1.472-2.781-1.55-2.732-2.436-4.555-12.114,15.867-55.279,15.012-68.639-.741Z" transform="translate(-73.017 -527.878)"/><path class="i" d="M103.022,618.543c.238.645,1.968,2.975,3.31,3.019,0,0,1.986.5,2.781.768.079.45.953-3.443.953-3.443s-5.588-1.562-7.044-.344Z" transform="translate(-87.526 -525.104)"/><path class="j" d="M115.928,601.8a12.729,12.729,0,0,0,4.5,3.337c-1.517-.7-4.253-.877-5.084-1.059A16.033,16.033,0,0,1,115.928,601.8Z" transform="translate(-97.996 -511.275)"/><path class="k" d="M119.813,598.981c-.432-.013-.743.221-.556.689a18.646,18.646,0,0,0,4.528,3.125c-.073.661-.443,1.229-.4,1.748a4.045,4.045,0,0,0,1.774.715c.728.151,2.609.48,3.045.079a4.512,4.512,0,0,1,.053-.9C126.4,603.288,121.04,599.895,119.813,598.981Z" transform="translate(-101.272 -508.879)"/><path class="l" d="M50.417-.051A50.511,50.511,0,0,0,0,50.5s0,0,0,0,0,0,0,0A50.417,50.417,0,1,0,50.417-.051Zm0,3.843A46.609,46.609,0,0,1,96.99,50.5h0a46.574,46.574,0,1,1-93.147,0h0A46.609,46.609,0,0,1,50.417,3.792Z" transform="translate(0 0.051)"/><path class="m" d="M105.7,622.723c1.213,7.035,46.579,23.047,68.049.849" transform="translate(-89.798 -529.05)"/><path class="n" d="M177.139,573.774l-4.039,2.085s9.571,11.977,23.5,6.042c.046-.02-4.469-2.325-5.248-2.267-10.9.809-14.177-5.824-14.213-5.86Z" transform="translate(-147.064 -487.464)"/><path class="n" d="M250.823,644.321s6.344.855,9.267-1.212,12.546-2.067,12.546-2.067,1.454,2.92-2.638,3.849c-5.074,1.152-5.061.428-5.061.428s-6.584,4.976-11.263,2.281a5.611,5.611,0,0,1-2.851-3.279Z" transform="translate(-213.093 -544.614)"/><path class="n" d="M254,594.95s-7.271-.5-7.485-1.069,2.495-2.709,6.344-2.352a17.117,17.117,0,0,1,5.988,1.5s6.871,3,8.126,3.208c.379.061,2.281,3.029,2.281,3.029s-8.127-.462-10.194-2.031S254.07,595.093,254,594.95Z" transform="translate(-209.425 -502.514)"/><path class="n" d="M324.9,608.084l1.782-1.069s10.479-.214,7.77-4.634a6.67,6.67,0,0,0-7.057-3.35s-3.422-1.5-3.564-2.424,15.891-2.939,15.469,6.915C339.236,604.379,337.727,612.789,324.9,608.084Z" transform="translate(-275.118 -506.167)"/><path class="n" d="M414.022,583.254a16.279,16.279,0,0,0,8.367-5.469,23.008,23.008,0,0,1,2.445,2.772s-6.4,5.746-9.174,5.469S414.072,583.229,414.022,583.254Z" transform="translate(-351.57 -490.866)"/><g transform="translate(67.183 20.768)"><path class="o" d="M486.661,414.439l-.395,2.623a18.521,18.521,0,0,0-3.544-3.435,8.284,8.284,0,0,0,3.939.811Z" transform="translate(-478.989 -410.232)"/><path class="p" d="M486.591,394.85c-.375-.543-2.121-2.982-2.121-2.982a4.674,4.674,0,0,1-2.266-.82c-.328.826-.689,1.983-1.166,3.133C483.648,395.877,485.953,395.487,486.591,394.85Z" transform="translate(-477.558 -391.047)"/><path class="p" d="M461.449,397.955s3.344,3.021,3.753,3.637c-1.09,1.72-4.2-1.886-4.2-1.886s-1.632-.556-3.1-.946c.122-.826.186-3.342.186-3.342a11.6,11.6,0,0,1,3.945.666C461.836,396.745,461.449,397.955,461.449,397.955Z" transform="translate(-457.9 -394.762)"/></g><path class="q" d="M166.744,163.332l1.36,2.365a8.341,8.341,0,0,1,2.773-3.177,9.071,9.071,0,0,1-4.133.811Z" transform="translate(-141.664 -138.068)"/><path class="r" d="M157.251,143.743c.394-.543,2.226-2.982,2.226-2.982a5.069,5.069,0,0,0,2.378-.82c.344.826.723,1.983,1.223,3.133C160.34,144.77,157.921,144.38,157.251,143.743Z" transform="translate(-133.599 -118.884)"/><path class="r" d="M177.635,146.848s-2.736,2.764-3.165,3.38c1.144,1.72,3.639-1.628,3.639-1.628a18.807,18.807,0,0,1,3.293-1.29c-.128-.826-.711-3-.711-3a10.634,10.634,0,0,0-3.667.666c.205.66.611,1.87.611,1.87Z" transform="translate(-148.228 -122.598)"/><path class="s" d="M144.618,66.777c17.576-20.852,51.506-10.579,56.523-.344-.742,1.726-1.016,2.3-2.063,4.534-8.524-15.731-41.652-15.468-52.314-.181a12.29,12.29,0,0,1-2.146-4.009Z" transform="translate(-122.866 -46.435)"/><path class="m" d="M163.888,60.562c9.924-7.831,33.529-8.434,44.874,2.669" transform="translate(-139.237 -46.528)"/><path class="t" d="M394.627,240.723s-.236,23.7-14.81,40.38a1.16,1.16,0,0,1,.261.508s12.953-12.376,15.062-40.873a5.091,5.091,0,0,1-.513-.014Z" transform="translate(-322.688 -204.508)"/><g transform="translate(54.911 32.527)"><path class="u" d="M637.409,474.447c-.411.053-.185,4.475,1.774,4.5C641.513,478.287,638.19,474.13,637.409,474.447Z" transform="translate(-621.664 -473.647)"/><path class="u" d="M610.341,497.266s-1.933-4.052-5.588-3.575C607.155,497.6,610.341,497.346,610.341,497.266Z" transform="translate(-594.066 -489.978)"/><path class="u" d="M650.829,469.227c-.7-.04-3.494,2.965-2.913,4.9C649.963,474.531,652.282,471.164,650.829,469.227Z" transform="translate(-630.67 -469.226)"/><path class="u" d="M654.625,495.854c-.757-.428-4.482,1.489-4.182,4.319C651.935,501.666,655.163,496.5,654.625,495.854Z" transform="translate(-632.869 -491.798)"/><path class="u" d="M605.384,548.42c-.463.424,2.092,3.787,4.528,3.549C610.018,549.188,606.642,548.1,605.384,548.42Z" transform="translate(-594.556 -536.462)"/><path class="u" d="M596.15,589.792c-.146.953,2.145,3.151,4.052,3.443C601.578,591.248,597.3,589.05,596.15,589.792Z" transform="translate(-586.751 -571.532)"/><path class="u" d="M642.564,543.336c-.834,0-2.992,3.681-1.351,4.184C643.544,546.858,643.345,543.018,642.564,543.336Z" transform="translate(-624.533 -532.173)"/><path class="u" d="M642.987,565.7c-1.417-1.377-5.376.768-4.687,1.271C641.213,567.736,643.715,566.068,642.987,565.7Z" transform="translate(-622.5 -550.801)"/><path class="u" d="M631.259,610.114c-.516-.794-6.117-.821-6.594,1.642C627.26,612.683,631.934,610.8,631.259,610.114Z" transform="translate(-610.983 -588.516)"/><path class="u" d="M611.758,648.878c-.3.794,5.746,1.3,7.07-.953C616.181,646.044,612.487,648.3,611.758,648.878Z" transform="translate(-600.009 -620.422)"/><path class="u" d="M549.006,688.685c-.41.053,1.245,3.84,4.1,3.6C554.8,690.512,549.787,688.367,549.006,688.685Z" transform="translate(-546.651 -655.649)"/><path class="u" d="M533.728,726.487c-.41.053,4.581,1.4,6.382-1.218C538.945,723.919,534.4,724.793,533.728,726.487Z" transform="translate(-533.704 -686.196)"/><path class="u" d="M598.274,713c-.41.053-2.886-1.933-6.488,1.483C596.606,715.2,599.055,712.685,598.274,713Z" transform="translate(-583.05 -675.889)"/><path class="u" d="M571.539,625.763c.225,1.218,2.516,3.734,5.8,4.5C577.444,627.113,572.9,625.286,571.539,625.763Z" transform="translate(-565.848 -602.154)"/><path class="u" d="M609.381,661.213c-.41.053,1.351,4.1,4.369,4.5C614.915,663.041,610.162,660.9,609.381,661.213Z" transform="translate(-597.948 -632.31)"/></g><path class="v" d="M471.568,269.114a.671.671,0,1,1-.67-.644A.657.657,0,0,1,471.568,269.114Z" transform="translate(-399.499 -228.081)"/><path class="w" d="M470.029,278.217a.519.519,0,1,1-.519-.519A.519.519,0,0,1,470.029,278.217Z" transform="translate(-398.448 -235.921)"/><path class="w" d="M476.917,269.712a.519.519,0,1,1-.519-.519A.519.519,0,0,1,476.917,269.712Z" transform="translate(-404.3 -228.696)"/><path class="w" d="M478.924,277.229a.519.519,0,1,1-.519-.519A.519.519,0,0,1,478.924,277.229Z" transform="translate(-406.005 -235.082)"/><path class="v" d="M447.969,369.643a.671.671,0,1,1-.67-.644A.658.658,0,0,1,447.969,369.643Z" transform="translate(-379.45 -313.49)"/><path class="v" d="M453.251,368.586a.671.671,0,1,1-.67-.644A.658.658,0,0,1,453.251,368.586Z" transform="translate(-383.937 -312.592)"/><path class="v" d="M443.039,418.586a.671.671,0,1,1-.67-.644A.658.658,0,0,1,443.039,418.586Z" transform="translate(-375.261 -355.071)"/><path class="x" d="M456.472,330.314c-.745.946-1.051,2.695-.153,4.912C458.25,333.3,457.753,331.489,456.472,330.314Z" transform="translate(-387.214 -280.623)"/><g transform="translate(60.77 46.665)"><path class="y" d="M72.81,284.31a.671.671,0,1,1-.67-.644.657.657,0,0,1,.67.644Z" transform="translate(-64.585 -267.936)"/><g transform="translate(0)"><path class="y" d="M72.81,284.31a.671.671,0,1,1-.67-.644.657.657,0,0,1,.67.644Z" transform="translate(-63.393 -274.715)"/><path class="y" d="M72.81,284.31a.671.671,0,1,1-.67-.644.657.657,0,0,1,.67.644Z" transform="translate(-64.796 -276.304)"/><path class="y" d="M72.81,284.31a.671.671,0,1,1-.67-.644.657.657,0,0,1,.67.644Z" transform="translate(-63.843 -276.039)"/><path class="y" d="M72.81,284.31a.671.671,0,1,1-.67-.644.657.657,0,0,1,.67.644Z" transform="translate(-62.837 -275.933)"/><path class="y" d="M72.81,284.31a.671.671,0,1,1-.67-.644.657.657,0,0,1,.67.644Z" transform="translate(-62.625 -283.666)"/><path class="y" d="M72.81,284.31a.671.671,0,1,1-.67-.644.657.657,0,0,1,.67.644Z" transform="translate(-62.095 -281.918)"/><path class="y" d="M72.81,284.31a.671.671,0,1,1-.67-.644.657.657,0,0,1,.67.644Z" transform="translate(-61.301 -283.242)"/><path class="y" d="M72.81,284.31a.671.671,0,1,1-.67-.644.657.657,0,0,1,.67.644Z" transform="translate(-67.021 -269.896)"/><path class="y" d="M72.81,284.31a.671.671,0,1,1-.67-.644.657.657,0,0,1,.67.644Z" transform="translate(-67.656 -268.201)"/><path class="y" d="M72.81,284.31a.671.671,0,1,1-.67-.644.657.657,0,0,1,.67.644Z" transform="translate(-66.226 -268.836)"/><path class="y" d="M72.81,284.31a.671.671,0,1,1-.67-.644.657.657,0,0,1,.67.644Z" transform="translate(-65.061 -269.154)"/><path class="y" d="M72.81,284.31a.671.671,0,1,1-.67-.644.657.657,0,0,1,.67.644Z" transform="translate(-70.04 -262.057)"/><path class="y" d="M72.81,284.31a.671.671,0,1,1-.67-.644.657.657,0,0,1,.67.644Z" transform="translate(-71.152 -261.792)"/><path class="y" d="M72.81,284.31a.671.671,0,1,1-.67-.644.657.657,0,0,1,.67.644Z" transform="translate(-71.47 -260.203)"/><path class="y" d="M72.81,284.31a.671.671,0,1,1-.67-.644.657.657,0,0,1,.67.644Z" transform="translate(-70.04 -259.939)"/><path class="y" d="M72.81,284.31a.671.671,0,1,1-.67-.644.657.657,0,0,1,.67.644Z" transform="translate(-68.927 -260.945)"/><path class="y" d="M72.81,284.31a.671.671,0,1,1-.67-.644.657.657,0,0,1,.67.644Z" transform="translate(-68.504 -259.409)"/><path class="y" d="M72.81,284.31a.671.671,0,1,1-.67-.644.657.657,0,0,1,.67.644Z" transform="translate(-70.357 -260.786)"/></g></g><g transform="translate(38.702 31.905)"><path class="z" d="M381.569,64.379c.3,6.761,1.065,13.446,6.149,18.356.535.468,6.276,1.592,9.261.187,5.507-4.069,6.754-12.294,6.5-18.45" transform="translate(-381.137 -48.298)"/><path class="aa" d="M395.309-12.314a2.234,2.234,0,0,0-.378.011.483.483,0,0,0-.281.1.343.343,0,0,0-.086.133c-.027.056-.058.126-.092.209-.068.166-.147.38-.221.605a36.7,36.7,0,0,1-1.714,4.172,12.082,12.082,0,0,1-1.178,1.555c-.572.674-1.285,1.463-2.032,2.253A41.069,41.069,0,0,1,385.3.553a2.044,2.044,0,0,0-.516.465.241.241,0,0,0-.04.126.2.2,0,0,0,.061.144.275.275,0,0,0,.2.051c.029,0,.26.02.569.052s.711.076,1.131.125c.842.1,2.245.223,3.123.28,2.437.157,10.707.058,12.844-.155,1.26-.126,2.021-.206,2.469-.265a4.669,4.669,0,0,0,.464-.077.477.477,0,0,0,.113-.039.154.154,0,0,0,.049-.038.168.168,0,0,0,.037-.106.123.123,0,0,0-.033-.1.371.371,0,0,0-.038-.045,1.349,1.349,0,0,0-.107-.1c-.086-.072-.2-.159-.33-.246a27.232,27.232,0,0,1-2.788-2.544c-1.193-1.2-2.5-2.592-3.479-3.742a11.4,11.4,0,0,1-1.186-1.676,34.894,34.894,0,0,1-1.553-3.811c-.074-.224-.151-.444-.216-.619-.033-.087-.062-.164-.087-.224a1,1,0,0,0-.064-.138.226.226,0,0,0-.113-.094.74.74,0,0,0-.142-.047,2.049,2.049,0,0,0-.366-.048Z" transform="translate(-383.836 14.516)"/><path class="ab" d="M394.219,141.939q.08.245.164.489c2.414.279,6.091.608,11.132.806l-2.379.968c-3.293-.11-6.028-.279-8.255-.459q.109.266.225.528c2.238.179,4.962.345,8.214.453h.038c1.585-.624,2.984-1.3,4.551-1.926-4.552-.179-9.138-.279-13.691-.861Zm17.146,2.273c-2.184.208-4.808.413-7.916.58l-.038,0c-1.585.762-2.984,1.565-4.551,2.322,3.76-.179,7.65-.4,11.491-.7l.073-.121c.068-.132.136-.264.2-.4-2.362.185-5.476.392-9.372.578l2.379-1.175c2.935-.157,5.423-.349,7.512-.545Q411.257,144.484,411.365,144.211Z" transform="translate(-391.884 -114.192)"/><path class="ab" d="M382.117,75.071q.013.254.028.508h6.993l-2.707,1.034h-4.222q.017.254.036.508h4.26l5.255-2.04h-1.253l0-.011Zm4.388,2.051-4.123,1.6c.014.147.028.293.044.44h.078l0,.011H392.3v-.012h1.312l5.255-2.04h-1.253l0-.011h-7.983v.012Zm5.66.5h4.074l-2.707,1.034h-3.778v.012h-5.882l2.707-1.034h5.586Zm11.643,1.5c-.353.048-.717.115-1.052.133h-6.03v.012h-3.119l-5.255,2.04H389.6l0,.011H399.4V81.3h.479L395.8,83.581l1.254-.093,0,.011,5.8-.432.225-.017v-.012l.215-.016q.047-.257.09-.515l-2.621.2-.225.017v.012l-2.722.2,2.256-1.2,2.652-.2.225-.017v-.012l.595-.044c.024-.171.045-.342.067-.513l-2.977.221-.225.017V81.2l-.312.023,3.7-2.017c0-.03.006-.06.008-.089Zm-4.54.641h2.722l-2.256,1.034h-2.877V80.8h-5.882l2.707-1.034h5.586Z" transform="translate(-381.602 -57.382)"/><path class="ac" d="M390.03-37.179v.109a1.59,1.59,0,0,0-.361.464l-.008.016-.005.018s-.335,1.176-.858,2.627a20.843,20.843,0,0,1-1.968,4.241,53.917,53.917,0,0,1-6.668,6.5,6.063,6.063,0,0,1-1.174.738,1.034,1.034,0,0,1-.214.07l-.027.005h0l-.049.333h0a73.692,73.692,0,0,0,11.417.733,73.687,73.687,0,0,0,11.417-.733l-.049-.333-.027-.005a1.034,1.034,0,0,1-.214-.07,6.062,6.062,0,0,1-1.174-.738,53.916,53.916,0,0,1-6.668-6.5,20.844,20.844,0,0,1-1.968-4.241c-.523-1.451-.858-2.627-.858-2.627l-.005-.018-.008-.016a1.589,1.589,0,0,0-.361-.464v-.109a.713.713,0,0,0-.085.045.708.708,0,0,0-.085-.045Zm.085.458a1.67,1.67,0,0,1,.195.273c.011.037.339,1.187.858,2.627a20.909,20.909,0,0,0,2.014,4.331l.007.01.008.009a54.138,54.138,0,0,0,6.721,6.55,7.373,7.373,0,0,0,.938.616,72.458,72.458,0,0,1-10.657.654h-.169a72.459,72.459,0,0,1-10.657-.654,7.371,7.371,0,0,0,.938-.616,54.138,54.138,0,0,0,6.721-6.55l.008-.009.007-.01a20.906,20.906,0,0,0,2.014-4.331c.519-1.44.848-2.59.858-2.627a1.668,1.668,0,0,1,.195-.273Z" transform="translate(-378.697 37.984)"/><path class="ad" d="M448.664-42.533l-.017.016a1.919,1.919,0,0,0-.438.54v0l0,0v0h0s-.22.737-.587,1.809a2.186,2.186,0,0,1,2.118.076c-.383-1.113-.613-1.885-.613-1.885h0v0l0,0v0a1.919,1.919,0,0,0-.438-.54l-.017-.016Z" transform="translate(-437.251 42.533)"/><path class="ae" d="M381.569,64.379c.3,6.761,1.065,13.446,6.149,18.356.535.468,6.276,1.592,9.261.187,5.507-4.069,6.754-12.294,6.5-18.45" transform="translate(-381.137 -48.298)"/></g><g transform="translate(44.155 16.149)"><circle class="af" cx="5.84" cy="5.84" r="5.84" transform="translate(0.005)"/><path class="ag" d="M1459.441,164.059a5.164,5.164,0,0,1-.147-1.069,2.4,2.4,0,0,0-.178-.964c-.062-.014-.2.328-.307.761-.232.939-.4,1.292-.626,1.292-.169,0-.154-.618.045-1.882.11-.7-.112-.606-.527.225-.53,1.061-1,1.5-1,.944,0-.462.236-.991.413-.924.089.034.133.016.1-.04a.556.556,0,0,1,.034-.364c.053-.144.131-.4.173-.576l.076-.314-.3.2c-.3.2-.3.195-.242-.037.05-.191.02-.226-.154-.18s-.206.014-.142-.24.046-.286-.135-.22a6.938,6.938,0,0,0-.86.514c-.633.425-1.035.511-1.035.221,0-.143.075-.2.944-.673.431-.236.8-.728.662-.87a3.918,3.918,0,0,0-1.466.348c-.445.157-.564.164-.713.04s-.16-.161.022-.294a1.016,1.016,0,0,1,.511-.146,3.574,3.574,0,0,0,.905-.216,11.447,11.447,0,0,1,1.245-.356c.685-.147.857-.268.659-.465-.084-.084-.312-.07-.771.047-1.156.294-3.712.01-2.725-.3a.4.4,0,0,1,.353.033c.072.072.225.067.443-.015.251-.095.353-.093.415.007s.21.1.52.034a3.5,3.5,0,0,1,.978-.035c.571.068.916-.084.811-.357a.187.187,0,0,1,.058-.22.2.2,0,0,0,.052-.236c-.109-.285.29-.186.582.144a2.2,2.2,0,0,1,.391.725c.129.459.378.763.625.763.289,0,.168-.307-.176-.449-.186-.077-.337-.2-.337-.272,0-.358.623-.553.745-.234.035.092.108.141.16.109a.2.2,0,0,0,.032-.224c-.045-.117.039-.186.286-.235.192-.038.349-.114.349-.168,0-.155.3-.115.441.061.114.137.174.137.435,0a1.654,1.654,0,0,1,.38-.159,6.756,6.756,0,0,0,.786-.327,3.772,3.772,0,0,1,1.683-.505c.053.033.175-.02.271-.117.25-.249.749-.235.7.021-.024.13-.272.273-.733.422a3.294,3.294,0,0,0-.837.365.829.829,0,0,1-.492.14c-.682,0-1.625.247-1.625.425,0,.143.136.158.857.1a8.3,8.3,0,0,0,1.28-.2,3.861,3.861,0,0,1,1.907.113c0,.239-.339.351-1.067.351a2.358,2.358,0,0,0-.914.116c-.08.08-.368.077-.927-.01-.9-.14-1.24-.087-1.035.16a8.922,8.922,0,0,0,2.911.551,1.565,1.565,0,0,1,.771.221c.158.158.152.187-.062.3-.182.1-.4.085-.93-.053a2.8,2.8,0,0,0-.967-.111.539.539,0,0,1-.4-.039,3.1,3.1,0,0,0-1.459-.472c-.122.122.685.569,1.33.735.314.081.441.171.42.3s.039.168.253.127c.165-.032.282,0,.282.071s.089.126.2.126c.25,0,.927.409.927.56,0,.239-.74.1-1.225-.225-.533-.361-.753-.414-.824-.2-.027.082-.321-.1-.733-.46-.38-.331-.743-.563-.812-.52s-.11.113-.091.157a14.612,14.612,0,0,0,2.1,1.783c.168-.045.8.4.8.564,0,.23-.317.288-.59.108a8.6,8.6,0,0,1-.757-.632c-.716-.658-.748-.192-.053.762.335.46.371.91.073.91-.252,0-.566-.337-.97-1.039-.471-.82-.781-.9-.454-.125a4.793,4.793,0,0,1,.248,1.136c.055.584.037.7-.106.7-.252,0-.515-.465-.692-1.224a5.023,5.023,0,0,0-.231-.789c-.193-.312-.286-.042-.286.825a6.179,6.179,0,0,1-.068,1.123.245.245,0,0,1-.449.047Zm1.641-.761a.241.241,0,0,0-.112-.175c-.062-.038-.112.009-.112.106s.051.175.112.175A.109.109,0,0,0,1461.081,163.3Zm-1.5-.372c-.031-.077-.057-.014-.057.14s.025.218.057.14A.432.432,0,0,0,1459.583,162.926Zm-1.011-.9c-.031-.077-.057-.014-.057.14s.025.218.057.14A.436.436,0,0,0,1458.572,162.028Zm3.227.056a1.579,1.579,0,0,0-.2-.477,5.3,5.3,0,0,1-.337-.584c-.243-.48-.691-.938-.779-.8a2.744,2.744,0,0,0,.713,1.136,1.737,1.737,0,0,1,.35.534C1461.833,162.469,1461.9,162.52,1461.8,162.084Zm-1.381-.671c-.106-.182-.116-.178-.12.044a1.38,1.38,0,0,0,.08.449c.075.185.087.181.12-.044A.809.809,0,0,0,1460.418,161.413Zm-1.583-.087c0-.251-.179-.477-.289-.366a.866.866,0,0,0,.021.4C1458.646,161.76,1458.834,161.735,1458.834,161.325Zm.64-.026c-.029-.109-.054-.047-.056.138s.021.275.052.2A.641.641,0,0,0,1459.474,161.3Zm-1.26-.586a1.517,1.517,0,0,0,.172-.506c0-.241-.333-.22-.355.022a2.5,2.5,0,0,0-.025.815A1.3,1.3,0,0,0,1458.214,160.713Zm2.02.079c-.1-.317-.249-.486-.349-.386s.183.638.324.638C1460.265,161.045,1460.276,160.931,1460.234,160.792Zm-.77-.152c-.04-.1-.1-.164-.129-.133s-.023.141.016.246.1.164.129.133S1459.5,160.744,1459.463,160.64Zm-.674-.239c-.114-.114-.208.058-.115.209.071.115.1.115.135,0A.231.231,0,0,0,1458.79,160.4Zm-1.141-.071c.313-.29.381-.633.126-.633-.187,0-.626.522-.626.745S1457.326,160.629,1457.649,160.33Zm-.247-.579c.243-.1.26-.391.023-.391-.278,0-.851.336-.777.455S1457.036,159.9,1457.4,159.751Zm-1.886,2.86c-.1-.161.246-.525.7-.743.548-.26.582-.095.084.415-.444.455-.656.543-.789.328Zm.25-4.642a.639.639,0,0,0-.433-.219c-1.148-.2-1.416-.329-1.09-.535.239-.151.436-.119.367.06-.044.115.05.183.322.234a2.034,2.034,0,0,0,.543.041c.306-.06,1.361.334,1.274.475C1456.647,158.188,1455.832,158.141,1455.765,157.968Zm2.957-.294c.376-.294.965-.4,1.187-.219.151.125.127.163-.183.294a2.506,2.506,0,0,1-.82.147l-.465,0Zm2.422-.348a1.294,1.294,0,0,1,.456-.282c.209-.087.379-.233.379-.324s.164-.243.365-.339a5.052,5.052,0,0,0,1.013-.595c.191-.159.532-.066.532.145,0,.079-.153.206-.341.284a1.592,1.592,0,0,0-.534.379,2.248,2.248,0,0,1-.811.45,3.715,3.715,0,0,0-.725.309C1461.325,157.493,1461.054,157.471,1461.145,157.326Zm-4.846-.1c-.322-.13-.649-.641-.478-.746.071-.044.212.022.312.146a1.694,1.694,0,0,0,.431.359C1457.033,157.239,1456.815,157.438,1456.3,157.229Zm2.161-.34c.173-.184,1.161-.3,1.161-.133,0,.067-.139.12-.309.117a3.165,3.165,0,0,0-.646.075C1458.4,157.011,1458.356,157,1458.459,156.889Zm2.4-.042a3.32,3.32,0,0,1,.718-.836c.032.019.179-.128.325-.326a6.052,6.052,0,0,1,1.414-1.381c.229,0,.134.222-.3.7a9.038,9.038,0,0,0-.6.729c-.221.327-1.552,1.279-1.552,1.109Zm-3.953-.35c-.367-.249-.837-.924-.722-1.038a6.5,6.5,0,0,1,1.3,1.229c0,.15-.157.1-.582-.191Zm3.668-.536c.079-.267.22-.493.32-.513.219-.043.347-.4.318-.892-.017-.266.025-.365.153-.365.1,0,.28-.177.408-.393.26-.441.434-.507.434-.164a7.583,7.583,0,0,1-1.687,2.8C1460.47,156.438,1460.494,156.224,1460.572,155.961Zm-5.933.16c-.219-.242-.245-.407-.045-.281a.547.547,0,0,0,.327.057c.247-.041.39.2.193.328C1454.9,156.363,1454.849,156.352,1454.639,156.121Zm3.023-.118a1.263,1.263,0,0,0-.4-.464.407.407,0,0,1-.223-.29,1.52,1.52,0,0,0-.172-.5c-.094-.182-.132-.331-.084-.33a5.764,5.764,0,0,1,1.116,1.872c-.031.031-.137-.1-.235-.287Zm2.229-.042c.284-1,.33-1.339.192-1.424-.1-.06-.117-.217-.065-.5.072-.385.272-.577.28-.269.006.255.333-.289.333-.555,0-.31.182-.345.275-.053a3.86,3.86,0,0,1-.558,1.817.354.354,0,0,0-.146.266c.048.252-.147.968-.264.968C1459.868,156.214,1459.849,156.111,1459.891,155.961Zm-1.821-.781a.793.793,0,0,1-.135-.472c0-.416.171-.267.278.242C1458.3,155.348,1458.275,155.384,1458.07,155.18Zm.88-.713c0-.291.018-.306.124-.124.086.149.085.243,0,.331s-.123.034-.12-.207Zm.4-.352a3.25,3.25,0,0,1,0-.955c.079-.25.086-.252.171-.036a3.161,3.161,0,0,1,0,1.461C1459.451,154.75,1459.405,154.625,1459.345,154.115Zm-1.167-.373c0-.154.026-.218.057-.14a.434.434,0,0,1,0,.281C1458.2,153.96,1458.178,153.9,1458.178,153.742Zm-.558-.281c0-.185.028-.248.056-.138a.643.643,0,0,1,0,.337C1457.641,153.736,1457.618,153.647,1457.62,153.461Z" transform="translate(-1453.674 -152.585)"/></g><g transform="matrix(0.999, 0.05, -0.05, 0.999, 23.322, 33.811)"><path class="ah" d="M3.62,18.222a8.565,8.565,0,0,0-.969-.6,1.423,1.423,0,0,1-.833-.915,5.694,5.694,0,0,1-.339-1.014,1.83,1.83,0,0,0-.369-.74,1.743,1.743,0,0,1-.395-.987A4.18,4.18,0,0,0,.555,13.2a1.376,1.376,0,0,1,.057-.609c.12-.472.111-.512-.244-1.148A3.163,3.163,0,0,1,0,10.587,3,3,0,0,1,.742,9.158c.747-.932.81-1.446.229-1.867a.962.962,0,0,1-.312-.517.624.624,0,0,1,.2-.646A.773.773,0,0,0,.925,5.054,1.452,1.452,0,0,1,.7,4.169C.678,3.552.693,3.5,1,3.268c.445-.346.621-.781.728-1.8.1-.933.187-1.128.63-1.381.262-.149.332-.13,1.113.308a2.67,2.67,0,0,1,1.088.892,1.3,1.3,0,0,0,.723.6,2.29,2.29,0,0,1,.7.419A1.357,1.357,0,0,0,6.6,2.62c.265.051.372.125.346.236a2.027,2.027,0,0,0,.6,2.282.759.759,0,0,1,.406.809,2.231,2.231,0,0,0,.535,1.538,11.257,11.257,0,0,1,.691,1.142,2.052,2.052,0,0,0,.762.918c.615.354.864.933.866,2.017,0,.824.021.9.291,1.183a1.809,1.809,0,0,1,.563,1.144c.066.414.041.48-.523,1.415a4.387,4.387,0,0,0-.437.975,1,1,0,0,1-.3.537,2.52,2.52,0,0,1-1.78-.133c-.614-.237-.655-.239-.91-.055a.939.939,0,0,0-.326.5c-.032.17-.078.415-.1.546-.06.331-.853.651-1.677.676a10.115,10.115,0,0,0-1.121.1.861.861,0,0,1-.865-.228Z" transform="translate(0.096 0)"/><path class="ai" d="M3.493,17.955a2.948,2.948,0,0,0-.734-.5,5.31,5.31,0,0,1-.736-.444,4.369,4.369,0,0,1-.665-1.653A1.253,1.253,0,0,0,1,14.689,1.18,1.18,0,0,1,.645,14a3.565,3.565,0,0,0-.121-.738,1.643,1.643,0,0,1,0-.956c.116-.478.108-.534-.131-.88A2.2,2.2,0,0,1,.046,9.8a.96.96,0,0,1,.456-.5c.2-.1.333-.234.3-.29a.3.3,0,0,1,.265-.428c.173.022.205-.06.243-.61.042-.621.035-.641-.314-.9-.626-.467-.6-1.011.056-1.316.257-.119.389-.245.357-.339a1.283,1.283,0,0,1-.051-.341c0-.1-.157-.284-.35-.4a.737.737,0,0,1-.416-.641c-.082-.535-.03-.632.458-.847.281-.124.389-.24.392-.418a6.689,6.689,0,0,1,.317-1.639A1.544,1.544,0,0,0,1.868.578c0-.445.278-.566.411-.179a2.605,2.605,0,0,1,.1.7c0,.352.018.383.127.22a.987.987,0,0,1,.765-.3c.2-.013.149-.288-.116-.6-.168-.2-.311-.271-.459-.229C2.571.22,2.48.193,2.48.121c0-.195.322-.148.691.1a1.3,1.3,0,0,0,.517.225c.289,0,.678.534.678.93,0,.345.005.349.545.358.459.007.58.055.765.3a1.489,1.489,0,0,0,.6.429L6.65,2.6l-.036.726a1.943,1.943,0,0,0,.056.788.386.386,0,0,1,.092.276c0,.133.133.283.352.4.515.27.615.462.628,1.2.009.525-.018.652-.13.6-.078-.033-.232.04-.343.163-.213.236-.271.561-.1.561.056,0,.1-.077.1-.172s.122-.223.27-.285c.323-.136.576.083,1.057.911.358.616.371.7.1.651-.11-.019-.2.015-.2.077s.107.113.241.113a.675.675,0,0,1,.466.313,1.707,1.707,0,0,0,.568.472c.526.243.757.755.757,1.681,0,.889.173,1.647.375,1.647s.542.674.543,1.065a2.233,2.233,0,0,1-.4.959,4.632,4.632,0,0,0-.51,1.09,1.557,1.557,0,0,1-.261.6,1.328,1.328,0,0,1-1.294.067,3.1,3.1,0,0,0-.956-.253c-.592-.062-.62-.053-.739.237a1.809,1.809,0,0,0-.124.569c0,.57-.731.976-1.732.963a11.188,11.188,0,0,0-1.23.06c-.465.056-.593.033-.714-.127Zm.856-1.305c.044-.185.09-.214.19-.123.207.189.693.041.693-.211,0-.188-.052-.2-.43-.137a1.046,1.046,0,0,0-.6.307c-.145.2-.194.209-.334.08-.091-.083-.165-.112-.165-.065,0,.115.327.384.472.389.064,0,.142-.106.173-.24Zm2.284-.432c-.011-.3-.044-.395-.1-.286-.074.145-.008.736.081.736a1.494,1.494,0,0,0,.018-.45Zm-3.575.048c.1-.288-.111-.429-.441-.3-.257.1-.264.117-.06.125.132.005.229.08.229.178,0,.223.194.217.272-.008Zm.959-.626c-.1-.123-.6-.216-.657-.122a.316.316,0,0,0,.043.254c.064.112.094.119.1.023a.131.131,0,0,1,.115-.141c.072,0,.088.111.043.309l-.07.309.245-.281c.135-.155.219-.313.187-.351ZM2.3,15.29a.234.234,0,0,0-.214-.19c-.106.006-.12.03-.039.066s.131.217.135.414c.006.29.022.315.086.133A.89.89,0,0,0,2.3,15.29Zm2.763.083a.441.441,0,0,0-.176-.223.216.216,0,0,0-.318.276C4.655,15.58,5.087,15.533,5.062,15.372Zm.578-.219a.3.3,0,0,0-.095-.227c-.121-.083-.243.128-.16.277C5.479,15.371,5.641,15.34,5.641,15.154Zm-2.606-.168c.171-.209.169-.215-.035-.156s-.3-.119-.111-.246a.346.346,0,0,0,.1-.257c0-.16-.03-.154-.21.045a.517.517,0,0,0-.142.532c.081.357.158.373.4.082Zm1.225-.076c.134-.2.086-.833-.064-.833-.053,0-.069.1-.035.216a.287.287,0,0,1-.044.288c-.114.078-.149.51-.041.51C4.11,15.091,4.194,15.009,4.259,14.91Zm4.032.1c0-.046-.143-.1-.318-.109a.662.662,0,0,1-.433-.189.618.618,0,0,0-.37-.2c-.2-.028-.255.014-.255.189s.057.219.321.19c.177-.02.351.019.388.084.076.135.667.167.667.035Zm1.284-.383c.071-.127.031-.123-.468.042-.084.028-.117.029-.072,0,.135-.081-.371-.524-.784-.686-.252-.1-.422-.114-.487-.042s.028.136.265.185c.2.042.364.127.364.19a1.216,1.216,0,0,0,.28.432c.26.295.3.306.554.163a1.106,1.106,0,0,0,.347-.286ZM4,14.115c.02-.014-.053-.153-.163-.308-.151-.212-.229-.25-.317-.152-.173.191-.142.36.036.2.128-.117.153-.1.153.106,0,.135-.046.214-.1.176s-.1-.024-.1.031c0,.2.136.247.3.113C3.885,14.2,3.975,14.129,4,14.115Zm1.667.1c.029-.123-.086-.333-.306-.56L5,13.295l.059.324c.041.226.014.344-.09.387s-.149-.014-.149-.181-.035-.206-.1-.135a.436.436,0,0,0-.044.34c.043.18.118.221.341.184.158-.026.318.009.356.077.1.183.231.15.283-.074Zm1-.267c0-.117-.042-.212-.094-.212-.174,0-.416.136-.416.234,0,.053.08.064.178.023.153-.063.16-.048.045.107s-.105.173.076.121A.3.3,0,0,0,6.66,13.951Zm-4.182.041c0-.2-.188-.389-.3-.313-.085.058-.066.127.065.236.218.182.236.188.234.077Zm7.175-.448c-.215-.174-.46-.149-.521.054s.4.372.57.218c.112-.1.1-.149-.049-.272Zm-7.759.233a.315.315,0,0,1-.127-.273c0-.119-.069-.216-.153-.216s-.153.034-.153.076c0,.133.333.488.449.479C1.974,13.837,1.967,13.81,1.894,13.777ZM4.4,12.922c.008.077.062.141.119.141s.032-.155-.06-.353L4.3,12.358l-.214.236c-.2.222-.2.248-.042.446a.907.907,0,0,1,.186.426c.008.119.047.014.087-.234s.08-.387.087-.31Zm-1.413.31c0-.288-.139-.376-.258-.164-.085.152.016.445.153.445C2.942,13.513,2.99,13.387,2.99,13.232Zm4.431-.056a.223.223,0,0,1,.191.141c.028.077.054.09.058.028.016-.285-.16-.4-.432-.289s-.335.237-.2.386c.039.043.11,0,.158-.094A.306.306,0,0,1,7.421,13.176Zm3.525-.04c-.136-.15-.364.078-.262.261.053.095.11.092.22-.008s.116-.172.042-.253Zm-4.928.125a1.077,1.077,0,0,1,.737-.422c.246,0,.385-.22.213-.337-.1-.067-.1-.1.012-.143s.108-.093-.026-.248c-.154-.179-.178-.173-.372.1A.606.606,0,0,1,6,12.5c-.427,0-.553.207-.38.627C5.749,13.428,5.892,13.477,6.018,13.26Zm-.275-.422a.1.1,0,1,1,.1.113A.108.108,0,0,1,5.742,12.838Zm4.483.05c-.207-.428-.465-.547-.826-.382-.265.121-.328.109-.533-.1a.85.85,0,0,0-.523-.241.679.679,0,0,1-.668-.553c0-.135-.054-.112-.209.093-.222.295-.225.761,0,.709a.366.366,0,0,1,.28.1c.112.1.185.091.329-.052.244-.244.525-.236.525.016,0,.122.127.254.325.336.269.112.354.106.494-.033s.2-.144.44.066a.759.759,0,0,1,.271.419c0,.141.028.153.12.05s.087-.2-.021-.426Zm-2.741-.9c0-.131.029-.158.062-.068a.247.247,0,0,1-.008.216c-.034.037-.058-.029-.054-.148Zm-6.011.637a.29.29,0,0,1-.067-.332c.081-.282-.066-.316-.259-.06-.115.153-.1.21.113.387.137.114.271.182.3.152S1.547,12.671,1.472,12.62Zm9.113.1c.035-.062-.011-.113-.1-.113s-.137.051-.1.113.081.113.1.113S10.55,12.787,10.585,12.725Zm-5.378-.5c.38-.131.279-.363-.134-.31-.268.035-.348.09-.306.212a1.153,1.153,0,0,1,.059.3c0,.095.022.1.076.006a.657.657,0,0,1,.3-.2Zm-2.549-.482a.853.853,0,0,0-.04-.931c-.164-.306-.174-.309-.458-.13-.16.1-.291.243-.292.317,0,.2.215.309.3.152.057-.1.091-.094.135.031a.5.5,0,0,1-.085.376c-.21.306-.18.49.08.489C2.451,12.048,2.576,11.941,2.658,11.744ZM9.072,11.7a1.391,1.391,0,0,0-.376-.553c-.218-.172-.285-.18-.442-.053-.2.162-.194.514.011.589.07.026.127-.033.127-.131,0-.278.3-.21.4.091a.632.632,0,0,0,.227.329l.151.068A2.3,2.3,0,0,0,9.072,11.7Zm-2.871,0c.327-.068.174-.268-.178-.233-.4.04-.445.087-.278.309.073.1.16.13.193.072a.451.451,0,0,1,.264-.148ZM3.55,11.261c.095-.17.255-.137.255.052,0,.108-.059.14-.17.094s-.145-.029-.1.06c.1.186.673.169.673-.02a.676.676,0,0,0-.2-.355.809.809,0,0,1-.218-.44c-.014-.23-.015-.23-.057.009a.529.529,0,0,1-.343.36c-.165.064-.3.194-.3.29s-.046.175-.1.175a.11.11,0,0,0-.1.116c0,.129.561-.159.662-.34Zm3.589-.4c.087.037.132-.041.132-.225v-.281l-.306.25c-.329.269-.344.307-.233.621.063.179.086.165.174-.107.059-.185.155-.29.233-.257Zm-1.353-.067c.2-.1.245-.187.2-.394s-.019-.265.146-.265a.283.283,0,0,1,.258.141c.031.084.055.061.059-.056s.074-.2.155-.2a.256.256,0,0,0,.207-.107c.091-.163-.668-.364-.827-.218-.1.088-.2.043-.392-.17l-.262-.29-.117.284c-.1.233-.087.318.054.473.16.177.171.176.171-.012,0-.131.062-.188.178-.163s.178.141.178.318c0,.252-.044.282-.438.3s-.442,0-.5-.31c-.068-.378-.048-.368-.386-.2-.311.157-.334.436-.058.712.171.171.227.179.367.051s.179-.122.262.041c.113.223.379.245.743.062Zm3.728-.208a.772.772,0,0,0,.2-.394.162.162,0,0,1,.153-.169.162.162,0,0,0,.153-.169c0-.191-.16-.227-.255-.056-.126.224-.27.1-.469-.394-.224-.56-.373-.622-.658-.275-.163.2-.169.247-.041.336a.81.81,0,0,0,.388.106.281.281,0,0,1,.292.227c.029.124.117.225.194.225.219,0,.166.352-.063.418a.268.268,0,0,0-.2.215c0,.211.065.2.306-.069ZM1.4,10.174a.446.446,0,0,0-.1-.422c-.181-.2-.761-.249-.761-.065s.294.26.448.119c.107-.1.154-.086.2.053.1.289.074.388-.1.388-.137,0-.143.029-.035.174.144.192.245.12.345-.246Zm2.219.14c.108.072.107.053,0-.1s-.175-.162-.357-.05l-.256.156c-.02.011,0,.078.036.148.05.09.127.072.259-.06C3.411,10.3,3.541,10.26,3.621,10.313Zm4.409-.18c.028,0,.024.077-.008.17-.042.121-.012.15.1.1s.138-.118.059-.283c-.057-.118-.142-.214-.19-.214-.169,0-.336.338-.265.534.065.177.082.172.161-.055.049-.139.111-.253.14-.253Zm1.179.113c0-.062-.072-.113-.159-.113s-.131.051-.1.113a.218.218,0,0,0,.159.113A.106.106,0,0,0,9.209,10.246ZM1.918,9.681c-.057-.1-.1-.1-.158.013-.107.192,0,.381.131.234A.228.228,0,0,0,1.918,9.681ZM4.483,8.84c-.08-.231.146-.352.281-.151s.55.334.628.195c.031-.056-.056-.15-.194-.208a1.084,1.084,0,0,1-.414-.363c-.09-.142-.163-.2-.163-.121s-.184.27-.408.434c-.447.327-.454.345-.306.776l.1.3.265-.348A.8.8,0,0,0,4.483,8.84ZM3.537,9.2c.082-.338.079-.422-.013-.422-.124,0-.343.449-.277.568C3.349,9.532,3.473,9.47,3.537,9.2Zm-1.28-.227c.02-.115-.028-.2-.118-.2a.223.223,0,0,1-.2-.141c-.031-.094-.081-.1-.151-.028-.16.173.041.644.255.6A.305.305,0,0,0,2.257,8.978Zm6.136.079c0-.1-.047-.144-.1-.1a.137.137,0,0,0-.045.176C8.332,9.284,8.393,9.255,8.393,9.057Zm-1.454-.08c.148.063.165-.069.038-.291-.069-.121-.134-.125-.311-.02s-.273.1-.478-.052c-.267-.193-.292-.6-.032-.519a1.947,1.947,0,0,0,.38.056.422.422,0,0,1,.319.166c.149.267.307-.183.173-.5-.112-.262-.691-.463-.759-.264-.019.054-.115.1-.215.1-.145,0-.193.127-.241.64a3.175,3.175,0,0,0-.018.715A1.006,1.006,0,0,0,6.324,9a1.811,1.811,0,0,1,.615-.027ZM2.99,8.535c0-.05.092-.091.2-.091.205,0,.265-.186.126-.394a1.11,1.11,0,0,0-.905-.029c-.066.048-.143.008-.178-.092-.081-.233-.266-.1-.266.2,0,.157.048.21.15.167a.168.168,0,0,1,.21.044.186.186,0,0,0,.354-.061c0-.093.046-.169.1-.169.116,0,.136.151.034.263a.961.961,0,0,0-.1.385c-.027.294-.021.3.119.091A.879.879,0,0,0,2.99,8.535Zm2.549-.559a1.051,1.051,0,0,0-.192-.387l-.192-.27L5.1,7.568a.541.541,0,0,0,.1.447C5.362,8.214,5.539,8.194,5.539,7.976Zm-1.712-.59c-.037-.354-.078-.4-.431-.464-.214-.04-.416-.148-.448-.24-.044-.125-.2-.159-.61-.134-.469.028-.539.061-.465.213a1.347,1.347,0,0,0,.255.334c.145.133.182.127.268-.043s.13-.164.422.151.334.33.446.16c.21-.317.447-.115.37.315-.057.317-.045.351.084.234a.631.631,0,0,0,.109-.527Zm4.236.072a.18.18,0,0,0-.111-.206c-.175-.074-.607.146-.536.273S8.016,7.61,8.062,7.458ZM4.544,6.726a3.216,3.216,0,0,1-.152-.418c-.026-.106-.1-.035-.2.2-.159.351-.157.358.04.241.17-.1.213-.081.26.118.031.131.081.211.112.177s0-.175-.056-.314Zm1.912.086a.329.329,0,0,1,.37-.1c.194.054.232.031.183-.109a.4.4,0,0,0-.6-.187.433.433,0,0,1-.326.1.343.343,0,0,0-.439.305c0,.221.648.216.815-.006ZM3.541,5.825c-.061-.216.12-.279.185-.065a.1.1,0,0,0,.166.046c.095-.065.1-.125.011-.24-.168-.224-.028-.416.2-.279.139.082.2.068.245-.056a.252.252,0,0,1,.214-.167.171.171,0,0,0,.156-.181c0-.132.063-.164.231-.117.3.084.969-.171.915-.351-.023-.077,0-.139.057-.139.139,0,.235-.317.12-.4-.052-.036-.2.064-.32.222-.239.3-.58.372-.775.156-.089-.1-.146-.06-.236.157a.767.767,0,0,1-.808.481c-.137-.048-.194.018-.241.278-.039.213-.124.341-.229.341-.124,0-.151.066-.106.253a2.438,2.438,0,0,1,.064.422c0,.15.014.15.1,0a.544.544,0,0,0,.043-.366ZM2.455,5.661c.171-.407.161-.5-.051-.46-.131.024-.172-.034-.154-.22.015-.16-.031-.253-.125-.253-.12,0-.129.06-.044.305a1.2,1.2,0,0,1,.05.547c-.052.228,0,.388.137.386C2.3,5.964,2.384,5.827,2.455,5.661Zm.581.07a.108.108,0,0,0-.156-.041.134.134,0,0,0-.037.173A.108.108,0,0,0,3,5.9.134.134,0,0,0,3.035,5.731Zm2.741-.238a.109.109,0,0,0,.037-.161c-.041-.046-.129-.023-.2.05-.152.168-.657.174-.749.009-.049-.087-.1-.078-.157.028-.15.262-.1.31.252.246a.473.473,0,0,1,.484.109c.126.151.146.149.179-.016a.481.481,0,0,1,.15-.264Zm.616-.131c.224-.591.02-1.311-.277-.979-.09.1-.076.159.06.244a.461.461,0,0,1,.043.684c-.118.131-.125.429-.01.429a1.253,1.253,0,0,0,.184-.378Zm.726-.185a.262.262,0,0,0-.21-.113.134.134,0,0,0-.147.113c0,.062.094.113.21.113S7.153,5.239,7.119,5.177ZM3.4,4.634A.122.122,0,0,0,3.551,4.5c0-.126-.092-.159-.357-.13-.49.054-.554.12-.338.348.157.165.2.171.291.037A.269.269,0,0,1,3.4,4.634Zm-.747-.867c.242-.337.328-.386.577-.326.22.053.281.032.246-.083-.069-.227-.7-.194-.833.044-.061.108-.162.2-.224.2a.773.773,0,0,0-.336.214c-.16.154-.186.231-.092.273C2.263,4.207,2.377,4.153,2.654,3.767Zm2.473-.388c.212-.234.132-.39-.14-.274a.323.323,0,0,0-.162.282c0,.269.053.268.3-.008ZM2.46,2.9c.186-.205.146-.428-.076-.428a.274.274,0,0,0-.273.4Q2.215,3.171,2.46,2.9ZM6.15,2.868a.185.185,0,0,0-.2-.169.294.294,0,0,1-.257-.21,1.167,1.167,0,0,0-.26-.41c-.166-.166-.226-.175-.358-.054s-.113.187.22.494c.559.514.853.634.853.349ZM4.325,2.7c.275,0,.294-.025.231-.31A.653.653,0,0,0,4.4,2.041a.985.985,0,0,1-.232-.2c-.172-.19-.362-.208-.362-.034,0,.082-.122.1-.351.052C3.168,1.8,3.083,1.831,3,2.011c-.154.317-.127.443.042.2s.381-.151.285.128c-.062.18-.05.18.183-.005.406-.323.512-.348.68-.163.145.16.127.2-.186.422-.19.135-.262.215-.159.177A1.749,1.749,0,0,1,4.325,2.7ZM2.786,1.459c0-.062-.02-.113-.045-.113s-.073.051-.108.113-.014.113.045.113A.111.111,0,0,0,2.786,1.459Zm1.223-.275c0-.179-.185-.347-.274-.248s.047.41.169.41C3.962,1.347,4.009,1.274,4.009,1.184ZM2.531.671c.035-.062.083-.113.108-.113s.045.051.045.113a.111.111,0,0,1-.108.113C2.517.783,2.5.733,2.531.671Z" transform="translate(0.267 0.082)"/><path class="aj" d="M3.366,17.512a4.985,4.985,0,0,0-.889-.559c-.519-.254-.587-.331-.872-1.006a4.06,4.06,0,0,1-.309-.983,1.219,1.219,0,0,0-.309-.605A1.827,1.827,0,0,1,.574,13.4c-.057-.336-.129-.749-.161-.919-.042-.226-.011-.328.116-.382.285-.121.576.31.627.928a1.323,1.323,0,0,0,.286.817c.243.27.874.442.874.238a.112.112,0,0,1,.113-.11c.063,0,.084.082.048.186-.09.259.13.94.3.94.078,0,.216-.124.306-.276.141-.238.145-.332.031-.683-.1-.293-.181-.392-.306-.356s-.227-.087-.373-.461c-.193-.494-.2-.5-.323-.257-.068.14-.16.211-.2.158-.12-.142,0-.829.145-.829.178,0,.567-.488.567-.711s.4-.262.589-.057c.092.1.162.091.3-.044a.57.57,0,0,1,.512-.12c.321.055.331.043.331-.338,0-.327-.044-.407-.255-.466a.3.3,0,0,1-.255-.335c0-.362-.4-.914-.543-.753a.466.466,0,0,1-.3.121c-.174,0-.188.058-.13.535.064.524.062.53-.116.295a4.213,4.213,0,0,1-.29-.443c-.1-.192-.121-.19-.331.043a.723.723,0,0,1-.383.246c-.133,0-.124-.051.051-.3a1.175,1.175,0,0,0,.211-.554,1.684,1.684,0,0,1,.148-.576,4.25,4.25,0,0,0,.2-.523c.031-.112.1-.174.154-.137s.063.172,0,.361a.6.6,0,0,0-.05.35c.082.09.375-.224.472-.506.049-.142.164-.258.256-.258.154,0,.154.021,0,.278a1.165,1.165,0,0,0-.165.447c0,.178.341.438.437.333.113-.125.583.328.583.561a2.125,2.125,0,0,0,.338.766l.338.525.35-.173c.777-.383,1.013-.543,1.013-.687,0-.1.069-.127.2-.079s.2.02.2-.07a.923.923,0,0,1,.223-.4c.291-.343.166-.472-.518-.536-.517-.048-.827-.2-.827-.413,0-.143.282-.122.326.024.02.068.256.138.523.157a1.274,1.274,0,0,1,.668.215.677.677,0,0,0,.25.181c.106,0,.081-.49-.046-.893-.155-.491.012-.684.308-.358a.855.855,0,0,1,.214.339c0,.056.107.046.238-.022.21-.109.226-.161.132-.435a.806.806,0,0,1,.048-.671l.154-.36.227.426c.125.234.2.453.172.487s-.055,0-.055-.071a.12.12,0,0,0-.1-.131c-.056,0-.1.07-.1.155a3.316,3.316,0,0,1-.225.7,2.471,2.471,0,0,0-.2.672.538.538,0,0,1-.183.327.671.671,0,0,0-.04.9c.158.224.159.224.315-.028.086-.139.226-.253.31-.253a1.3,1.3,0,0,1,.883.734c.082.363.264.362.264,0a.826.826,0,0,1,.179-.48,2.627,2.627,0,0,0,.346-.578c.162-.37.17-.374.284-.138a3.2,3.2,0,0,1,.135,1.514c-.063.488-.282.688-.882.8-.356.069-.388.056-.32-.128.174-.469.178-.6.016-.6-.09,0-.192-.127-.227-.282s-.138-.282-.236-.282a.435.435,0,0,1-.283-.122c-.079-.087-.174-.079-.334.028-.185.124-.215.224-.174.578s.027.407-.094.3a.522.522,0,0,1-.144-.337c0-.287-.192-.387-.271-.141-.123.381-.361.6-.589.534a.388.388,0,0,0-.409.171c-.241.295-.464.3-.464.006,0-.148.068-.225.2-.225a.312.312,0,0,0,.265-.237c.049-.172.1-.2.18-.113.163.18.245.153.3-.1.029-.124.126-.225.216-.225.17,0,.2-.1.165-.563-.029-.406-.161-.5-.327-.243a.849.849,0,0,1-.427.305.589.589,0,0,0-.374.343A.585.585,0,0,1,5.811,11a1.849,1.849,0,0,0-.557.3.553.553,0,0,1-.43.155.175.175,0,0,0-.219.043c-.076.136.141.894.256.894a1.472,1.472,0,0,0,.41-.338c.18-.186.374-.305.432-.266s.04.112-.06.173a.629.629,0,0,0-.221.874,1.216,1.216,0,0,0,.312.43.831.831,0,0,1,.191.528c.037.458.3.754.4.456.1-.278.354-.192.389.13.028.258.107.319.593.456.618.174,1.02.121,1.02-.136s.164-.2.466.2c.173.226.3.312.323.225.065-.213.2-.169.26.084.077.325.232.277.38-.118a.633.633,0,0,0,0-.611c-.164-.338-.056-.9.156-.805.1.044.149-.016.149-.2a.3.3,0,0,1,.2-.322c.138-.04.18-.01.142.1-.1.28.349.172.57-.138l.209-.294.1.3c.154.448.139.511-.3,1.232a5.461,5.461,0,0,0-.525,1.1,1.68,1.68,0,0,1-.3.611,1.138,1.138,0,0,1-1.2.019,2.11,2.11,0,0,0-.945-.25l-.771-.078-.121.447a3.49,3.49,0,0,0-.121.631.17.17,0,0,1-.15.184c-.091,0-.127.066-.091.169s0,.17-.131.173a.758.758,0,0,0-.387.169,1.285,1.285,0,0,1-1.136.066.624.624,0,0,0-.56.052.965.965,0,0,1-1.185-.127Zm.583-.618c.061-.126.146-.2.189-.175s.207-.02.363-.109c.386-.221.5-.206.62.083a.572.572,0,0,0,.228.291c.152.053.175-.379.025-.481a.769.769,0,0,1-.1-.462v-.392l-.484.033a.845.845,0,0,0-.646.248c-.089.118-.213.18-.276.137-.157-.107-.043-.386.192-.468a.3.3,0,0,0,.194-.251c0-.16.017-.157.133.018.127.191.152.189.527-.043s.4-.236.5-.039a1.18,1.18,0,0,1,.11.43c0,.189.064.219.381.189.358-.034.38-.016.443.36a1.155,1.155,0,0,1,0,.515c-.1.174.037.147.207-.041.154-.171.213-1.529.066-1.529a.934.934,0,0,0-.311.18.572.572,0,0,1-.472.113c-.213-.059-.234-.116-.187-.5.03-.247.007-.468-.054-.509s-.059-.174.039-.381c.2-.43.183-.576-.1-.717a.933.933,0,0,1-.366-.42l-.122-.3-.185.253c-.183.249-.408.339-.408.163a.468.468,0,0,1,.124-.227c.1-.108.083-.221-.067-.529-.229-.471-.382-.493-.62-.092-.144.242-.155.342-.058.514a3.546,3.546,0,0,1,.215.488c.136.4-.066.349-.3-.068l-.188-.342-.174.293a1.029,1.029,0,0,0,.194,1.213c.308.326.431.756.216.756-.086,0-.21-.111-.276-.247-.116-.239-.124-.234-.264.155-.127.351-.185.4-.461.374-.258-.022-.343-.1-.464-.437-.154-.427-.487-.564-.6-.246-.1.293.458,1.252.887,1.518.22.136.4.3.4.353a.125.125,0,0,0,.137.105.593.593,0,0,1,.322.225c.232.284.322.283.46,0Zm-.48-.295a.16.16,0,0,1-.072-.2.313.313,0,0,0-.108-.288c-.178-.163-.212-.455-.052-.455.058,0,.129.089.158.2a4.091,4.091,0,0,0,.2.507c.141.3.119.346-.122.237Zm1.277-1.922c-.228-.039-.284-.12-.341-.5-.081-.531,0-.7.146-.294.127.369.287.474.468.308.227-.208.367-.036.235.286-.063.153-.142.27-.175.261s-.183-.038-.333-.063ZM3.077,12.785a2.062,2.062,0,0,1-.055-.523.392.392,0,0,0-.144-.363c-.112-.047-.154.012-.154.214a1.186,1.186,0,0,1-.12.492c-.1.171-.084.273.065.525.179.3.19.3.329.1a.6.6,0,0,0,.079-.442ZM3.743,12c0-.093-.043-.169-.1-.169-.129,0-.221.176-.139.266C3.623,12.22,3.743,12.171,3.743,12Zm3.823,2.191a1.171,1.171,0,0,0-.523-.219c-.223,0-.339-.26-.342-.761,0-.314-.162-.329-.307-.028-.12.248-.409.308-.406.084a.6.6,0,0,1,.361-.51c.278-.161.415-.05.527.426.1.439.4.555.361.141s.163-.281.237.169c.093.568.228.734.529.65.176-.049.234-.026.2.077C8.138,14.439,7.9,14.428,7.566,14.187ZM9.108,14a.15.15,0,0,1,0-.161c.072-.128.348-.125.348,0s-.265.245-.344.158ZM8.7,13.686a.323.323,0,0,0-.291-.173.677.677,0,0,1-.632-.531,1.255,1.255,0,0,0-.222-.418c-.132-.145-.112-.163.161-.141.2.015.332.1.369.229.054.187.07.189.18.022.174-.263.5-.109.369.171s-.125.447.042.447c.134,0,.266.229.266.46,0,.167-.177.119-.241-.066Zm.241-.732a.1.1,0,1,1,.1.113A.108.108,0,0,1,8.943,12.954Zm.714.007a.245.245,0,0,1,.1-.176c.056-.038.1.009.1.106s-.046.176-.1.176A.1.1,0,0,1,9.656,12.961Zm.737-.253a.305.305,0,0,1,.161-.178c.074-.027.1.024.059.134C10.543,12.868,10.332,12.91,10.393,12.707Zm-8.775-.457a.655.655,0,0,1-.118-.378.358.358,0,0,0-.161-.315c-.228-.1-.247-.089-.247.1a.188.188,0,0,1-.2.169.185.185,0,0,1-.2-.191,1.076,1.076,0,0,0-.269-.5,2.613,2.613,0,0,1-.385-1.7c.1-.356.328-.206.512.338s.682,1.142.963,1.15.4.26.4.809c0,.565-.095.736-.29.52Zm7.273-.311c-.035-.062-.014-.113.045-.113a.111.111,0,0,1,.108.113c0,.062-.02.113-.045.113S8.926,12,8.892,11.94Zm1.376,0a.1.1,0,1,1,.1.113A.108.108,0,0,1,10.268,11.94ZM8.433,11.5a.252.252,0,0,1,.1-.182c.056-.038.1-.019.1.043a.252.252,0,0,1-.1.182C8.479,11.584,8.433,11.565,8.433,11.5Zm-5.2-1.14c0-.145.052-.225.127-.2a.216.216,0,0,1,0,.394C3.285,10.588,3.234,10.508,3.234,10.363Zm5.012-.675c-.254-.38-.28-.564-.08-.564.078,0,.167.108.2.24.042.179.1.219.241.156.278-.126.385-.126.419,0,.017.062-.052.13-.153.15a.556.556,0,0,0-.295.193c-.09.127-.151.095-.331-.174ZM5.476,9.8a.1.1,0,1,1,.1.113A.108.108,0,0,1,5.476,9.8ZM4.151,9.466a.473.473,0,0,1,.158-.253c.087-.08.248-.244.357-.364.148-.163.229-.186.314-.092.18.2.029.457-.379.646C4.162,9.6,4.151,9.606,4.151,9.466ZM.827,8.945a1.248,1.248,0,0,0,.062-.338.151.151,0,0,1,.14-.16c.227,0,.413-.313.286-.483a.272.272,0,0,1-.014-.31A.675.675,0,0,0,.99,6.67C.66,6.462.583,6.35.583,6.081a.49.49,0,0,1,.3-.5,1.289,1.289,0,0,1,.47-.172c.14,0,.157-.072.1-.422-.08-.473-.217-.7-.417-.7S.583,3.828.584,3.494c0-.222.094-.334.419-.506.476-.252.6-.521.6-1.3a1.275,1.275,0,0,1,.1-.615A1.357,1.357,0,0,0,1.864.5c.117-.864.3-.537.268.469-.037,1.028-.3,1.788-.68,1.98-.265.133-.249.346.021.293.252-.049.282.257.032.329-.217.063-.216.068.053.263s.308.327.377,1.291c.021.293-.013.343-.256.374-.278.035-.366.174-.188.3a.289.289,0,0,1,.043.271c-.078.328.569,1.023.89.955.288-.061.71.329.506.468a.2.2,0,0,1-.236-.034A.967.967,0,0,0,2.265,7.3c-.266-.034-.319.007-.412.322a2.041,2.041,0,0,1-.332.627,1.035,1.035,0,0,0-.226.568c0,.251-.045.3-.266.3-.2,0-.251-.044-.2-.178ZM8.433,8.56a.111.111,0,0,1,.108-.113c.059,0,.08.051.045.113s-.083.113-.108.113S8.433,8.622,8.433,8.56ZM3.565,8.367c-.2-.079-.149-.28.052-.209.271.1.5-.535.329-.895-.139-.288-.065-.676.106-.559a.275.275,0,0,1,.048.279c-.1.343.1.349.4.012l.275-.318-.255-.529L4.264,5.62,4.1,5.96a1.222,1.222,0,0,1-.36.459.556.556,0,0,1-.766-.225C2.932,6.031,2.845,6,2.529,6.05c-.233.034-.419.007-.461-.068s.01-.126.135-.126a.4.4,0,0,0,.312-.2c.1-.182.115-.183.209-.01a.254.254,0,0,0,.306.128c.157-.045.2,0,.2.179,0,.163.064.238.2.238.112,0,.2-.068.2-.151,0-.224.44-.75.628-.75.214,0,.435.3.439.6a.279.279,0,0,0,.168.274,1.228,1.228,0,0,0,.914-.707c.015-.208.02-.209.065-.015.04.172.114.2.412.145.4-.071.977-.6.9-.825-.038-.109.007-.112.2-.014.218.11.25.2.249.7s-.034.59-.25.7-.278.092-.43-.093a.373.373,0,0,0-.438-.15,2.174,2.174,0,0,1-.522.064.514.514,0,0,0-.5.729c.083.24.137.284.227.185.139-.153.486-.176.486-.032,0,.418-.846.458-.9.042-.045-.35-.324-.327-.324.026a1.485,1.485,0,0,1-.433.773c-.475.541-.772.746-.969.669ZM4.9,7.936c-.093-.269.008-.294.2-.048.148.191.15.222.017.222A.258.258,0,0,1,4.9,7.936Zm1.188.055c0-.066.046-.088.1-.05s.1.092.1.119-.046.05-.1.05A.112.112,0,0,1,6.088,7.99ZM7.075,7.5c-.064-.184.022-.314.149-.227s.113.385,0,.385C7.17,7.659,7.1,7.588,7.075,7.5ZM3.234,7.215a.245.245,0,0,1,.1-.176c.056-.038.1.009.1.106s-.046.176-.1.176A.1.1,0,0,1,3.234,7.215ZM6.5,7.006a.461.461,0,0,1,.122-.225c.18-.2.285-.165.285.09q0,.225-.2.225C6.588,7.1,6.5,7.055,6.5,7.006Zm.969-.36a.218.218,0,0,1,.159-.113.106.106,0,0,1,.1.113c0,.062-.072.113-.159.113S7.43,6.707,7.464,6.645ZM2.783,5.032a.411.411,0,0,1-.147-.348c.03-.165.078-.138.269.148C3.149,5.2,3.1,5.284,2.783,5.032ZM5.209,4.9c-.109-.315.133-.447.76-.412.325.018.225.293-.109.3a.745.745,0,0,0-.424.154C5.3,5.07,5.265,5.063,5.209,4.9ZM3.234,4.73c0-.124.046-.225.1-.225s.1.1.1.225-.046.225-.1.225S3.234,4.854,3.234,4.73Zm.535-.41a.4.4,0,0,1-.033-.543.112.112,0,0,1,.159.05c.1.176.256.136.256-.067,0-.117-.056-.157-.157-.115a.157.157,0,0,1-.215-.1c-.08-.231-.214-.209-.288.048a.478.478,0,0,1-.218.281.448.448,0,0,1-.549-.331c0-.2.17-.222.226-.035.027.089.126.067.314-.069A.59.59,0,0,0,3.539,2.9c0-.288.023-.318.153-.2a.546.546,0,0,1,.153.352c0,.377.3.186.7-.442.161-.253.3-.361.447-.338.27.044.358.316.1.316-.271,0-.437.219-.437.579a.582.582,0,0,1-.092.372.279.279,0,0,0-.05.26.53.53,0,0,1-.036.329.762.762,0,0,1-.714.19ZM6.426,4.11a2.751,2.751,0,0,0-.268-.563C6,3.323,6,3.323,5.712,3.56c-.433.354-.734.434-.81.216-.087-.251.028-.346.213-.176.129.118.17.093.255-.153.056-.162.163-.294.239-.294.161,0,.522-.417.616-.711.037-.115.116-.17.181-.125s.1.324.064.787a2.011,2.011,0,0,0,.048.818.426.426,0,0,1,.06.319c-.031.164-.063.137-.152-.129Zm-4.212.108c0-.122.407-.54.465-.477.088.1-.188.538-.336.538C2.272,4.279,2.214,4.252,2.214,4.218ZM2.01,3.04a.132.132,0,0,1,.144-.113c.079,0,.263-.156.408-.347.164-.215.264-.282.264-.177a.242.242,0,0,0,.127.218c.07.027.049.036-.046.02s-.246.093-.334.241C2.416,3.148,2.01,3.261,2.01,3.04Zm.306-1.127c0-.062.069-.113.153-.113s.153.051.153.113-.069.113-.153.113S2.316,1.976,2.316,1.914ZM4.6,1.757c-.08-.23-.01-.327.2-.276.133.033.135.067.011.253s-.149.2-.21.023ZM2.724,1.585c0-.272.216-.572.411-.572.11,0,.2-.051.2-.113,0-.216.181-.111.24.139.076.321-.073.491-.249.284-.115-.136-.169-.119-.369.12C2.829,1.6,2.724,1.66,2.724,1.585ZM3.983.759C3.907.47,3.839.4,3.662.428,3.538.447,3.437.409,3.437.344c0-.214.366-.127.594.141a.914.914,0,0,1,.222.451C4.253,1.256,4.084,1.146,3.983.759Z" transform="translate(0 0.598)"/></g><g transform="translate(28.868 9.112)"><path d="M193.6,98.434l-.383.236-1.291-2.112.876-.542a.88.88,0,0,1,.654-.149.737.737,0,0,1,.486.359.711.711,0,0,1,.112.445.747.747,0,0,1-.189.421l1.023.545-.46.285-.958-.523q-.279.172-.369.222Zm-.33-1.338a.723.723,0,0,0,.3-.289.335.335,0,0,0-.042-.323.328.328,0,0,0-.242-.177.586.586,0,0,0-.361.117l-.4.247.387.634A3.821,3.821,0,0,0,193.268,97.1Z" transform="translate(-191.924 -90.541)"/><path d="M206.526,89.943,205.4,87.738l1.579-.819.183.358-1.172.608.242.473.884-.459.187.365-.884.459.312.61,1.249-.648.2.4Z" transform="translate(-203.372 -82.95)"/><path d="M219.73,82.8l-.45.2.32.746.445-.195a.514.514,0,0,0,.272-.23.386.386,0,0,0-.01-.332.376.376,0,0,0-.224-.227A.492.492,0,0,0,219.73,82.8Zm-.041,2.289-.977-2.277.907-.4a.863.863,0,0,1,.663-.044.764.764,0,0,1,.447.444.732.732,0,0,1,.011.617.914.914,0,0,1-.5.442l-.5.217.351.817Z" transform="translate(-214.683 -79.047)"/><path d="M233.857,78.018a1.12,1.12,0,0,1-.753.049.786.786,0,0,1-.466-.525l-.555-1.559.453-.165.537,1.507a.453.453,0,0,0,.236.283.529.529,0,0,0,.4-.016.522.522,0,0,0,.3-.237.445.445,0,0,0,.007-.369l-.538-1.513.453-.165.555,1.559a.8.8,0,0,1-.037.7,1.083,1.083,0,0,1-.592.454Z" transform="translate(-226.042 -73.086)"/><path d="M247.929,73.5l-.5.148.2.707.526-.157a.7.7,0,0,0,.356-.2.352.352,0,0,0,.03-.325Q248.452,73.348,247.929,73.5Zm-.263-.911-.5.148.165.569.5-.148A.512.512,0,0,0,248.1,73a.251.251,0,0,0,.042-.234Q248.061,72.475,247.666,72.593Zm-.348,2.289-.689-2.382.977-.292a1,1,0,0,1,.663-.031.581.581,0,0,1,.316.4.447.447,0,0,1-.191.537.6.6,0,0,1,.641.5.674.674,0,0,1-.069.561.955.955,0,0,1-.573.381Z" transform="translate(-238.401 -70.389)"/><path d="M262.916,69.884a1.116,1.116,0,0,1-.753-.039.787.787,0,0,1-.4-.576l-.369-1.615.469-.112.357,1.561a.453.453,0,0,0,.2.309.527.527,0,0,0,.4.03.521.521,0,0,0,.329-.2.446.446,0,0,0,.05-.366l-.358-1.567.469-.112.369,1.615a.8.8,0,0,1-.118.689,1.082,1.082,0,0,1-.64.382Z" transform="translate(-250.943 -66.195)"/><path d="M276.683,68.71l-.434-2.444.482-.09.355,2,1.075-.2.079.443Z" transform="translate(-263.565 -65.327)"/><path d="M288.792,66.6l-.361-2.457.478-.075.361,2.457Z" transform="translate(-273.915 -63.54)"/><path d="M294.284,64.747l-.464.057-.276-2.469.464-.057.128,1.149.841-1.268.56-.068-.687,1.024,1.04,1.436-.546.067-.785-1.119-.356.527Z" transform="translate(-278.259 -61.857)"/><path d="M310.651,63.757l.665-2.536.557-.038.952,2.426-.477.033-.146-.377-.971.066-.1.394Zm1.4-.89-.419-1.076-.292,1.124Z" transform="translate(-292.793 -61.085)"/><path d="M335.57,63.031,335.594,62l-.808-1.464.519.007.556,1.024.607-1.009.483.006L336.078,62l-.025,1.036Z" transform="translate(-313.298 -60.533)"/><path d="M352.219,62.415l-.051.841-.258-.013.051-.841Z" transform="translate(-327.847 -62.121)"/><path d="M357.109,63.741a1.107,1.107,0,0,1-.7-.273.791.791,0,0,1-.2-.675l.157-1.655.479.041-.152,1.6a.456.456,0,0,0,.094.358.633.633,0,0,0,.74.065.45.45,0,0,0,.162-.333l.153-1.605.479.041-.157,1.655a.806.806,0,0,1-.328.619,1.074,1.074,0,0,1-.725.163Z" transform="translate(-331.494 -61.048)"/><path d="M378.762,66.137l-.441-.074.437-2.453,1.009.17a.863.863,0,0,1,.585.32.743.743,0,0,1,.124.593.725.725,0,0,1-.211.411.747.747,0,0,1-.418.194l.4,1.089-.53-.089-.366-1.03q-.321-.054-.421-.076Zm.64-1.231a.713.713,0,0,0,.41-.024A.341.341,0,0,0,380,64.61a.33.33,0,0,0-.062-.294.575.575,0,0,0-.346-.151l-.46-.077-.131.736A3.753,3.753,0,0,0,379.4,64.906Z" transform="translate(-350.285 -63.148)"/><path d="M396.266,68.814l-.488-.116.114-2.535.437.1-.1,1.742.812-1.572.424.1-.053,1.761.793-1.585.437.1-1.138,2.292-.542-.129.073-1.728Z" transform="translate(-365.116 -65.316)"/><path d="M412.25,75.064l1.546-2.126.53.169-.008,2.615-.454-.145,0-.406-.924-.294-.239.331Zm1.621-.319.006-1.159-.683.943Z" transform="translate(-379.11 -71.073)"/><path d="M427.453,78.937l-.4-.159.935-2.314.392.155.349,1.951.632-1.563.412.163-.935,2.314-.41-.162-.332-1.971Z" transform="translate(-391.685 -74.068)"/><path d="M441.754,82.848l-.238-.115L440.8,84.2l.238.115a.869.869,0,0,0,.675.1.882.882,0,0,0,.438-.47.822.822,0,0,0,.09-.647A.876.876,0,0,0,441.754,82.848Zm-1.578,1.547,1.1-2.243.783.377a1.248,1.248,0,0,1,.527.438.957.957,0,0,1,.163.568,1.52,1.52,0,0,1-.169.633,1.649,1.649,0,0,1-.277.409,1.173,1.173,0,0,1-.36.261.92.92,0,0,1-.453.081,1.4,1.4,0,0,1-.529-.147Z" transform="translate(-402.836 -78.9)"/><path d="M453.693,93.81l1.974-1.736.479.282-.586,2.555-.41-.242.092-.4-.834-.492-.306.271Zm1.647.046.262-1.131-.873.771Z" transform="translate(-414.32 -87.33)"/></g><g transform="translate(17.813 98.574)"><path d="M118.12,664.636a1.118,1.118,0,0,1-.5-.569.8.8,0,0,1,.131-.693l.893-1.4.405.259-.864,1.353a.459.459,0,0,0-.08.362.528.528,0,0,0,.254.306.514.514,0,0,0,.371.1.445.445,0,0,0,.3-.221l.867-1.358.405.259-.893,1.4a.8.8,0,0,1-.572.4,1.068,1.068,0,0,1-.717-.192Z" transform="translate(-117.592 -661.975)"/><path d="M129.309,670.747l-.453-.248-.354.647.48.263a.684.684,0,0,0,.388.115.35.35,0,0,0,.25-.209Q129.786,671.008,129.309,670.747Zm.457-.834-.453-.248-.285.521.453.248a.505.505,0,0,0,.306.08.25.25,0,0,0,.194-.136q.146-.267-.215-.464Zm-1.857,1.377,1.195-2.181.892.489a1,1,0,0,1,.488.45.589.589,0,0,1-.062.511.443.443,0,0,1-.512.245.608.608,0,0,1,.1.812.671.671,0,0,1-.443.349.941.941,0,0,1-.671-.138Z" transform="translate(-126.357 -668.036)"/><path d="M142.849,678.263a1.119,1.119,0,0,1-.562-.5.8.8,0,0,1,.044-.7l.713-1.5.434.207-.69,1.45a.459.459,0,0,0-.035.369.528.528,0,0,0,.29.272.514.514,0,0,0,.38.049.444.444,0,0,0,.266-.256l.692-1.455.434.207-.713,1.5a.8.8,0,0,1-.519.466A1.068,1.068,0,0,1,142.849,678.263Z" transform="translate(-138.519 -673.513)"/><path d="M153.983,683.828l-.381-.157.949-2.3.649.268-.249,1.652,1.015-1.336.638.264-.949,2.3-.388-.16.772-1.869-1.247,1.673-.352-.146.314-2.056Z" transform="translate(-148.186 -678.454)"/><path d="M172.141,689.9l-.475-.167.352-2.512.425.149-.262,1.724.956-1.48.412.145-.218,1.748.938-1.5.425.149-1.348,2.162-.527-.185.235-1.713Z" transform="translate(-163.533 -683.422)"/><path d="M187.571,695.936l.718-2.381,1.7.511-.116.386-1.259-.38-.154.51.95.286-.119.394-.95-.286-.2.659,1.341.4-.13.431Z" transform="translate(-177.045 -688.805)"/><path d="M212.823,706.67a.429.429,0,0,1,.2-.277.442.442,0,0,1,.345-.049.446.446,0,0,1,.327.542.451.451,0,1,1-.875-.217Z" transform="translate(-198.486 -699.658)"/><path d="M228.748,706.323a1.119,1.119,0,0,1-.667-.353.8.8,0,0,1-.127-.694l.331-1.627.471.1-.32,1.573a.459.459,0,0,0,.055.367.528.528,0,0,0,.347.194.514.514,0,0,0,.381-.044.445.445,0,0,0,.2-.313l.321-1.579.471.1-.331,1.627a.8.8,0,0,1-.391.578A1.068,1.068,0,0,1,228.748,706.323Z" transform="translate(-211.333 -697.381)"/><path d="M241.535,708.935l-.406-.07.42-2.451.692.119.121,1.666.7-1.526.681.117-.42,2.451-.414-.071.342-1.994-.848,1.907-.376-.064-.146-2.074Z" transform="translate(-222.548 -699.73)"/><path d="M258.6,711.676a1.118,1.118,0,0,1-.687-.312.8.8,0,0,1-.168-.685l.233-1.644.476.067-.225,1.59a.459.459,0,0,0,.077.363.529.529,0,0,0,.358.173.515.515,0,0,0,.378-.067.445.445,0,0,0,.177-.324l.226-1.6.476.067-.233,1.644a.8.8,0,0,1-.356.6A1.067,1.067,0,0,1,258.6,711.676Z" transform="translate(-236.653 -701.956)"/><path d="M271.82,713.506l-.445-.051.282-2.471,1.018.116a.874.874,0,0,1,.6.289.748.748,0,0,1,.161.586.717.717,0,0,1-.184.421.738.738,0,0,1-.406.215l.468,1.066-.535-.061-.43-1.009q-.324-.037-.425-.054Zm.561-1.263a.711.711,0,0,0,.408-.045.336.336,0,0,0,.166-.281.332.332,0,0,0-.081-.29.581.581,0,0,0-.355-.132l-.464-.053-.085.741A3.759,3.759,0,0,0,272.381,712.244Z" transform="translate(-248.244 -703.613)"/><path d="M285.724,715.014l.239-2.475.481.047-.239,2.475Z" transform="translate(-260.435 -704.933)"/><path d="M290.71,715.506l-.41-.032.193-2.479.7.055.274,1.648.553-1.584.689.054-.193,2.479-.419-.033.157-2.016-.669,1.977-.38-.03-.336-2.052Z" transform="translate(-264.323 -705.321)"/><path d="M308.418,715.568a1.3,1.3,0,0,0-.023-.325.967.967,0,0,0-.105-.285.535.535,0,0,0-.206-.209.641.641,0,0,0-.311-.09.594.594,0,0,0-.393.111.74.74,0,0,0-.248.312,1.248,1.248,0,0,0-.09.419,1.307,1.307,0,0,0,.023.325,1.021,1.021,0,0,0,.1.282.582.582,0,0,0,.205.212.678.678,0,0,0,.314.087.594.594,0,0,0,.393-.111.722.722,0,0,0,.245-.309,1.205,1.205,0,0,0,.092-.419Zm-1.846-.09a1.445,1.445,0,0,1,.165-.612,1.2,1.2,0,0,1,.429-.463,1.049,1.049,0,0,1,.628-.16,1.107,1.107,0,0,1,.491.135,1.008,1.008,0,0,1,.353.313,1.4,1.4,0,0,1,.2.422,1.5,1.5,0,0,1-.111,1.093,1.2,1.2,0,0,1-.429.46,1.059,1.059,0,0,1-.627.158,1.125,1.125,0,0,1-.494-.135,1.027,1.027,0,0,1-.35-.31,1.4,1.4,0,0,1-.2-.422A1.477,1.477,0,0,1,306.571,715.478Z" transform="translate(-278.145 -706.38)"/><path d="M333.445,721.5a.428.428,0,0,1,.133-.316.442.442,0,0,1,.324-.128.446.446,0,0,1,.444.451.451.451,0,1,1-.9-.008Z" transform="translate(-300.978 -712.168)"/><path d="M351.106,717.174l-.006-.21a.873.873,0,0,1-.625.278,1.1,1.1,0,0,1-.858-.318,1.341,1.341,0,0,1-.345-.938,1.524,1.524,0,0,1,.114-.645,1.129,1.129,0,0,1,.39-.484,1.114,1.114,0,0,1,.625-.2,1.083,1.083,0,0,1,.683.193.917.917,0,0,1,.37.476l-.42.211a.587.587,0,0,0-.228-.331.652.652,0,0,0-.892.128,1,1,0,0,0-.164.635.938.938,0,0,0,.206.616.628.628,0,0,0,.509.209.615.615,0,0,0,.427-.159.551.551,0,0,0,.165-.4l-.594.017-.012-.417,1.025-.03.039,1.356Z" transform="translate(-314.424 -706.734)"/><path d="M365.693,716.562a1.119,1.119,0,0,1-.735-.171.8.8,0,0,1-.3-.639l-.1-1.658.48-.028.092,1.6a.459.459,0,0,0,.147.34.528.528,0,0,0,.385.1.515.515,0,0,0,.357-.139.445.445,0,0,0,.11-.352l-.092-1.608.48-.027.095,1.658a.8.8,0,0,1-.231.658A1.068,1.068,0,0,1,365.693,716.562Z" transform="translate(-327.416 -706.159)"/><path d="M379.158,715.393l-.465.04-.213-2.478.465-.04.1,1.153.873-1.237.562-.048-.713,1,1,1.472-.548.047-.756-1.147-.369.514Z" transform="translate(-339.239 -705.141)"/><path d="M394.383,713.773a1.118,1.118,0,0,1-.744-.128.8.8,0,0,1-.336-.62l-.191-1.649.478-.055.185,1.595a.459.459,0,0,0,.166.331.528.528,0,0,0,.39.077.514.514,0,0,0,.349-.16.444.444,0,0,0,.089-.358l-.185-1.6.478-.055.191,1.649a.8.8,0,0,1-.192.67A1.067,1.067,0,0,1,394.383,713.773Z" transform="translate(-351.67 -703.753)"/><path d="M407.722,711.858l-.429.063-.36-2.461.418-.061,1.291,1.509-.243-1.662.44-.064.36,2.461-.437.064-1.286-1.535Z" transform="translate(-363.412 -702.081)"/><path d="M421.228,708.316l-.261.047.287,1.6.261-.047a.7.7,0,0,0,.686-.946.819.819,0,0,0-.311-.573A.889.889,0,0,0,421.228,708.316Zm-.363,2.168-.439-2.448.859-.154a1.268,1.268,0,0,1,.687.045.965.965,0,0,1,.469.362,1.508,1.508,0,0,1,.238.609,1.627,1.627,0,0,1,.018.491,1.155,1.155,0,0,1-.138.421.914.914,0,0,1-.32.33,1.412,1.412,0,0,1-.516.191Z" transform="translate(-374.875 -700.954)"/><path d="M438.185,707.281l.264-2.6.545-.118,1.319,2.258-.467.1-.2-.352-.951.206-.039.4Zm1.244-1.082-.582-1-.114,1.153Z" transform="translate(-389.964 -698.155)"/><path d="M457.814,702.965l-.641-2.4.467-.125.641,2.4Z" transform="translate(-406.095 -694.653)"/><path d="M464.989,699.774l-.06-.2a.873.873,0,0,1-.533.429,1.1,1.1,0,0,1-.911-.087,1.34,1.34,0,0,1-.575-.818,1.524,1.524,0,0,1-.056-.652,1.129,1.129,0,0,1,.252-.568,1.114,1.114,0,0,1,.553-.352,1.084,1.084,0,0,1,.71.011.917.917,0,0,1,.48.365l-.351.312a.587.587,0,0,0-.305-.261.652.652,0,0,0-.829.353,1,1,0,0,0,0,.656.937.937,0,0,0,.357.542.628.628,0,0,0,.546.071.615.615,0,0,0,.371-.263.551.551,0,0,0,.056-.432l-.569.169-.119-.4.983-.292.387,1.3Z" transform="translate(-410.912 -692.132)"/><path d="M476.562,697.337l-.779-2.362.459-.151.779,2.362Z" transform="translate(-421.907 -689.883)"/><path d="M480.548,693l-.85-2.337.462-.168.313.859,1-.363-.313-.859.462-.168.85,2.337-.462.168-.39-1.072-1,.363.39,1.073Z" transform="translate(-425.233 -685.753)"/><path d="M494.894,687.408a1.119,1.119,0,0,1-.75.085.8.8,0,0,1-.5-.5L493,685.46l.443-.186.622,1.48a.459.459,0,0,0,.252.272.528.528,0,0,0,.4-.035.514.514,0,0,0,.29-.251.444.444,0,0,0-.014-.369l-.625-1.485.443-.186.644,1.531a.8.8,0,0,1,0,.7,1.067,1.067,0,0,1-.565.481Z" transform="translate(-436.538 -681.281)"/><path d="M510.093,682.266l-.092-.189a.873.873,0,0,1-.455.511,1.1,1.1,0,0,1-.913.064,1.34,1.34,0,0,1-.7-.712,1.524,1.524,0,0,1-.162-.634,1.127,1.127,0,0,1,.155-.6,1.114,1.114,0,0,1,.487-.438,1.084,1.084,0,0,1,.7-.106.917.917,0,0,1,.534.281l-.3.365a.587.587,0,0,0-.344-.207.652.652,0,0,0-.76.485,1,1,0,0,0,.112.646.938.938,0,0,0,.442.476.628.628,0,0,0,.55-.019.614.614,0,0,0,.323-.321.551.551,0,0,0-.016-.435l-.534.261-.183-.375.921-.45.6,1.219Z" transform="translate(-449.082 -677.409)"/><path d="M520.77,674.312a1.119,1.119,0,0,1-.735.172.8.8,0,0,1-.552-.44l-.82-1.444.418-.237.792,1.4a.46.46,0,0,0,.282.24.528.528,0,0,0,.389-.081.515.515,0,0,0,.259-.283.445.445,0,0,0-.058-.365l-.8-1.4.418-.237.82,1.444a.8.8,0,0,1,.085.692,1.067,1.067,0,0,1-.5.544Z" transform="translate(-458.338 -670.179)"/></g></g></svg>