<svg xmlns="http://www.w3.org/2000/svg" viewBox="0 0 748 914" width="748" height="914">
	<defs>
		<clipPath clipPathUnits="userSpaceOnUse" id="cp1">
			<path d="M-1546 -566L2294 -566L2294 1594L-1546 1594Z" />
		</clipPath>
	</defs>
	<style>
		tspan { white-space:pre }
		.shp0 { fill: #bca366 } 
	</style>
	<g id="Page 2" clip-path="url(#cp1)">
		<path id="Path 16" class="shp0" d="M3.09 161.67L3.09 190.17C18.68 173.58 28.14 160.68 43.49 137.58C60.46 111.99 75.84 93.76 93.17 70.08C110.73 45.97 137.17 22.09 164.98 0.93L126.55 0.93C118.73 8.07 111.26 15.24 104.23 22.31C80.87 45.8 63.68 65.67 45.02 93.87C33.28 111.52 17.41 142.33 3.09 161.67ZM106.39 90.9C91.59 106.37 64.54 141.79 52.48 160.2C36.19 185 18.06 207.41 3.09 233.11L3.09 280.68C6.67 273.9 10.38 267.12 14.23 260.32C29.11 234.21 47.61 213.09 65.09 189.39C82.09 166.32 100.07 142.65 118.42 121.05C157.52 74.84 196.67 31.83 247.91 0.93L202.14 0.93C166.16 26.81 135.99 59.88 106.39 90.9ZM660.77 0.93L623.78 0.93C637.11 9.68 649.42 19.29 660.77 29.48L660.77 0.93ZM3.09 0.93L3.09 27.58C9.67 18.53 16.38 9.65 23.33 0.93L3.09 0.93ZM89.97 0.93L53.33 0.93C40.98 14.4 29.24 28.77 17.78 45.39C11.78 54.03 6.01 62.07 0.26 70.17L0.26 119.14C7.51 108.61 14.55 98.17 21.06 87.84C44.6 50.65 64.53 27.42 89.97 0.93Z" />
		<path id="Path 17" fill-rule="evenodd" class="shp0" d="M747.72 84.05L747.72 732.01L86.64 732.01L86.64 645.5L111.61 645.5C111.48 641.39 111.4 637.31 111.4 633.29L111.4 566.98C111.4 536.88 121.58 383.15 136.87 383.15C141.64 383.15 147.3 390.82 147.3 396.69L147.3 407.22C147.3 427.56 139.79 443.57 138.31 464.48C136.81 485.83 135.38 505.85 135.38 527.78L135.38 548.91C135.38 582.8 136.06 614.72 137.59 645.5L159.98 645.5L159.98 491.48C159.98 441.54 164.95 386.7 172.59 342.84C181.35 291.86 193.59 260.7 209.52 218.91C222.8 184.13 251.8 149.6 276.31 124.81C288.74 112.35 306.69 99.21 322.23 89.57C330.17 84.72 372.57 66.06 372.57 58.83C372.57 53.86 364.21 48.39 359.1 48.39C332.07 48.39 252.28 111.13 235.94 129.27C201.31 167.62 183.44 207.88 165 262.93C155.33 291.86 150.88 312.84 138.99 339.22C128.23 363.24 117.3 382.91 107.03 409.45C91.53 449.26 83.6 535.16 83.6 590.98C83.6 608.76 84.13 627.07 85.17 645.5L66.65 645.5C65.93 624.47 65.64 602.76 65.64 580.32C65.64 503.89 74.97 435.48 93.91 378.23C112.8 321.07 136.1 266.9 157.11 209.8C195.52 105.38 288.95 24.26 432.41 24.26C510.1 24.26 589.16 64.97 622.76 108.3C641.08 131.93 651.32 147.05 660.76 171.95L660.76 116.15L659.86 116.15C657.48 114.33 645.72 95.86 641.53 90.92C634.53 82.65 628.37 75.76 620.62 68.23C609.49 57.34 584.22 39.93 569.57 32.2C528.69 10.67 486.51 1.6 424.97 1.6C282.58 1.6 185.23 86.5 140.45 185.49C129.37 210.02 118.59 244.81 109.61 271.95C99.41 302.75 87.15 326.23 77.06 356.76C59.52 409.67 44.76 491.48 44.76 560.82L44.76 624.09C44.76 631.27 44.88 638.39 45.05 645.5L16.89 645.5C16.48 640.45 16.21 635.34 16.21 630.15C16.21 597.3 21.8 549.68 26.44 519.8C32.05 483.17 32.89 447.9 39.31 412.15C45.36 378.9 53.99 345.54 66.65 319.2C72.05 307.9 103.08 241.74 103.08 233.75C103.08 227.56 100.81 224.21 97.09 221.63C75.64 233.11 46.3 302.47 35.25 329.75C23.02 359.83 7.72 432.7 7.32 473.39C7.18 483.59 5.26 504.15 3.09 522.25L3.09 344.05C17.45 308.37 31.78 271.55 51.26 244.85C66.6 223.77 88.02 206.17 102.53 186.39C117.97 165.25 133.64 142.2 147.98 120.67C147.98 120.67 149.67 118.23 150.31 117.36C156.34 109.15 192.1 68.96 200.94 62.52C221.94 46.97 237.95 31.61 262.69 19.17C276.62 12.21 289.21 6.21 302.72 0.93L558.79 0.93C559.49 1.2 560.19 1.47 560.91 1.75C588.32 12.41 636.78 45.91 652.34 67.89C655.29 72.02 658.07 75.63 660.77 79.04L660.77 84.05L747.72 84.05ZM183.7 645.5L222 645.5C207.96 601.78 200.35 555.94 200.35 511.03C200.35 453.15 207.56 402.89 216.96 354.4C228.08 297 236.25 268.32 259.8 222.7C288.34 167.43 387.14 81.43 466.91 81.43C567.54 81.43 641.91 201.54 641.91 307.58L641.91 337.72C641.91 386.83 625.38 453.71 612.58 492.05C605.57 512.84 597.75 542.1 587.44 558.69C579.97 570.81 559.65 609.01 544.67 609.01C541.13 609.01 538.66 606.48 538.66 603.03C538.66 592.07 562.03 555.88 568.07 543.67C578.12 523.43 586.63 501.26 593.84 479.18C607.59 437.76 620.97 380.02 620.97 325.69L620.97 316.55C620.97 216.5 557.4 111.61 462.34 111.61L453.35 111.61C413.82 111.61 376.56 133.95 356.4 154.16C326.88 183.95 323.62 205.87 314.22 253.38C299.73 326.95 267.76 406.57 267.76 489.85C267.76 551.2 279.51 604.25 301.63 645.5L333.25 645.5C308.36 605.71 290.16 547.14 290.16 491.48L290.16 435.68C290.16 419.79 291.62 409.65 302.19 404.03C312.93 411.28 310 482.79 313.54 502.62C320.38 540.18 322.53 559.75 333.78 592.29C339.82 609.61 348.67 628.52 360.52 645.5L395.68 645.5C376.72 627.68 363.41 603.95 354.78 581.68C334.56 529.81 333.82 470.62 329.17 403.98C324.4 337.6 328.84 277.08 345.05 222.63C358.67 176.36 401.53 132.68 459.37 132.68C505.75 132.68 543.11 165.08 561.51 194.19C580.84 224.92 594.06 275.82 594.06 325.69C594.06 399.33 579.8 454.6 560.91 509.32C548.42 545.3 506.17 630.15 463.84 630.15L459.37 630.15C385.35 630.15 374.03 452.75 374.03 367.89C374.03 290.51 384.21 184.01 457.89 184.01L459.37 184.01C509.07 184.01 540.15 245.27 540.15 298.54L540.15 307.58C540.15 361 535.15 399.12 526.61 443.16C523.01 461.72 515.59 483.92 510.01 501.79C506.94 511.7 497.64 554.76 487.82 554.76L484.81 554.76C481.38 554.76 478.78 552.28 478.78 548.72L478.78 539.65C478.78 511.25 493.74 474.2 501.07 452.08C510.1 424.92 514.75 391.43 514.75 355.8L514.75 337.72C514.75 287.66 508.73 205.05 463.84 205.05L457.89 205.05C425.97 205.05 411.86 240.65 405.13 268.1C398.71 294.42 397.93 344.78 397.93 378.4L397.93 408.54C397.93 442.47 404.36 494.24 410.84 523.72C415.04 542.61 416.78 557.96 424.48 573.37C428.99 582.59 442.87 609.01 453.35 609.01L454.89 609.01C460.32 609.01 466.91 604.86 466.91 599.93C466.91 596.05 455.81 587.56 452.36 581.38C448.17 573.89 444.14 567.96 441.21 559.49C436.63 546.27 430.27 520.42 429.39 503.55C427.44 461.52 420.54 423.35 420.54 376.89L420.54 373.87C420.54 332.19 423.84 226.17 459.37 226.17C487.88 226.17 493.82 277.11 493.82 307.58L493.82 322.65C493.82 345.46 487.51 452.29 474.33 452.29L472.8 452.29C454.06 452.29 471.37 320.67 471.37 300.08L471.37 292.54C471.37 284.1 469.93 257.85 463.84 257.85C446.75 257.85 441.35 361.3 441.35 385.97L441.35 390.44C441.35 429.96 449.99 462.26 450.36 500.43C450.66 524.25 458.63 593.89 477.34 593.89L481.79 593.89C524.81 593.89 565.54 402.4 565.54 342.22L565.54 322.65C565.54 244.73 530.47 156.8 457.89 156.8C372.52 156.8 351.58 262.67 351.58 352.78L351.58 410.02C351.58 487.21 372.71 616.87 431.58 645.5L507.87 645.5C530.51 638.13 553.56 625.22 565.35 616.35C587.32 599.68 606.42 571.78 619.04 545.22C633.9 513.81 652.93 443.85 660.76 386.43L660.76 256.18C652.7 207.17 632.17 169.26 609.68 135.1C587.04 100.95 521.9 58.83 465.32 58.83L453.35 58.83C405.73 58.83 358.08 94.9 327.9 114.95C292.96 138.21 263.12 174.75 240.49 210.74C197.63 279.13 179.46 402.97 179.46 515.51L178.45 533.69L185.39 618.07C186.08 626.84 184.98 636.24 183.7 645.5ZM744.32 87.44L664.16 87.44L664.16 648.89L90.04 648.89L90.04 728.61L744.32 728.61L744.32 87.44ZM660.76 493.01C654.77 514.75 648.23 534.68 641.72 551.5C628.79 585.04 604.44 621.24 570.8 645.5L607.79 645.5C625.08 628.82 636.24 609.98 649.45 584.88C649.99 582.53 659.78 560.21 660.76 557.28L660.76 493.01ZM246.78 503.55L246.78 468.88C246.78 423.8 260.37 381.17 268.01 342.6C271.73 324.09 278.16 303.33 283 283.73C286.51 269.77 297.65 237.01 297.65 223.15L297.65 221.63C297.65 215.55 294.37 211.09 288.74 211.09C273.61 211.09 265.42 255.53 261.14 270.78C254.48 294.79 249.74 315.55 242.89 339.83C231.97 378.4 221.32 445.04 221.32 493C221.32 547.27 231.66 599.35 247.74 645.5L276.81 645.5C260.51 603.09 246.78 552.36 246.78 503.55ZM637.53 645.5L660.76 645.5L660.76 610.24C654.2 622.19 646.44 634.14 637.53 645.5ZM159.33 826.73C153.5 819.92 150.58 812.03 150.58 803.07C150.58 796.41 152.25 790.21 155.6 784.47C158.94 778.74 163.54 774.25 169.37 771.02C175.2 767.78 181.8 766.16 189.16 766.16C195.12 766.16 200.73 767.24 205.99 769.39C211.25 771.54 216.38 774.99 221.38 779.74L215.93 784.9C212.01 781.05 207.72 778.12 203.05 776.13C198.38 774.14 193.83 773.14 189.4 773.14C183.89 773.14 178.64 774.5 173.65 777.2C168.66 779.92 164.79 783.59 162.05 788.23C159.31 792.86 157.94 797.76 157.94 802.93C157.94 808.22 159.36 813.25 162.2 818.01C165.03 822.78 168.95 826.52 173.96 829.25C178.96 831.97 184.44 833.33 190.4 833.33C197.64 833.33 203.76 831.3 208.76 827.21C213.77 823.14 216.73 817.85 217.65 811.34L195.23 811.34L195.23 804.55L225.54 804.55C225.48 815.42 222.25 824.05 215.86 830.44C209.47 836.84 200.92 840.03 190.21 840.03C177.21 840.03 166.91 835.6 159.33 826.73Z" />
		<path id="Path 18" fill-rule="evenodd" class="shp0" d="M240.55 838.26L232.71 838.26L265.94 767.93L267.66 767.93L300.46 838.26L292.87 838.26L281.81 815.12L251.51 815.12L240.55 838.26ZM254.72 808.33L278.77 808.33L266.77 782.87L254.72 808.33ZM366.67 838.26L365.1 838.26L318.68 785L318.68 838.26L311.41 838.26L311.41 767.93L312.94 767.93L359.75 821.84L359.75 767.93L366.67 767.93L366.67 838.26ZM376.81 767.93L415.35 767.93L415.35 774.82L399.66 774.82L399.66 838.26L392.49 838.26L392.49 774.82L376.81 774.82L376.81 767.93ZM460.37 829.32C453.2 822.18 449.62 813.54 449.62 803.41C449.62 796.65 451.26 790.38 454.54 784.59C457.82 778.81 462.29 774.29 467.95 771.04C473.6 767.79 479.8 766.16 486.56 766.16C496.97 766.16 505.75 769.72 512.9 776.85C520.06 783.97 523.63 792.73 523.63 803.12C523.63 808.54 522.65 813.49 520.69 817.99C518.73 822.48 515.67 826.69 511.52 830.62L521.96 843.81L513.31 843.81L506.14 834.71C500.4 838.26 493.93 840.03 486.73 840.03C476.32 840.03 467.53 836.46 460.37 829.32ZM456.89 803.38C456.89 811.74 459.77 818.8 465.54 824.55C471.31 830.32 478.27 833.19 486.44 833.19C492.01 833.19 497.12 831.84 501.74 829.12L486.08 809.24L494.61 809.24L507.17 825.12C513.3 819.15 516.37 811.8 516.37 803.06C516.37 797.48 515.07 792.42 512.47 787.91C509.87 783.4 506.21 779.78 501.49 777.07C496.78 774.35 491.8 773 486.58 773C481.32 773 476.36 774.35 471.71 777.04C467.05 779.74 463.43 783.39 460.81 788C458.2 792.61 456.89 797.73 456.89 803.38ZM577.66 767.93L584.69 767.93L584.69 810.38C584.69 816.66 584.07 821.74 582.84 825.61C581.62 829.48 579.16 832.86 575.48 835.72C571.8 838.59 567.35 840.03 562.12 840.03C556.45 840.03 551.59 838.67 547.54 835.96C543.49 833.25 540.78 829.67 539.41 825.2C538.55 822.46 538.12 817.53 538.12 810.38L538.12 767.93L545.15 767.93L545.15 810.38C545.15 815.42 545.25 818.56 545.44 819.8C545.79 822.58 546.6 824.89 547.87 826.76C549.15 828.62 551.11 830.19 553.75 831.44C556.4 832.7 559.06 833.33 561.74 833.33C564.07 833.33 566.3 832.84 568.43 831.85C570.57 830.86 572.35 829.49 573.79 827.74C575.22 825.99 576.27 823.87 576.94 821.38C577.42 819.6 577.66 815.93 577.66 810.38L577.66 767.93ZM638.11 832.4C633.98 836.31 628.44 838.26 621.5 838.26L602.18 838.26L602.18 767.93L616.04 767.93C621.62 767.93 625.91 768.59 628.91 769.91C631.9 771.24 634.27 773.27 636.01 776.01C637.75 778.76 638.61 781.8 638.61 785.14C638.61 788.27 637.85 791.11 636.33 793.68C634.81 796.24 632.57 798.32 629.62 799.91C633.27 801.16 636.09 802.62 638.06 804.29C640.02 805.96 641.56 807.99 642.66 810.36C643.75 812.74 644.3 815.31 644.3 818.08C644.3 823.72 642.24 828.5 638.11 832.4ZM609.06 797.33L613.09 797.33C617.98 797.33 621.57 796.88 623.87 795.97C626.17 795.06 627.99 793.63 629.33 791.67C630.68 789.71 631.34 787.53 631.34 785.14C631.34 781.92 630.22 779.4 627.97 777.57C625.71 775.73 622.13 774.81 617.21 774.81L609.06 774.81L609.06 797.33ZM637.03 818.22C637.03 815.1 636.02 812.38 633.97 810.05C631.93 807.72 629.12 806.13 625.55 805.27C623.15 804.7 618.98 804.41 613.04 804.41L609.06 804.41L609.06 831.38L617.78 831.38C622.92 831.38 626.69 830.87 629.08 829.87C631.48 828.86 633.4 827.29 634.85 825.16C636.31 823.03 637.03 820.71 637.03 818.22ZM658.26 767.93L698.57 767.93L698.57 774.81L665.29 774.81L665.29 796.86L698.28 796.86L698.28 803.74L665.29 803.74L665.29 831.37L698.28 831.37L698.28 838.26L658.26 838.26L658.26 767.93ZM744.61 821.1C744.61 826.2 742.67 830.63 738.79 834.39C734.93 838.15 730.21 840.03 724.67 840.03C720.4 840.03 716.53 838.89 713.05 836.61C709.58 834.33 706.37 830.51 703.44 825.16L709.42 821.57C713.63 829.32 718.49 833.19 724 833.19C726.36 833.19 728.57 832.64 730.65 831.54C732.72 830.44 734.29 828.97 735.38 827.12C736.46 825.27 737 823.31 737 821.24C737 818.88 736.21 816.57 734.62 814.31C732.41 811.18 728.4 807.42 722.56 803.02C716.7 798.59 713.05 795.39 711.61 793.41C709.14 790.1 707.89 786.51 707.89 782.66C707.89 779.59 708.62 776.81 710.09 774.29C711.55 771.77 713.62 769.79 716.28 768.34C718.94 766.89 721.83 766.16 724.96 766.16C728.27 766.16 731.37 766.98 734.25 768.62C737.14 770.27 740.19 773.28 743.41 777.68L737.67 782.03C735.03 778.53 732.77 776.22 730.91 775.1C729.04 773.99 727.01 773.43 724.81 773.43C721.98 773.43 719.65 774.29 717.85 776.01C716.06 777.73 715.16 779.85 715.16 782.37C715.16 783.9 715.48 785.38 716.11 786.82C716.75 788.25 717.91 789.81 719.6 791.5C720.52 792.39 723.55 794.73 728.69 798.53C734.77 803.02 738.95 807.02 741.21 810.53C743.47 814.04 744.61 817.56 744.61 821.1ZM94.56 870.83C97.44 875.25 98.88 880.52 98.88 886.63C98.88 891.92 97.75 896.56 95.46 900.57C93.18 904.58 90.22 907.54 86.58 909.46C82.93 911.37 77.82 912.33 71.26 912.33L54.49 912.33L54.49 859.62L65.41 859.62C73.3 859.62 79.02 860.25 82.58 861.52C87.69 863.31 91.68 866.41 94.56 870.83ZM93.54 886.72C93.54 881.64 92.32 877.29 89.86 873.69C87.39 870.09 83.97 867.62 79.57 866.28C76.27 865.28 70.84 864.78 63.26 864.78L59.54 864.78L59.54 907.35L65.63 907.35C72.92 907.35 77.97 906.89 80.79 905.99C84.76 904.69 87.87 902.37 90.14 899.02C92.41 895.67 93.54 891.56 93.54 886.72ZM109.14 859.62L139.34 859.62L139.34 864.78L114.4 864.78L114.4 881.3L139.13 881.3L139.13 886.46L114.4 886.46L114.4 907.16L139.13 907.16L139.13 912.33L109.14 912.33L109.14 859.62ZM154.52 874.65C152.55 878.06 151.56 881.88 151.56 886.13C151.56 892.56 153.76 897.93 158.17 902.22C162.57 906.52 168.14 908.67 174.85 908.67C182.23 908.67 188.41 905.78 193.37 900L197.53 903.15C194.9 906.5 191.63 909.08 187.7 910.91C183.76 912.74 179.38 913.65 174.52 913.65C165.3 913.65 158.03 910.58 152.7 904.44C148.24 899.26 146 893 146 885.67C146 877.95 148.71 871.46 154.11 866.19C159.53 860.93 166.31 858.29 174.46 858.29C179.38 858.29 183.82 859.26 187.78 861.21C191.75 863.15 195 865.88 197.53 869.4L193.37 872.59C191.08 869.6 188.33 867.34 185.12 865.8C181.9 864.26 178.38 863.49 174.52 863.49C170.32 863.49 166.43 864.5 162.84 866.51C159.26 868.53 156.48 871.24 154.52 874.65Z" />
		<path id="Path 19" fill-rule="evenodd" class="shp0" d="M253.25 866.28C258.62 871.61 261.32 878.17 261.32 885.96C261.32 893.67 258.64 900.22 253.27 905.59C247.9 910.96 241.35 913.65 233.64 913.65C225.82 913.65 219.22 910.98 213.84 905.62C208.47 900.27 205.77 893.8 205.77 886.21C205.77 881.14 207 876.45 209.45 872.12C211.9 867.8 215.24 864.41 219.47 861.96C223.7 859.51 228.28 858.29 233.2 858.29C241.19 858.29 247.87 860.95 253.25 866.28ZM255.87 885.94C255.87 881.75 254.89 877.97 252.94 874.58C250.99 871.2 248.25 868.49 244.71 866.46C241.17 864.44 237.41 863.41 233.43 863.41C229.54 863.41 225.84 864.44 222.35 866.46C218.86 868.49 216.13 871.23 214.17 874.68C212.2 878.12 211.23 881.95 211.23 886.19C211.23 892.45 213.39 897.74 217.73 902.06C222.08 906.37 227.32 908.53 233.43 908.53C237.53 908.53 241.32 907.53 244.8 905.55C248.28 903.57 250.99 900.85 252.94 897.42C254.89 893.97 255.87 890.15 255.87 885.94ZM286.94 887.85L305.89 912.32L299.37 912.32L280.42 887.85L277.44 887.85L277.44 912.32L272.17 912.32L272.17 859.62L282.66 859.62C288.52 859.62 292.49 859.86 294.57 860.33C297.7 861.05 300.24 862.59 302.2 864.95C304.16 867.3 305.13 870.2 305.13 873.65C305.13 876.51 304.46 879.04 303.11 881.21C301.76 883.39 299.83 885.04 297.33 886.15C294.82 887.26 291.35 887.83 286.94 887.85ZM286.52 882.76C290.04 882.76 292.64 882.43 294.32 881.76C296.01 881.09 297.33 880.02 298.27 878.56C299.22 877.08 299.69 875.45 299.69 873.63C299.69 871.86 299.21 870.26 298.25 868.81C297.3 867.36 296.04 866.33 294.48 865.71C292.93 865.09 290.34 864.78 286.73 864.78L277.44 864.78L277.44 882.69L286.52 882.76ZM337.95 859.62L362.54 912.33L356.85 912.33L348.56 894.98L325.85 894.98L317.64 912.33L311.76 912.33L336.66 859.62L337.95 859.62ZM346.29 889.89L337.3 870.81L328.26 889.89L346.29 889.89ZM365.48 859.62L394.36 859.62L394.36 864.78L382.61 864.78L382.61 912.32L377.23 912.32L377.23 864.78L365.48 864.78L365.48 859.62ZM401.21 859.62L406.47 859.62L406.47 912.33L401.21 912.33L401.21 859.62ZM463.69 866.28C469.07 871.61 471.76 878.17 471.76 885.96C471.76 893.67 469.08 900.22 463.71 905.59C458.34 910.96 451.8 913.65 444.08 913.65C436.26 913.65 429.66 910.98 424.29 905.62C418.91 900.27 416.22 893.8 416.22 886.21C416.22 881.14 417.44 876.45 419.89 872.12C422.35 867.8 425.68 864.41 429.91 861.96C434.15 859.51 438.72 858.29 443.64 858.29C451.63 858.29 458.32 860.95 463.69 866.28ZM466.31 885.94C466.31 881.75 465.33 877.97 463.39 874.58C461.43 871.2 458.69 868.49 455.15 866.46C451.61 864.44 447.85 863.41 443.88 863.41C439.98 863.41 436.28 864.44 432.79 866.46C429.3 868.49 426.57 871.23 424.61 874.68C422.64 878.12 421.67 881.95 421.67 886.19C421.67 892.45 423.83 897.74 428.18 902.06C432.52 906.37 437.76 908.53 443.88 908.53C447.97 908.53 451.76 907.53 455.24 905.55C458.72 903.57 461.43 900.85 463.39 897.42C465.33 893.97 466.31 890.15 466.31 885.94ZM518.58 859.62L523.78 859.62L523.78 912.32L522.6 912.32L487.8 872.41L487.8 912.32L482.36 912.32L482.36 859.62L483.5 859.62L518.58 900.02L518.58 859.62ZM562.2 907.24L582.47 907.24L582.47 912.33L556.93 912.33L556.93 859.62L562.2 859.62L562.2 907.24ZM596.09 907.24L616.37 907.24L616.37 912.33L590.83 912.33L590.83 859.62L596.09 859.62L596.09 907.24ZM630.8 874.65C628.83 878.06 627.85 881.88 627.85 886.13C627.85 892.56 630.05 897.93 634.46 902.22C638.86 906.52 644.42 908.67 651.13 908.67C658.52 908.67 664.69 905.78 669.66 900L673.82 903.15C671.19 906.5 667.91 909.08 663.98 910.91C660.05 912.74 655.67 913.65 650.81 913.65C641.59 913.65 634.32 910.58 628.99 904.44C624.52 899.26 622.29 893 622.29 885.67C622.29 877.95 625 871.46 630.4 866.19C635.81 860.93 642.59 858.29 650.75 858.29C655.67 858.29 660.11 859.26 664.07 861.21C668.03 863.15 671.29 865.88 673.82 869.4L669.66 872.59C667.37 869.6 664.61 867.34 661.4 865.8C658.19 864.26 654.66 863.49 650.81 863.49C646.6 863.49 642.71 864.5 639.13 866.51C635.54 868.53 632.77 871.24 630.8 874.65ZM692.2 905.73C693.06 906.6 693.5 907.65 693.5 908.89C693.5 910.11 693.06 911.15 692.2 912.02C691.35 912.89 690.31 913.33 689.08 913.33C687.87 913.33 686.83 912.89 685.97 912.02C685.11 911.15 684.68 910.11 684.68 908.89C684.68 907.65 685.11 906.6 685.97 905.73C686.83 904.87 687.87 904.44 689.08 904.44C690.31 904.44 691.35 904.87 692.2 905.73ZM3.37 767.93L43.68 767.93L43.68 774.81L10.4 774.81L10.4 796.86L43.39 796.86L43.39 803.74L10.4 803.74L10.4 831.37L43.39 831.37L43.39 838.26L3.37 838.26L3.37 767.93ZM89.91 838.26L55.82 838.26L55.82 767.93L62.85 767.93L62.85 831.47L89.91 831.47L89.91 838.26ZM101.09 767.93L141.4 767.93L141.4 774.81L108.12 774.81L108.12 796.86L141.11 796.86L141.11 803.74L108.12 803.74L108.12 831.37L141.11 831.37L141.11 838.26L101.09 838.26L101.09 767.93Z" />
	</g>
</svg>