<svg xmlns="http://www.w3.org/2000/svg" width="402.863" height="84.329" viewBox="0 0 402.863 84.329"><defs><style>.a{fill:#c1932d;}</style></defs><g transform="translate(0)"><g transform="translate(0 0)"><path class="a" d="M1007.575,25.633a16.734,16.734,0,0,0-1.736,1.528c-1.14,1.385-2.226,2.85-3.375,4.227a13.938,13.938,0,0,1-2.047,2.158c-.989.775-1.79.4-1.776-.855.023-1.847.254-3.689.365-5.536.083-1.371.151-2.748.154-4.122,0-.328-.265-.912-.453-.932a1.426,1.426,0,0,0-1.083.433,11.924,11.924,0,0,0-1.551,2.206c-1.838,3.535-3.583,7.126-5.445,10.641-.624,1.183-.8,3.472-2.28,3.113-1.391-.336-.353-2.406-.407-3.706-.086-2.015-.023-4.039-.023-6.271-.952.73-1.784,1.405-2.654,2.032-4.427,3.193-8.8,6.471-13.323,9.512a24.5,24.5,0,0,1-5.92,2.708c-2.1.7-3.48-.362-3.27-2.565.254-2.62.909-5.2,1.4-7.85a17.3,17.3,0,0,1-1.223,1.462c-1.97,1.913-3.914,3.86-5.986,5.655a2.492,2.492,0,0,1-2.166.422c-.439-.191-.761-1.331-.653-1.967.314-1.807.855-3.575,1.348-5.35a16.975,16.975,0,0,1,.681-1.676c-1.092.4-1.947.761-2.825,1.038-2.668.835-5.33,1.71-8.033,2.414-.9.237-1.251.57-1.328,1.462a14.786,14.786,0,0,1-2.985,7.75,12.2,12.2,0,0,1-2.5,2.506c-2.372,1.71-4.606.912-5.011-2a17.528,17.528,0,0,1,.354-5.613,26.188,26.188,0,0,1,1.633-4.344c-.57.353-1.023.633-1.477.9-2.825,1.648-5.6,3.384-8.5,4.9a13.111,13.111,0,0,1-3.951,1.1c-2.352.382-3.5-.6-3.691-2.953-.031-.376-.074-.753-.128-1.14,0-.08-.108-.145-.353-.448-1.71,1.117-3.421,2.24-5.131,3.389-.59.4-1.14.872-1.71,1.288-1.032.747-1.6.539-1.628-.735-.037-1.5.128-3.01.22-4.789-.716.393-1.223.707-1.756.963-4.7,2.255-9.387,4.547-14.127,6.713a9.328,9.328,0,0,1-3.455.727c-2.677.1-4.025-1.311-4.031-3.991V38.443c-1.083.6-1.927,1.075-2.777,1.542a31.1,31.1,0,0,1-3.763,2,2.7,2.7,0,0,1-2.189-.285c-.319-.222-.285-1.377-.037-1.924a10.6,10.6,0,0,1,6.636-5.826c1.457-.445,2.44.362,2.734,2.035-.131.014-.336.086-.373.034-1.172-1.633-2.414-.929-3.652-.12a9.9,9.9,0,0,0-4.5,5.176,9.816,9.816,0,0,0,1.733-.53c1.71-.915,3.4-1.893,5.108-2.822a7.641,7.641,0,0,1,1.682-.75c.8-.208,1.326.054,1.14,1.029-.117.6-.265,1.209-.322,1.821-.154,1.71.57,2.691,2.28,2.739a7.8,7.8,0,0,0,3.335-.536c5.313-2.394,10.584-4.889,15.826-7.437.428-.208.684-1.052.77-1.636,1.357-9.1,2.631-18.217,4.033-27.313A26.034,26.034,0,0,1,914.945.765c.131-.356.65-.57.992-.855a4.52,4.52,0,0,1,.6,1.189,2.714,2.714,0,0,1-.117,1.531c-2.1,4.318-2.429,9.056-3.184,13.682-.835,5.1-1.405,10.262-2.078,15.393a10.492,10.492,0,0,0,0,1.306l2.166-.761c-.47,1.608-2.585,1.474-2.537,3.21.034,1.3-.177,2.611-.3,4.247l2.027-1.516a21.681,21.681,0,0,1,2.756-2.012,21.466,21.466,0,0,1,3.23-1.115,21.174,21.174,0,0,1,.875,3.022c.234,1.67.57,2.1,2.2,1.593a43.258,43.258,0,0,0,6.47-2.526c2.494-1.246,4.846-2.782,7.215-4.17-.833-2.93-.453-4.507,1.277-5.727a4.143,4.143,0,0,1,6.22,1.445,33.175,33.175,0,0,1,1.63,4.561,12.936,12.936,0,0,0,2.126-.348c3.649-1.174,7.28-2.412,10.923-3.6a2.891,2.891,0,0,1,1.012.02,4.754,4.754,0,0,1-.211,1.277c-.9,1.918-1.924,3.783-2.728,5.738a5.822,5.822,0,0,0,.037,2.28,6,6,0,0,0,1.955-.909c2.309-2.38,4.512-4.846,6.773-7.283.7-.755,1.234-1.819,2.813-1.744-.205.753-.354,1.363-.542,1.961-.744,2.4-1.619,4.766-2.2,7.206a12.235,12.235,0,0,0,.163,3.421c1.126-.16,2.414-.02,3.344-.533,3.067-1.7,6.069-3.526,8.97-5.493,3.654-2.477,7.169-5.157,10.775-7.7a6.16,6.16,0,0,1,1.668-.57,5.812,5.812,0,0,1,.49,1.813,57.32,57.32,0,0,0-.328,5.784c.234-.4.482-.8.7-1.214,1.69-3.187,3.349-6.388,5.079-9.552a7.558,7.558,0,0,1,1.711-2.246,2.907,2.907,0,0,1,2.206-.764,2.459,2.459,0,0,1,1.172,1.975c0,2.317-.251,4.635-.416,6.952-.063.872-.143,1.744-.214,2.614l.433.208c.57-.693,1.163-1.385,1.739-2.081,1.453-1.75,2.85-3.555,4.387-5.228.442-.482,1.291-.587,1.953-.855a5.911,5.911,0,0,1,.744,2.112c-.145,2.414-.487,4.814-.747,7.22-.06.57-.108,1.14-.131,1.71-.043.986.345,1.494,1.374,1.058a29.655,29.655,0,0,0,4.261-1.935c4.806-3.056,9.532-6.237,14.3-9.344a8.919,8.919,0,0,1,1.565-.641l.188.408a2.792,2.792,0,0,1-.51.607c-5.379,3.557-10.741,7.146-16.174,10.618a14.38,14.38,0,0,1-3.828,1.494c-1.67.467-2.411-.066-2.334-1.8.12-2.793.445-5.581.67-8.372A18.024,18.024,0,0,0,1007.575,25.633Zm-65.039,9.293c-1.727-.231-3.218-.467-4.718-.6a1.171,1.171,0,0,0-.94.55,46.881,46.881,0,0,0-2.092,5.7,8.986,8.986,0,0,0,0,3.512c.262,1.693,1.072,2.018,2.617,1.223a4.961,4.961,0,0,0,1.166-.8C941.292,41.892,942.33,38.591,942.535,34.925Zm-3.281-4.452.285.4-1.479,2.26,4.5.462c.023-2.1-.319-3.814-1.725-5.131a2.85,2.85,0,0,0-3.868-.137c-1.118.926-1.24,2.1-.351,3.515Z" transform="translate(-626.862 0.09)"/><path class="a" d="M23.179,46.765,20.647,57.4c2.394-.641,4.561-1.365,6.764-1.776a30.678,30.678,0,0,1,13,.1c4.695,1.14,6.636,4.68,5.276,9.321a13.737,13.737,0,0,1-4.261,6.627,77.484,77.484,0,0,1-8.911,6.8c-5.439,3.449-11.094,6.6-16.681,9.823a2.713,2.713,0,0,0-1.613,2.28c-.1,1.217-.422,2.417-.69,3.854,1.921-.2,3.689-.371,5.456-.57C23.66,93.336,28.329,92.8,33,92.281a4.011,4.011,0,0,1,1.551-.023c.422.131.744.587,1.109.9-.365.239-.707.633-1.1.693-1.593.245-3.2.4-4.806.57q-7.517.773-15.019,1.531c-.778.08-1.542,0-1.71,1.189-.875,5.672-1.85,11.331-2.762,17-.06.368.205.79.14,1.14a5.2,5.2,0,0,1-.6,1.747c-.168.285-.687.334-1.046.493a4.64,4.64,0,0,1-.319-1.6c.835-4.911,1.733-9.811,2.608-14.717.285-1.571.547-3.136.855-4.914-2.232.208-4.25.4-6.271.57a9.431,9.431,0,0,1-2.406.128A8.217,8.217,0,0,1,1.2,96.033c.422-.57.73-1.314,1.286-1.653,3.244-1.97,6.573-3.8,9.811-5.781a3.061,3.061,0,0,0,1.274-1.793c1.619-8.432,3.155-16.881,4.709-25.326.048-.271.057-.547.111-1.1-6.508,2.671-12.325,6.211-18.32,9.8a1.868,1.868,0,0,1,1.214-2.315c5.467-3.044,10.943-6.074,16.459-9.03a2.687,2.687,0,0,0,1.608-1.913c.67-2.959,1.425-5.9,2.226-8.836a6.965,6.965,0,0,1,.966-1.625ZM14.864,86.672l.385.271c6.613-4.073,13.272-8.073,19.819-12.257a26.255,26.255,0,0,0,8.172-7.822c3.281-5.08,1.753-8.611-4.176-9.766a30.579,30.579,0,0,0-18.212,2.266,1.953,1.953,0,0,0-.9,1.237c-.75,3.281-1.474,6.556-2.106,9.874-1.026,5.407-1.99,10.812-2.982,16.211Zm-1.853,3.275L4.029,94.884c.487.251.61.371.724.362,2.306-.18,4.612-.356,6.915-.587a.938.938,0,0,0,.616-.607c.259-1.237.453-2.491.727-4.093Z" transform="translate(-0.002 -33.191)"/><path class="a" d="M784.507,20.679C778.623,22,772.976,23.29,767.794,26a29.068,29.068,0,0,0-3.634,2.748c.393-.9.519-1.77,1.023-2.221a10.513,10.513,0,0,1,3.372-2.3c4.937-1.668,9.928-3.175,14.931-4.635a2.653,2.653,0,0,0,2.109-1.893A78.583,78.583,0,0,1,789.1,9.2c-.109,3.284-1.534,6.271-2.2,9.538,3.241-.513,6.354-1.077,9.486-1.485,5.9-.772,11.821-1.294,17.747-.408a23.953,23.953,0,0,1,4.3,1.491l-.151.624c-.613-.048-1.231-.06-1.836-.154-8.552-1.34-17.029-.41-25.543.57-3.512.41-5.236,1.659-5.946,5.225-1.077,5.416-2.725,10.743-4.224,16.462l14.324-.944.125.219a10.5,10.5,0,0,1-2.366.955c-3.332.473-6.679.855-10.028,1.209-2.28.234-2.349.165-2.8,2.383q-1.753,8.648-3.42,17.317a16.884,16.884,0,0,0-.222,2.565c-.071,1.876-.285,3.785,1.14,5.416-2.309.034-3.4-.827-3.29-3.016a72.41,72.41,0,0,1,.966-9.045c.887-5.037,2-10.031,3.067-15.287-4.036.718-8.426.125-12.231,3.506.242-.77.248-1.539.636-1.876a7.037,7.037,0,0,1,2.739-1.676c2.665-.633,5.382-1.083,8.1-1.454,1.029-.14,1.562-.385,1.853-1.477,1.622-6.1,3.338-12.172,5.017-18.243A8.2,8.2,0,0,0,784.507,20.679Z" transform="translate(-546.339 -6.552)"/><path class="a" d="M603.162,69.81a5.129,5.129,0,0,1-.8-1.457,22.76,22.76,0,0,1-.57-4.361c.066-4.746.285-9.492.43-14.235.023-.693.077-1.382.131-2.28-1.87,1.026-3.48,2.018-5.182,2.822-3.6,1.71-7.217,3.372-10.9,4.889a9.289,9.289,0,0,1-3.885.61c-2.28-.111-3.361-1.445-3.392-3.748V50.31c-.984.522-1.753.924-2.511,1.337a42.641,42.641,0,0,1-4.005,2.144,2.354,2.354,0,0,1-2.072-.168,2.166,2.166,0,0,1-.145-2.035,10.567,10.567,0,0,1,6.351-5.761c1.71-.59,2.973.41,2.885,2.28-1.853-2.466-3.346-.735-4.846.262A6.825,6.825,0,0,0,571.4,52.93c.832-.376,1.687-.707,2.491-1.14,1.673-.9,3.3-1.89,4.994-2.734a4.789,4.789,0,0,1,1.71-.145,14.205,14.205,0,0,1,0,1.479c-.051.49-.191,1.026-.236,1.545a1.9,1.9,0,0,0,1.784,2.306,7.6,7.6,0,0,0,3.62-.348c5.416-2.4,10.763-4.946,16.1-7.52.393-.191.61-.983.7-1.531,1.534-9.458,3.016-18.924,4.561-28.379a18.615,18.615,0,0,1,1.112-3.52,9.412,9.412,0,0,1,1.006-1.573,2.329,2.329,0,0,1,.656,2.85c-3.118,7.779-3.472,16.1-4.775,24.229-.328,2.052-.5,4.127-.764,6.271l2.2-.616c-.182.388-.208.57-.3.624-2.169.935-2.312,2.816-2.392,4.826-.211,5.31-.553,10.618-.747,15.928a31.005,31.005,0,0,0,.379,4.145Z" transform="translate(-407.585 -8.103)"/><path class="a" d="M313.9,172.613c-1.764-2.326-3.221-.767-4.669.188a9.025,9.025,0,0,0-3.814,4.686,11.948,11.948,0,0,0,1.867-.593c1.759-.935,3.48-1.938,5.228-2.9a5.794,5.794,0,0,1,1.425-.619c.875-.2,1.425.06,1.18,1.112-.108.462-.2.926-.285,1.394-.331,2.061.624,3.264,2.731,3.1a11.849,11.849,0,0,0,4.119-1c5.769-2.756,11.473-5.655,17.206-8.492.741-.368,1.511-.673,2.28-1.006l.453.248-.778,5.162c.932-.49,1.71-.884,2.463-1.3,1.454-.8,2.85-1.71,4.358-2.394,1.554-.707,2.9.083,2.873,1.753-.066,3.518.473,3.783,3.908,2.335,4.931-2.078,9.723-4.5,14.574-6.767l1.613-.755.331.382c-.265.331-.459.8-.8.969-5.051,2.508-10.1,5.014-15.2,7.428a12.1,12.1,0,0,1-3.3.829c-1.631.251-2.528-.465-2.759-2.107-.131-.924-.168-1.861-.285-3.1-.8.331-1.4.519-1.944.818-1.625.887-3.181,1.91-4.846,2.674a3.289,3.289,0,0,1-2.218-.114c-.208-.071-.188-1.072-.123-1.628.1-.886.331-1.756.57-2.916-.544.3-.889.47-1.214.673a99.187,99.187,0,0,1-16.949,8.677,16.581,16.581,0,0,1-3.968,1.06c-3,.342-4.561-1.206-4.5-4.2v-1.254c-.724.322-1.311.539-1.853.835-1.494.821-2.922,1.79-4.478,2.466a2.783,2.783,0,0,1-2.326-.105c-.359-.251-.336-1.539-.043-2.155a10.547,10.547,0,0,1,6.311-5.6C312.658,169.851,313.73,170.641,313.9,172.613Z" transform="translate(-217.701 -119.207)"/><path class="a" d="M144.037,185.625c-2.192-1.425-2.28-1.425-4.515.105a9.548,9.548,0,0,0-4.051,4.946,19.856,19.856,0,0,0,2.181-.832c1.8-.966,3.54-2.035,5.362-2.956a7.03,7.03,0,0,1,2-.336,9.848,9.848,0,0,1,0,1.747c-.536,2.97.753,4.4,3.68,3.637a43.571,43.571,0,0,0,7.742-2.788c4.193-2,8.266-4.276,12.351-6.473.533-.285.855-.946,1.377-1.291a2.2,2.2,0,0,1,1.3-.285,13.223,13.223,0,0,0,2.677.336c1.539-.228,3.024-.8,4.561-1.1.536-.105,1.491,0,1.648.325a1.955,1.955,0,0,1-.214,1.776,28.548,28.548,0,0,1-3.671,3.526c-1.77,1.391-3.683,2.608-5.861,4.128,5.7.105,11.02.157,15.963,2.454L167.8,191.083a16.541,16.541,0,0,1,1.659-1.71c2.679-1.967,5.416-3.862,8.078-5.841a18.682,18.682,0,0,0,1.927-1.9l-.257-.359c-.436.111-.881.2-1.306.336-2.172.715-4.336,1.371-6.687.958a2.271,2.271,0,0,0-1.365.57,96.055,96.055,0,0,1-18.038,9.355,15.349,15.349,0,0,1-3.991,1.015c-2.873.268-4.347-1.214-4.333-4.088V187.99c-.784.373-1.411.638-2,.963-1.5.821-2.93,1.776-4.487,2.451a2.559,2.559,0,0,1-2.2-.188c-.353-.285-.336-1.457-.066-2.038a10.51,10.51,0,0,1,6.522-5.755C142.8,182.951,143.883,183.84,144.037,185.625Z" transform="translate(-96.192 -128.874)"/></g></g></svg>