<svg xmlns="http://www.w3.org/2000/svg" width="133.101" height="162.549" viewBox="0 0 133.101 162.549"><defs><style>.a{fill:#bca366;}</style></defs><g transform="translate(0 0)"><path class="a" d="M.83,28.614V33.69a62.751,62.751,0,0,0,7.194-9.337c3.043-4.559,5.757-7.8,8.849-12.02S24.707,3.812,29.655.02H22.814c-1.394,1.272-2.72,2.55-3.974,3.809A77.564,77.564,0,0,0,8.3,16.555C6.2,19.7,3.368,25.187.83,28.614" transform="translate(-0.325 -0.008)"/><path class="a" d="M19.192,16.019A115.433,115.433,0,0,0,9.625,28.362C6.722,32.775,3.5,36.767.83,41.344v8.472q.955-1.826,1.984-3.652c2.647-4.626,5.94-8.387,9.075-12.6,3.043-4.108,6.226-8.326,9.495-12.174C28.322,13.164,35.3,5.477,44.42,0h-8.15c-6.4,4.607-11.777,10.5-17.078,16.019" transform="translate(-0.325 0)"/><path class="a" d="M189.015,0H182.43a55.114,55.114,0,0,1,6.585,5.088Z" transform="translate(-71.397 0)"/><path class="a" d="M.83,0V4.747Q2.583,2.328,4.433,0Z" transform="translate(-0.325 0)"/><path class="a" d="M15.977,0H9.452A72.543,72.543,0,0,0,3.116,7.912C2.051,9.458,1.021,10.888,0,12.331v8.721c1.292-1.875,2.544-3.737,3.707-5.575A89.767,89.767,0,0,1,15.977,0" transform="translate(0 0)"/><path class="a" d="M132.818,129.579H16.307V115.384h102.25V15.4H132.83Zm-83.248-14.8H44.39a83.036,83.036,0,0,1-4.7-27.139,117.67,117.67,0,0,1,3.841-27.273c1.223-4.346,2.063-8.028,3.25-12.288.761-2.745,2.234-10.657,4.912-10.657,1,0,1.582.8,1.582,1.875v.262c0,2.471-1.984,8.3-2.611,10.785-.864,3.494-2.009,7.188-2.673,10.481-1.357,6.865-3.78,14.461-3.78,22.489v6.172c0,8.691,2.434,17.73,5.344,25.277m-16.28-4.869L32.059,94.867l.177-3.238c0-20.042,3.238-42.093,10.87-54.272,4.029-6.409,9.341-12.916,15.563-17.042,5.374-3.573,13.858-9.994,22.337-9.994h2.13c10.073,0,21.673,7.5,25.7,13.578s7.663,12.836,9.1,21.564v23.2c-1.394,10.225-4.784,22.684-7.431,28.277-2.246,4.729-5.647,9.7-9.562,12.666a39.228,39.228,0,0,1-10.237,5.192H77.128c-10.481-5.1-14.242-28.185-14.242-41.928V62.653c0-16.044,3.731-34.9,18.928-34.9,12.927,0,19.172,15.66,19.172,29.531v3.488c0,10.718-7.255,44.815-14.917,44.815h-.791c-3.329,0-4.753-12.405-4.8-16.64-.067-6.78-1.637-12.544-1.637-19.561v-.8c0-4.394.961-22.811,4-22.811,1.083,0,1.339,4.674,1.339,6.178V53.3c0,3.652-3.086,27.1.256,27.1h.274c2.349,0,3.469-19.026,3.469-23.085V54.607c0-5.423-1.059-14.5-6.135-14.5-6.324,0-6.914,18.868-6.914,26.3v.541c0,8.271,1.217,15.07,1.576,22.556a44.43,44.43,0,0,0,2.13,9.957,22.865,22.865,0,0,0,1.984,3.9c.609,1.1,2.593,2.611,2.593,3.3,0,.876-1.175,1.613-2.143,1.613H81c-1.862,0-4.339-4.7-5.143-6.348-1.369-2.745-1.68-5.478-2.434-8.837a115.3,115.3,0,0,1-2.3-20.511V67.217c0-5.989.14-14.954,1.284-19.64,1.217-4.869,3.713-11.229,9.4-11.229h1.059c8,0,9.062,14.711,9.062,23.627v3.22a55.616,55.616,0,0,1-2.434,17.145c-1.3,3.938-3.968,10.535-3.968,15.593v1.619a1.041,1.041,0,0,0,1.071,1.071h.536c1.747,0,3.408-7.669,3.95-9.434a107.289,107.289,0,0,0,2.958-10.438A116.858,116.858,0,0,0,96.47,54.607V52.994c0-9.489-5.532-20.395-14.388-20.395h-.262C68.7,32.6,66.893,51.564,66.893,65.343c0,15.112,2.015,46.7,15.216,46.7h.8c7.541,0,15.064-15.112,17.285-21.515,3.366-9.738,5.9-19.586,5.9-32.7,0-8.88-2.355-17.942-5.794-23.414-3.282-5.187-9.934-10.956-18.194-10.956-10.3,0-17.93,7.78-20.359,16.019-2.884,9.7-3.652,20.474-2.83,32.294s.961,22.41,4.559,31.649a30.891,30.891,0,0,0,7.3,11.363H64.475a39.452,39.452,0,0,1-4.76-9.489c-2-5.794-2.386-9.276-3.6-15.964C55.5,85.8,56,73.067,54.09,71.776c-1.881,1-2.143,2.806-2.143,5.636v9.933a54.6,54.6,0,0,0,7.675,27.424H53.988c-3.938-7.334-6.031-16.78-6.031-27.735,0-14.826,5.7-29.007,8.277-42.112,1.674-8.46,2.258-12.361,7.509-17.65,3.591-3.6,10.225-7.577,17.267-7.577h1.6c16.926,0,28.247,18.679,28.247,36.518v1.609c0,9.677-2.38,19.957-4.833,27.333a86.477,86.477,0,0,1-4.589,11.485c-1.077,2.173-5.234,8.618-5.234,10.573a1.028,1.028,0,0,0,1.071,1.065c2.666,0,6.287-6.8,7.62-8.959,1.826-2.952,3.226-8.162,4.473-11.868,2.283-6.829,5.222-18.74,5.222-27.48V54.607c0-18.868-13.244-40.267-31.162-40.267-14.205,0-31.795,15.313-36.883,25.155-4.224,8.119-5.654,13.226-7.632,23.451a142.655,142.655,0,0,0-2.958,27.894,78.811,78.811,0,0,0,3.853,23.944H32.99a23.128,23.128,0,0,0,.3-4.869m84.648-1.394V114.8H113.8a46.329,46.329,0,0,0,4.139-6.281m0-9.434c-.177.524-1.917,4.5-2.015,4.918-2.355,4.467-4.339,7.827-7.419,10.791h-6.592a37.78,37.78,0,0,0,12.629-16.737c1.156-2.994,2.325-6.543,3.39-10.414Zm0-84.271v-.908c-.481-.609-.974-1.248-1.5-1.984C113.669,8.01,105.009,2.045,100.14.146L99.781,0h-45.6c-2.434.937-4.65,2.009-7.127,3.25-4.406,2.228-7.255,4.948-11,7.705-1.576,1.15-7.912,8.3-9.014,9.738l-.413.609c-2.55,3.834-5.344,7.912-8.095,11.7-2.587,3.524-6.4,6.659-9.129,10.407C5.937,48.191,3.368,54.777.83,61.1V92.834c.39-3.226.73-6.884.755-8.7.073-7.249,2.8-20.219,4.973-25.561,1.966-4.869,7.194-17.211,11.01-19.257a2.355,2.355,0,0,1,1.065,2.161c0,1.424-5.527,13.2-6.488,15.216A67.259,67.259,0,0,0,7.276,73.244C6.131,79.61,5.984,85.891,4.981,92.415a148.731,148.731,0,0,0-1.826,19.646c0,.925.049,1.826.122,2.733H8.3c-.03-1.266-.055-2.532-.055-3.81V99.7a127.75,127.75,0,0,1,5.751-36.335c1.826-5.435,3.98-9.616,5.794-15.1,1.6-4.833,3.518-11.028,5.478-15.4C33.258,15.216,50.6.122,75.953.122,86.909.122,94.426,1.735,101.7,5.6a50.235,50.235,0,0,1,9.087,6.385,53.9,53.9,0,0,1,3.725,4.041c.749.882,2.842,4.169,3.262,4.492h.158v9.915C116.257,26,114.431,23.3,111.169,19.1,105.186,11.382,91.084,4.133,77.274,4.133c-25.561,0-42.184,14.443-49.02,33.037C24.512,47.338,20.343,56.98,17,67.162s-5.033,22.38-5.033,35.989c0,4,.049,7.864.177,11.607h3.3c-.183-3.281-.28-6.543-.28-9.738,0-9.939,1.412-25.24,4.175-32.324,1.826-4.729,3.774-8.23,5.691-12.507,2.118-4.7,2.909-8.436,4.632-13.585,3.281-9.75,6.464-16.92,12.66-23.749,2.909-3.226,17.121-14.4,21.911-14.4.907,0,2.4.974,2.4,1.856,0,1.292-7.547,4.613-8.965,5.478a48.294,48.294,0,0,0-8.186,6.269c-4.364,4.419-9.525,10.566-11.893,16.761-2.836,7.437-5,12.988-6.573,22.045a162.575,162.575,0,0,0-2.246,26.469v27.424H24.78c-.274-5.478-.4-11.162-.4-17.2V93.8c0-3.907.256-7.474.524-11.272S26.5,75.969,26.5,72.348V70.473c0-1.047-1.01-2.434-1.856-2.434-2.72,0-4.536,27.388-4.536,32.738V112.6c0,.718,0,1.442.037,2.173H15.7v15.417H133.426V14.8Z" transform="translate(-0.325 0)"/><path class="a" d="M51.041,237.058a6.171,6.171,0,0,0,4.566-1.7,6.287,6.287,0,0,0,1.722-4.607H51.911v1.217h4.017a4.3,4.3,0,0,1-1.582,2.823,5,5,0,0,1-3.268,1.089,6.031,6.031,0,0,1-2.927-.731,5.387,5.387,0,0,1-2.094-2,5.166,5.166,0,0,1-.761-2.684,5.07,5.07,0,0,1,.73-2.617,5.265,5.265,0,0,1,2.063-1.966,5.8,5.8,0,0,1,2.805-.725,6.165,6.165,0,0,1,2.434.53,7.419,7.419,0,0,1,2.295,1.564l.968-.919a8.936,8.936,0,0,0-2.739-1.826,7.84,7.84,0,0,0-2.994-.571,7.14,7.14,0,0,0-3.525.864,6.355,6.355,0,0,0-2.433,2.4,6.464,6.464,0,0,0-.9,3.287,6.293,6.293,0,0,0,1.558,4.212,6.865,6.865,0,0,0,5.478,2.368" transform="translate(-17.22 -87.639)"/><path class="a" d="M74.086,227.074l2.136,4.536h-4.26Zm-2.72,5.739h5.392l1.96,4.132H80.07l-5.843-12.525h-.3L68,236.946h1.4Z" transform="translate(-26.613 -87.832)"/><path class="a" d="M100.872,224.41h-1.23v9.6l-8.338-9.6H91.03v12.52h1.3v-9.483l8.265,9.483h.28Z" transform="translate(-35.626 -87.827)"/><path class="a" d="M110.17,225.633h2.793v11.3h1.272v-11.3h2.793V224.41H110.17Z" transform="translate(-43.117 -87.827)"/><path class="a" d="M133.447,227.774a5.319,5.319,0,0,1,4.589-2.673,5.247,5.247,0,0,1,2.654.724,5.191,5.191,0,0,1,1.952,1.929,5.557,5.557,0,0,1-.943,6.628l-2.24-2.83h-1.522l2.787,3.542a5.289,5.289,0,0,1-7.991-4.583,5.478,5.478,0,0,1,.7-2.739m4.613,9.263a6.445,6.445,0,0,0,3.457-.943l1.278,1.619h1.54l-1.856-2.349a6.938,6.938,0,0,0,1.631-2.253,6.634,6.634,0,0,0-9.391-8.357,6.324,6.324,0,0,0-2.386,2.434,6.7,6.7,0,0,0-.876,3.354,6.269,6.269,0,0,0,1.917,4.613,6.39,6.39,0,0,0,4.693,1.9" transform="translate(-51.44 -87.618)"/><path class="a" d="M164.381,231.969a9.418,9.418,0,0,1-.128,1.96,2.99,2.99,0,0,1-.56,1.132,2.635,2.635,0,0,1-.955.73,2.793,2.793,0,0,1-1.217.262,3.285,3.285,0,0,1-1.424-.335,2.562,2.562,0,0,1-1.047-.834,2.776,2.776,0,0,1-.432-1.217,15.642,15.642,0,0,1-.049-1.68V224.41h-1.254v7.559a10.141,10.141,0,0,0,.231,2.641A3.481,3.481,0,0,0,159,236.528a4.558,4.558,0,0,0,2.6.724,3.755,3.755,0,0,0,2.38-.767,3.688,3.688,0,0,0,1.308-1.826,9.233,9.233,0,0,0,.329-2.714V224.41h-1.254Z" transform="translate(-61.565 -87.827)"/><path class="a" d="M181.94,234.577a2.29,2.29,0,0,1-1.028.841,5.546,5.546,0,0,1-2.015.268h-1.552v-4.8h.7a10.905,10.905,0,0,1,2.228.152,2.8,2.8,0,0,1,1.5.852,2.193,2.193,0,0,1,.158,2.69m-4.6-8.965h1.448a3.043,3.043,0,0,1,1.917.493,1.644,1.644,0,0,1,.609,1.352,2.009,2.009,0,0,1-.36,1.162,2.075,2.075,0,0,1-.974.767,5.611,5.611,0,0,1-1.917.244h-.718Zm6.276,7.706a3.238,3.238,0,0,0-.292-1.375,3.111,3.111,0,0,0-.816-1.108,4.639,4.639,0,0,0-1.5-.779,3.044,3.044,0,0,0,1.217-1.114,2.928,2.928,0,0,0,.408-1.522,2.97,2.97,0,0,0-.463-1.625,2.812,2.812,0,0,0-1.266-1.083,5.861,5.861,0,0,0-2.288-.353H176.14v12.562h3.439a4.126,4.126,0,0,0,2.958-1.041,3.372,3.372,0,0,0,1.1-2.55" transform="translate(-68.936 -87.805)"/><path class="a" d="M192.51,236.93h7.127v-1.223h-5.873v-4.924h5.873v-1.223h-5.873v-3.926h5.928V224.41H192.51Z" transform="translate(-75.342 -87.827)"/><path class="a" d="M212.451,231.783a9.131,9.131,0,0,0-2.228-2.136q-1.369-1.01-1.619-1.254a2.924,2.924,0,0,1-.609-.834,1.937,1.937,0,0,1-.17-.791,1.5,1.5,0,0,1,.481-1.132,1.722,1.722,0,0,1,1.217-.457,2.075,2.075,0,0,1,1.089.3,4.911,4.911,0,0,1,1.217,1.217l1.021-.773a5.672,5.672,0,0,0-1.631-1.613,3.293,3.293,0,0,0-1.655-.438,3.177,3.177,0,0,0-1.546.39,2.793,2.793,0,0,0-1.1,1.059,2.909,2.909,0,0,0-.39,1.491,3.14,3.14,0,0,0,.664,1.917,11,11,0,0,0,1.948,1.71,10.194,10.194,0,0,1,2.149,2.009,2.124,2.124,0,0,1,.426,1.217,2.04,2.04,0,0,1-.292,1.047,2.07,2.07,0,0,1-.841.785,2.483,2.483,0,0,1-1.187.292q-1.472,0-2.6-2.069l-1.065.609a5.565,5.565,0,0,0,1.71,2.039,3.694,3.694,0,0,0,2.069.609,3.475,3.475,0,0,0,2.514-1,3.2,3.2,0,0,0,1.035-2.367,3.445,3.445,0,0,0-.609-1.881" transform="translate(-80.512 -87.616)"/><path class="a" d="M22.217,258.231a3.128,3.128,0,0,1-1.668,1.217,10.1,10.1,0,0,1-2.7.244H16.765v-7.559h.664a11.061,11.061,0,0,1,2.9.268,3.317,3.317,0,0,1,1.826,1.322,4.011,4.011,0,0,1,.657,2.319,3.823,3.823,0,0,1-.609,2.191m-1.345-6.695a9.9,9.9,0,0,0-3.043-.341H15.87v9.385h2.988a5.97,5.97,0,0,0,2.727-.511,3.92,3.92,0,0,0,1.582-1.582A4.93,4.93,0,0,0,23.776,256a5.046,5.046,0,0,0-.767-2.812,4.078,4.078,0,0,0-2.136-1.656" transform="translate(-6.211 -98.307)"/><path class="a" d="M31.85,260.615h5.344V259.7H32.787v-3.682h4.406v-.925H32.787v-2.939H37.23v-.919H31.85Z" transform="translate(-12.465 -98.324)"/><path class="a" d="M45.623,252.31a4.168,4.168,0,0,1,2.082-.541,4.308,4.308,0,0,1,1.887.414,4.035,4.035,0,0,1,1.467,1.217l.743-.566a4.6,4.6,0,0,0-1.735-1.461,5.308,5.308,0,0,0-2.373-.524,4.991,4.991,0,0,0-3.653,1.405,4.662,4.662,0,0,0-1.442,3.469,4.948,4.948,0,0,0,1.217,3.341,4.869,4.869,0,0,0,3.9,1.613,5.521,5.521,0,0,0,2.343-.487,4.741,4.741,0,0,0,1.747-1.339l-.743-.609a4.175,4.175,0,0,1-3.3,1.546,4.072,4.072,0,0,1-2.97-1.144,3.835,3.835,0,0,1-1.175-2.836,4.017,4.017,0,0,1,.524-2.045,3.859,3.859,0,0,1,1.485-1.449" transform="translate(-16.67 -98.175)"/><path class="a" d="M68.527,257.8a3.8,3.8,0,0,1-1.448,1.449,4.016,4.016,0,0,1-2.027.53A3.944,3.944,0,0,1,61.1,255.8a4.055,4.055,0,0,1,.524-2.051,3.956,3.956,0,0,1,5.441-1.467,3.889,3.889,0,0,1,1.467,1.449,3.974,3.974,0,0,1,.524,2.021,4.078,4.078,0,0,1-.524,2.045m-3.513-6.969a4.832,4.832,0,0,0-4.23,2.434,5,5,0,0,0-.657,2.538,4.693,4.693,0,0,0,1.436,3.457,4.948,4.948,0,0,0,8.454-3.5,4.748,4.748,0,0,0-1.449-3.5A4.869,4.869,0,0,0,65,250.836" transform="translate(-23.531 -98.167)"/><path class="a" d="M80.487,255.351v-3.189h1.656a4.077,4.077,0,0,1,1.382.164,1.418,1.418,0,0,1,.67.554,1.527,1.527,0,0,1,.256.858,1.594,1.594,0,0,1-.256.876,1.455,1.455,0,0,1-.7.571,4.035,4.035,0,0,1-1.388.176Zm3.542.609a2.245,2.245,0,0,0,1.028-.876,2.507,2.507,0,0,0,.36-1.345,2.343,2.343,0,0,0-.524-1.552,2.435,2.435,0,0,0-1.357-.822,11.563,11.563,0,0,0-2.118-.128H79.55v9.386h.937v-4.359h.554l3.372,4.359h1.162L82.2,256.264a4.741,4.741,0,0,0,1.826-.3" transform="translate(-31.133 -98.324)"/><path class="a" d="M94.11,256.622l1.607-3.4,1.6,3.4Zm1.5-5.392-4.437,9.385h1.047l1.461-3.092h4.041l1.479,3.092h1l-4.382-9.385Z" transform="translate(-35.681 -98.324)"/><path class="a" d="M106.85,252.149h2.094v8.466h.955v-8.466h2.094v-.919H106.85Z" transform="translate(-41.818 -98.324)"/><rect class="a" width="0.937" height="9.385" transform="translate(71.398 152.906)"/><path class="a" d="M130.1,257.8a3.8,3.8,0,0,1-1.449,1.449,4.011,4.011,0,0,1-2.027.53,3.944,3.944,0,0,1-3.956-3.98,4.055,4.055,0,0,1,.524-2.051,3.956,3.956,0,0,1,5.441-1.467,3.889,3.889,0,0,1,1.467,1.449,3.98,3.98,0,0,1,.524,2.021,4.085,4.085,0,0,1-.524,2.045m-3.518-6.969a4.839,4.839,0,0,0-4.23,2.434,5,5,0,0,0-.651,2.538,4.7,4.7,0,0,0,1.436,3.457,4.948,4.948,0,0,0,8.454-3.5,4.741,4.741,0,0,0-1.436-3.506,4.869,4.869,0,0,0-3.567-1.424" transform="translate(-47.628 -98.167)"/><path class="a" d="M147.5,258.424l-6.251-7.194h-.2v9.385h.968v-7.1l6.2,7.1h.213V251.23H147.5Z" transform="translate(-55.202 -98.324)"/><path class="a" d="M163.807,251.23h-.937v9.385h4.546v-.9h-3.609Z" transform="translate(-63.742 -98.324)"/><path class="a" d="M173.721,251.23h-.931v9.385h4.546v-.9h-3.615Z" transform="translate(-67.625 -98.324)"/><path class="a" d="M184.977,252.31a4.17,4.17,0,0,1,2.082-.541,4.3,4.3,0,0,1,1.887.414,4.023,4.023,0,0,1,1.467,1.217l.743-.566a4.6,4.6,0,0,0-1.735-1.461,5.3,5.3,0,0,0-2.373-.524,4.986,4.986,0,0,0-3.652,1.406,4.656,4.656,0,0,0-1.442,3.469,4.948,4.948,0,0,0,1.215,3.34,4.869,4.869,0,0,0,3.883,1.637,5.518,5.518,0,0,0,2.343-.487,4.741,4.741,0,0,0,1.753-1.382l-.742-.56a4.169,4.169,0,0,1-3.3,1.546,4.077,4.077,0,0,1-2.97-1.144,3.834,3.834,0,0,1-1.175-2.867,4.023,4.023,0,0,1,.524-2.045,3.865,3.865,0,0,1,1.486-1.449" transform="translate(-71.212 -98.175)"/><path class="a" d="M201.026,264.35a.748.748,0,0,0-.554.231.8.8,0,0,0,0,1.12.773.773,0,0,0,1.108,0,.791.791,0,0,0,0-1.12.748.748,0,0,0-.554-.231" transform="translate(-78.368 -103.458)"/><path class="a" d="M.91,236.93H8.037v-1.223H2.158v-4.924H8.037v-1.223H2.158v-3.926H8.086V224.41H.91Z" transform="translate(-0.356 -87.827)"/><path class="a" d="M22.324,235.725H17.5V224.41H16.25v12.52h6.074Z" transform="translate(-6.36 -87.827)"/><path class="a" d="M29.5,236.93h7.127v-1.223H30.754v-4.924h5.873v-1.223H30.754v-3.926h5.922V224.41H29.5Z" transform="translate(-11.545 -87.827)"/></g></svg>