<svg xmlns="http://www.w3.org/2000/svg" width="62" height="62" viewBox="0 0 62 62"><defs><style>.a{fill:#f0bc5e;}</style></defs><g transform="translate(-1 -1)"><path d="M62.22,18A2.987,2.987,0,0,0,60,13H55a1,1,0,0,1-1-1V6.243a6.373,6.373,0,0,0-1.879-4.536A2.414,2.414,0,0,0,48,3.414V7a10.191,10.191,0,0,1-4.547,8.5,2.989,2.989,0,0,1-1.664.5H41V14H31v2h8V30H36.995c0-.049.005-.1.005-.147V29a17.882,17.882,0,0,0-5.272-12.728l-1.414,1.414A15.9,15.9,0,0,1,35,29v.853a15.952,15.952,0,0,1-2.687,8.875L25.465,49H23V37h2a4,4,0,1,0-4-4v2H17V33a4,4,0,1,0-4,4h2V49H12.535L5.687,38.729A15.957,15.957,0,0,1,3,29.853V29A15.891,15.891,0,0,1,7.706,17.667L6.294,16.25A17.878,17.878,0,0,0,1,29v.853a17.947,17.947,0,0,0,3.023,9.985L11,50.3V55a8,8,0,0,0,16,0V50.3l6.977-10.466A17.932,17.932,0,0,0,36.861,32H41V30h.764l.944.472A4.982,4.982,0,0,0,44,30.9V52.236l4.658,9.316a2.618,2.618,0,0,0,4.684,0L58,52.236V31h2a2.987,2.987,0,0,0,2.22-5,2.954,2.954,0,0,0,0-4,2.954,2.954,0,0,0,0-4ZM23,33a2,2,0,1,1,2,2H23Zm2,18v2H13V51ZM13,35a2,2,0,1,1,2-2v2Zm4,2h4V49H17Zm2,24a6.006,6.006,0,0,1-6-6H25A6.006,6.006,0,0,1,19,61ZM46,51V31h4V51Zm5.553,9.658a.64.64,0,0,1-1.1,0L46.618,53h8.764ZM56,51H52V31h4Zm4-22H44.944a3.009,3.009,0,0,1-1.342-.317L42.236,28H41V18h.789a4.987,4.987,0,0,0,2.773-.84A12.186,12.186,0,0,0,50,7V3.414a.43.43,0,0,1,.707-.293A4.385,4.385,0,0,1,52,6.243V12a3,3,0,0,0,3,3h5a1,1,0,0,1,0,2H57v2h3a1,1,0,0,1,0,2H57v2h3a1,1,0,0,1,0,2H57v2h3a1,1,0,0,1,0,2Z"/><path class="a" d="M32,12.219l-2.416-.6,1.281-2.134L25.518,4.135,23.384,5.416,22.781,3H15.219l-.6,2.416L12.482,4.135,7.134,9.481l1.281,2.134L6,12.219v7.562l2.416.6L7.135,22.518l5.347,5.347,2.134-1.281.6,2.416h7.562l.6-2.416,2.134,1.281,5.347-5.347-1.281-2.134,2.416-.6ZM19,22a6,6,0,1,1,6-6A6,6,0,0,1,19,22Z"/><path d="M19,23a7,7,0,1,1,7-7A7.008,7.008,0,0,1,19,23Zm0-12a5,5,0,1,0,5,5A5.006,5.006,0,0,0,19,11Z"/></g></svg>