<svg xmlns="http://www.w3.org/2000/svg" width="62" height="62" viewBox="0 0 62 62"><defs><style>.a{fill:#f0bc5e;}</style></defs><g transform="translate(-1 -1)"><path class="a" d="M7,24.618V13.382L18.236,19Z"/><path class="a" d="M45,44h6V56H45Z"/><path class="a" d="M13,44h6V56H13Z"/><path d="M57.819,11l-8,3H47a2,2,0,0,0-2,2v1H42a3,3,0,0,0-3,3V31H33V17.279l-2.581-.86A4.994,4.994,0,0,1,27,11.675V8A5,5,0,0,1,37,8v6a1,1,0,1,1-2,0V8a3,3,0,0,0-6,0v2a3,3,0,0,0,3,3,2.966,2.966,0,0,0,1-.184V14a3,3,0,1,0,6,0V8A7,7,0,0,0,25,8v3.675a6.99,6.99,0,0,0,4.787,6.641L31,18.721V31H27V21a3,3,0,0,0-3-3H20.949a10,10,0,1,0,0,2H24a1,1,0,0,1,1,1V31H12a3,3,0,0,0-3,3V60a3,3,0,0,0,3,3H52a3,3,0,0,0,3-3V34a3,3,0,0,0-3-3H41V20a1,1,0,0,1,1-1h3v1a2,2,0,0,0,2,2h1v5a2,2,0,0,0,2,2h2a2,2,0,0,0,2-2V23.568L57.819,25H63V11ZM32,11a1,1,0,0,1-1-1V8a1,1,0,0,1,2,0v2A1,1,0,0,1,32,11ZM11,27a8,8,0,1,1,8-8A8.009,8.009,0,0,1,11,27ZM52,61H12a1,1,0,0,1-1-1V41H53V60A1,1,0,0,1,52,61Zm1-27v5H11V34a1,1,0,0,1,1-1H52A1,1,0,0,1,53,34ZM51,15.693l6-2.25v9.114l-6-2.25ZM47,16h2v4H47Zm5,11H50V22.068l2,.75Zm9-4H59V13h2Z"/><path d="M21,35h2v2H21Z"/><path d="M17,35h2v2H17Z"/><path d="M13,35h2v2H13Z"/><path d="M21,59H43V43H21Zm7.771-5.135a5.161,5.161,0,0,0,6.458,0L39.149,57h-14.3Zm7.805-1.484L41,46.851v9.068Zm-2.107-.568a3.161,3.161,0,0,1-4.938,0L24.081,45H39.92Zm-7.045.568L23,55.919V46.851Z"/><path d="M45,43h6v2H45Z"/><path d="M45,47h6v2H45Z"/><path d="M45,51h6v2H45Z"/><path d="M45,55h6v2H45Z"/><path d="M13,43h6v2H13Z"/><path d="M13,47h6v2H13Z"/><path d="M13,51h6v2H13Z"/><path d="M13,55h6v2H13Z"/></g></svg>