<svg xmlns="http://www.w3.org/2000/svg" width="62" height="62" viewBox="0 0 62 62"><defs><style>.a{fill:#f0bc5e;}</style></defs><g transform="translate(-1 -1)"><path class="a" d="M60,15.763V10.237l-2.625-.718c-.086-.23-.182-.459-.286-.685L58.44,6.469,54.533,2.561l-2.367,1.35c-.227-.1-.455-.2-.684-.286L50.764,1H45.237l-.718,2.625c-.229.086-.458.181-.685.286l-2.366-1.35L37.561,6.469l1.351,2.365c-.1.226-.2.455-.286.685L36,10.237v5.526l2.625.718c.086.23.182.459.286.685L37.56,19.531l3.907,3.908L43.821,22.1a14.048,14.048,0,0,0,1.884.858l.295,0V18a2.015,2.015,0,0,1,.04-.4,5,5,0,1,1,3.92,0A2.025,2.025,0,0,1,50,18v5l.295-.044a14.037,14.037,0,0,0,1.884-.858l2.354,1.342,3.907-3.908-1.351-2.365c.1-.226.2-.455.286-.685Z"/><path class="a" d="M38.851,41.767l-.692-5.534a5.444,5.444,0,0,0-.873-2.345l-1.029-1.544A1.539,1.539,0,0,1,36,31.493h0a1.534,1.534,0,0,1,1.535-1.534A5.4,5.4,0,0,1,39,30.179V27a2,2,0,0,0-2-2H33.931a8,8,0,1,1-15.862,0H7a2,2,0,0,0-2,2V45a2,2,0,0,0,2,2H37a2,2,0,0,0,2-2V42.517A6.14,6.14,0,0,1,38.851,41.767Z"/><path d="M61.6,49.2A7.038,7.038,0,0,0,63,45V32a2.99,2.99,0,0,0-4.116-2.78A2.973,2.973,0,0,0,54,27.78a2.908,2.908,0,0,0-3-.6v-9a6,6,0,1,0-6,0V37.014a3,3,0,0,1-.306,1.319l-.839-4.194A6.391,6.391,0,0,0,43,32h0V26a5.006,5.006,0,0,0-5-5H33.478A9.037,9.037,0,0,0,29,17.525V15a1,1,0,0,1,1-1h6V12H30a3,3,0,0,0-3,3v2.059a8.5,8.5,0,0,0-2,0V12a3,3,0,0,0-3-3H18.941a9,9,0,1,0,0,2H22a1,1,0,0,1,1,1v5.525A9.037,9.037,0,0,0,18.522,21H6a5.006,5.006,0,0,0-5,5V46a5.006,5.006,0,0,0,5,5h8v2H13a4,4,0,0,0-4,4,2,2,0,0,0,2,2H33a2,2,0,0,0,2-2,4,4,0,0,0-4-4H30V51h8a4.951,4.951,0,0,0,3.277-1.256L42,51.23V53H40V63H62V53H60V51.333ZM5.678,15.5a4.99,4.99,0,0,1,8.644,0,6.962,6.962,0,0,1-8.644,0ZM8,9a2,2,0,1,1,2,2A2,2,0,0,1,8,9Zm7.729,5.01a6.943,6.943,0,0,0-2.763-2.351,4,4,0,1,0-5.932,0A6.943,6.943,0,0,0,4.271,14.01a7,7,0,1,1,11.458,0ZM48,9a3.993,3.993,0,0,1,2.385,7.2,2.969,2.969,0,0,0-4.77,0A3.993,3.993,0,0,1,48,9ZM26,19a6.991,6.991,0,0,1,5.729,11.01,6.943,6.943,0,0,0-2.763-2.351,4,4,0,1,0-5.932,0,6.943,6.943,0,0,0-2.763,2.351A6.991,6.991,0,0,1,26,19Zm-2,6a2,2,0,1,1,2,2A2,2,0,0,1,24,25Zm2,4a4.973,4.973,0,0,1,4.322,2.5,6.962,6.962,0,0,1-8.644,0A4.973,4.973,0,0,1,26,29Zm7,28L11,57v0a2,2,0,0,1,2-2H31A2,2,0,0,1,33,57Zm-5-4H16V51H28Zm10-4H6a3,3,0,0,1-3-3V26a3,3,0,0,1,3-3H17.525a9,9,0,1,0,16.95,0H38a3,3,0,0,1,3,3v4a6.4,6.4,0,0,0-3.465-1.039A2.535,2.535,0,0,0,35.426,32.9l1.029,1.544a4.461,4.461,0,0,1,.712,1.914l.692,5.533a6.792,6.792,0,0,0,.837,2.547l1.641,3.374A2.961,2.961,0,0,1,38,49ZM60,61H42V55H60ZM44,53V50.77L40.464,43.5a4.938,4.938,0,0,1-.62-1.859l-.692-5.534a6.459,6.459,0,0,0-1.032-2.775L37.09,31.79a.535.535,0,0,1,.445-.832,4.459,4.459,0,0,1,4.359,3.573l1.286,6.427h2.438l.854-1.709A5.027,5.027,0,0,0,47,37.014V18a1,1,0,0,1,2,0V34h2V30a1,1,0,0,1,2,0v4h2V30a1,1,0,0,1,2,0v4h2V32a1,1,0,0,1,2,0V45a5.028,5.028,0,0,1-1,3l-2,2.667V53Z"/><path d="M31,37H29v4H27V39H25v2H23V37H21v4H19V33H17v8H15V31H13V41H11V29H9V43H33V41H31Z"/></g></svg>