<svg xmlns="http://www.w3.org/2000/svg" width="62" height="62" viewBox="0 0 62 62"><defs><style>.a{fill:#f0bc5e;}</style></defs><g transform="translate(-1 -1)"><path d="M32,11a3,3,0,1,1,3-3A3,3,0,0,1,32,11Zm0-4a1,1,0,1,0,1,1A1,1,0,0,0,32,7Z"/><path d="M35,15V13H29v2h2v6H29v2h6V21H33V15Z"/><path d="M22,43.78V39.709H20V43H16V39.709H14V43.78A2.983,2.983,0,0,0,13,46V58a5,5,0,0,0,10,0V46A2.985,2.985,0,0,0,22,43.78ZM21,58a3,3,0,0,1-6,0V46a1,1,0,0,1,1-1h4a1,1,0,0,1,1,1Z"/><path class="a" d="M54,59a5,5,0,1,1,5-5A5.006,5.006,0,0,1,54,59Z"/><path class="a" d="M43,59H31V49H43Z"/><path d="M59,37V27H33.5v2H57v6H33V31.75H31V37H44v6H36v7h2V45H53v5h2V43H46V37Z"/><path class="a" d="M32,26l-2.237.373A12.044,12.044,0,1,1,20.149,12.2l0,.006a11.933,11.933,0,0,1,1.824-4.736l-.36-.078A17,17,0,1,0,34.88,25.95l.037-.322A11.987,11.987,0,0,1,32,26Z"/><path d="M41.361,23A12.99,12.99,0,0,0,31.514,1.009,13.126,13.126,0,0,0,19.352,11.084,12.218,12.218,0,0,0,18,11,13,13,0,1,0,30.575,27.251L32.084,27A12.9,12.9,0,0,0,38.9,25H61V61H29V36.947a17.069,17.069,0,0,1-2,1.472V63H63V23ZM18,35a11,11,0,0,1,0-22,10.414,10.414,0,0,1,1.048.058c-.023.31-.048.619-.048.934a12.84,12.84,0,0,0,2.266,7.328l-3.559,3.558A2.415,2.415,0,0,0,19.414,29h.469a2.521,2.521,0,0,0,.4-.033l8.1-1.349A11.026,11.026,0,0,1,18,35ZM32,25,19.883,27h-.469a.414.414,0,0,1-.293-.707l4.8-4.794-.55-.7A10.885,10.885,0,0,1,21,13.994,11.093,11.093,0,0,1,31.588,3.007,11,11,0,1,1,32,25Z"/><path d="M15,25H13V23h2Zm-4,0H9V23h2Z"/><path d="M37.626,21.025l-1.251-1.561A6.968,6.968,0,0,0,39,14h2a8.96,8.96,0,0,1-3.374,7.025Z"/></g></svg>