<svg xmlns="http://www.w3.org/2000/svg" width="62" height="62" viewBox="0 0 62 62"><defs><style>.a{fill:#f0bc5e;}</style></defs><g transform="translate(-1 -1)"><path d="M56,43V33h3.618l-4-8H46V22.32l2.979-4.172A10.844,10.844,0,0,0,40.155,1h-.311a10.844,10.844,0,0,0-8.823,17.149L34,22.32V25H26.382l-4,8H26V43H24.388v2h8.723a6.977,6.977,0,0,0,0,10H24.388v2H56a7,7,0,0,0,0-14Zm-2,0H41V30.236L42.382,33H54Zm1,7a5,5,0,1,1-5-5A5.006,5.006,0,0,1,55,50ZM44,46.413A7.052,7.052,0,0,0,42.889,45H45.11A7.112,7.112,0,0,0,44,46.413ZM56.382,31H43.618l-2-4H54.382ZM32.647,16.986A8.846,8.846,0,0,1,39.845,3h.311a8.846,8.846,0,0,1,7.2,13.987L44.486,21H41V14H39v7H35.514ZM36,23h8v2H36Zm-8.382,4H38.382l-2,4H25.618ZM28,43V33h9.618L39,30.236V43Zm5,7a5,5,0,1,1,5,5A5.006,5.006,0,0,1,33,50Zm9.889,5A7.081,7.081,0,0,0,44,53.587,7.052,7.052,0,0,0,45.111,55ZM56,55H54.889a6.977,6.977,0,0,0,0-10H56a5,5,0,0,1,0,10Z"/><path d="M50,39h2v2H50Z"/><path d="M46,39h2v2H46Z"/><path d="M23.144,19h6v2h-6Z" transform="matrix(0.866, -0.5, 0.5, 0.866, -6.497, 15.748)"/><path d="M52.856,17h2v6h-2Z" transform="matrix(0.5, -0.866, 0.866, 0.5, 9.611, 56.645)"/><path d="M50,53a3,3,0,1,0-3-3A3,3,0,0,0,50,53Zm0-4a1,1,0,1,1-1,1A1,1,0,0,1,50,49Z"/><path d="M38,47a3,3,0,1,0,3,3A3,3,0,0,0,38,47Zm0,4a1,1,0,1,1,1-1A1,1,0,0,1,38,51Z"/><path class="a" d="M27,46.219l-2.415-.6,1.28-2.136-5.346-5.346-2.136,1.28L17.781,37H10.219l-.6,2.415L7.48,38.135,2.135,43.48l1.28,2.136L1,46.219v7.562l2.415.6L2.135,56.52l5.346,5.346,2.136-1.28.6,2.414h7.562l.6-2.415,2.136,1.28,5.346-5.346-1.28-2.136,2.414-.6ZM14,56a6,6,0,1,1,6-6A6,6,0,0,1,14,56Z"/><path d="M14,57a7,7,0,1,1,7-7A7.009,7.009,0,0,1,14,57Zm0-12a5,5,0,1,0,5,5A5.006,5.006,0,0,0,14,45Z"/><path class="a" d="M40,15a3,3,0,1,1,3-3A3,3,0,0,1,40,15Z"/><path d="M53,11h6v2H53Z"/><path d="M50.857,3h6V5h-6Z" transform="matrix(0.866, -0.5, 0.5, 0.866, 5.213, 27.46)"/><path d="M25.143,1h2V7h-2Z" transform="matrix(0.5, -0.866, 0.866, 0.5, 9.606, 24.64)"/><path d="M21,11h6v2H21Z"/></g></svg>