<svg xmlns="http://www.w3.org/2000/svg" width="62" height="62" viewBox="0 0 62 62"><defs><style>.a{fill:#f0bc5e;}</style></defs><g transform="translate(-1 -1)"><path class="a" d="M37,48.792V41.208l-2.635-.62a15.882,15.882,0,0,0-1.381-3.332l1.425-2.3-3.428-3.428-4.308,5.6a11,11,0,1,1-15.345,0l-4.308-5.6L3.592,34.953l1.425,2.3a15.936,15.936,0,0,0-1.381,3.332L1,41.208v7.584l2.635.62a15.882,15.882,0,0,0,1.381,3.332l-1.425,2.3L8.954,60.41l2.3-1.426a15.9,15.9,0,0,0,3.332,1.381L15.208,63h7.584l.62-2.635a15.9,15.9,0,0,0,3.332-1.381l2.3,1.426,5.363-5.363-1.425-2.3a15.851,15.851,0,0,0,1.381-3.332Z"/><path class="a" d="M45,35H59v5H45Z"/><path class="a" d="M45,15H59v5H45Z"/><path d="M25.846,29h2.523v2H25.846Z" transform="translate(-13.199 33.202) rotate(-52.431)"/><path d="M30.213,27.6A14.087,14.087,0,0,0,33,19.218V19H31v.218A12.076,12.076,0,0,1,28.612,26.4Z"/><path d="M17.152,7.142A12.166,12.166,0,0,1,19,7V5a14.208,14.208,0,0,0-2.152.165Z"/><path d="M5,19H7A11.974,11.974,0,0,1,15.308,7.581l-.616-1.9A13.968,13.968,0,0,0,5,19Z"/><path d="M44,10a3,3,0,0,0-3,3v8a3,3,0,0,0,3,3H60a3,3,0,0,0,3-3V13a3,3,0,0,0-3-3H53V9a3,3,0,0,0-3-3H31.416A17.976,17.976,0,0,0,1,19v.218A18.1,18.1,0,0,0,4.733,30.193l5.287,6.873A11.874,11.874,0,0,0,7,45a12,12,0,1,0,24,0,11.874,11.874,0,0,0-3.02-7.934l5.287-6.873A17.876,17.876,0,0,0,34.7,28H50a1,1,0,0,1,1,1v1H44a3,3,0,0,0-3,3v8a3,3,0,0,0,3,3H60a3,3,0,0,0,3-3V33a3,3,0,0,0-3-3H53V29a3,3,0,0,0-3-3H35.655A18.061,18.061,0,0,0,37,19.218V19A17.892,17.892,0,0,0,33.216,8H50a1,1,0,0,1,1,1v1ZM61,33v8a1,1,0,0,1-1,1H44a1,1,0,0,1-1-1V33a1,1,0,0,1,1-1H60A1,1,0,0,1,61,33ZM25,39v2H13V39ZM15,18H13a2,2,0,1,1,2-2Zm6,19H17V20h4Zm4,6a6,6,0,0,1-12,0ZM19,55A10.011,10.011,0,0,1,9,45a9.886,9.886,0,0,1,2-5.975V43a8,8,0,0,0,16,0V39.025A9.886,9.886,0,0,1,29,45,10.011,10.011,0,0,1,19,55ZM35,19.218a16.081,16.081,0,0,1-3.318,9.756L25.508,37H23V20h2a4,4,0,1,0-4-4v2H17V16a4,4,0,1,0-4,4h2V37H12.492L6.318,28.974A16.083,16.083,0,0,1,3,19.218V19a16,16,0,1,1,32,0ZM23,18V16a2,2,0,1,1,2,2Zm38-5v8a1,1,0,0,1-1,1H44a1,1,0,0,1-1-1V13a1,1,0,0,1,1-1H60A1,1,0,0,1,61,13Z"/><path d="M45,14H59v2H45Z"/><path d="M57,18h2v2H57Z"/><path d="M45,18H55v2H45Z"/><path d="M45,34H59v2H45Z"/><path d="M57,38h2v2H57Z"/><path d="M45,38H55v2H45Z"/></g></svg>