<svg xmlns="http://www.w3.org/2000/svg" width="50" height="61.909" viewBox="0 0 50 61.909"><defs><style>.a{fill:#f0bc5e;}</style></defs><g transform="translate(-7 -1)"><path d="M43.839,47.016l-1.932.515,2.649,9.933L39.73,55.856l-3.235,3.235L33.8,49.663l-1.8.514-1.8-.514L27.5,59.091,24.27,55.856l-4.826,1.608,2.649-9.933-1.932-.515-3.6,13.52,7.174-2.392,4.765,4.765L32,50.64,35.5,62.909l4.765-4.765,7.174,2.392Z"/><path d="M21.354,52.5H28.63v2H21.354Z" transform="translate(-33.298 62.939) rotate(-74.157)"/><path d="M38.055,49.875h2v7.251h-2Z" transform="translate(-12.599 12.034) rotate(-15.134)"/><path class="a" d="M57,26a7.009,7.009,0,0,0-3.164-5.851,6.991,6.991,0,0,0-5.851-10.134A6.992,6.992,0,0,0,37.851,4.163a6.993,6.993,0,0,0-11.7,0,6.992,6.992,0,0,0-10.134,5.852A6.991,6.991,0,0,0,10.164,20.15a6.991,6.991,0,0,0,0,11.7,6.991,6.991,0,0,0,5.851,10.134,6.991,6.991,0,0,0,10.134,5.851,6.992,6.992,0,0,0,11.7,0,6.991,6.991,0,0,0,10.134-5.851,6.991,6.991,0,0,0,5.851-10.134A7.009,7.009,0,0,0,57,26ZM32,44A18,18,0,1,1,50,26,18,18,0,0,1,32,44Z"/><path d="M32,29a9,9,0,1,0-9-9A9.011,9.011,0,0,0,32,29Zm0-15.359L33.246,18H37.7l-3.944,2.629,1.687,3.936L32,21.7l-3.44,2.867,1.687-3.936L26.3,18h4.452ZM29.379,26.486,32,24.3l2.621,2.184a6.94,6.94,0,0,1-5.242,0Zm8.127-2.178L36.247,21.37l2.731-1.82c.009.15.022.3.022.45a6.962,6.962,0,0,1-1.494,4.308ZM37.736,16H34.754l-.775-2.71A7.016,7.016,0,0,1,37.736,16ZM30.02,13.29,29.246,16H26.264A7.017,7.017,0,0,1,30.02,13.29Zm-5,6.26,2.731,1.82L26.5,24.308A6.956,6.956,0,0,1,25,20c0-.152.013-.3.023-.45Z"/><path d="M32,7A19,19,0,1,0,51,26,19.021,19.021,0,0,0,32,7Zm0,2A16.983,16.983,0,0,1,46,35.622V29H38V41.886a16.854,16.854,0,0,1-2,.619V31H28V42.505a16.854,16.854,0,0,1-2-.619V33H18v2.622A16.983,16.983,0,0,1,32,9ZM44,38.029a17.1,17.1,0,0,1-4,2.963V31h4ZM24,40.992a17.1,17.1,0,0,1-4-2.963V35h4Zm6,1.88V33h4v9.872a15.689,15.689,0,0,1-4,0Z"/><path d="M19.781,21.553,17.9,20.868a14.958,14.958,0,0,0-.587,2.061l1.958.408a12.922,12.922,0,0,1,.508-1.784Z"/><path d="M19,26c0-.277.009-.553.025-.825l-2-.123c-.019.313-.029.63-.029.947,0,.4.015.8.046,1.191l1.994-.156C19.013,26.693,19,26.349,19,26Z"/><path d="M19.854,30.643a13.054,13.054,0,0,1-.537-1.775l-1.951.439a14.937,14.937,0,0,0,.62,2.05Z"/></g></svg>