<svg xmlns="http://www.w3.org/2000/svg" width="62" height="62" viewBox="0 0 62 62"><defs><style>.a{fill:#f0bc5e;}</style></defs><g transform="translate(-1 -1)"><path class="a" d="M51,16v9h2v4h6V16Z"/><path class="a" d="M27.986,11.137c0-.046.014-.09.014-.137a3.974,3.974,0,0,0-5.409-3.732,3.977,3.977,0,0,0-7.182,0A3.974,3.974,0,0,0,10,11c0,.047.012.091.014.137A3.962,3.962,0,0,0,7.9,17.5l1.191,1.191h.014A2.975,2.975,0,0,1,11,18h1l1.316-1.975a2.3,2.3,0,0,1,3.3-.564A12.7,12.7,0,0,0,24.232,18H27a2.97,2.97,0,0,1,1.893.691h.016L30.1,17.5a3.964,3.964,0,0,0-2.114-6.363Z"/><path d="M55.754,51.674a6,6,0,1,0-7.508,0A11.041,11.041,0,0,0,42,57.445a11.044,11.044,0,0,0-6.246-5.771A5.983,5.983,0,0,0,37,43.69V42.034a9.036,9.036,0,0,0-6.527-8.653L23,31.246V29.565A12.524,12.524,0,0,0,26.119,25H27a4,4,0,0,0,0-8H24.232a11.776,11.776,0,0,1-7.019-2.339,3.3,3.3,0,0,0-4.729.81L11.465,17H11a4,4,0,0,0,0,8h.881A12.524,12.524,0,0,0,15,29.565v1.681L7.527,33.381A9.037,9.037,0,0,0,1,42.034V47H6a5.992,5.992,0,0,0,2.246,4.674A11.008,11.008,0,0,0,1,62v1H63V62A11.008,11.008,0,0,0,55.754,51.674ZM32,51a4,4,0,1,1,4-4A4,4,0,0,1,32,51ZM29,21a2,2,0,0,1-2,2h-.279A12.536,12.536,0,0,0,27,20.384V19A2,2,0,0,1,29,21ZM11,23a2,2,0,0,1,0-4v1.384A12.536,12.536,0,0,0,11.279,23Zm2-2.616V18.3l1.148-1.723a1.344,1.344,0,0,1,1.865-.319A13.78,13.78,0,0,0,24.232,19H25v1.384A10.536,10.536,0,0,1,19,29.9,10.536,10.536,0,0,1,13,20.384Zm5.606,11.535.394.169.394-.169A12.489,12.489,0,0,0,21,31.088V32a2,2,0,0,1-4,0v-.912a12.684,12.684,0,0,0,1.606.831ZM3,45V42.034A7.029,7.029,0,0,1,8.076,35.3l7.147-2.042a3.974,3.974,0,0,0,7.554,0L29.924,35.3a7.022,7.022,0,0,1,5.057,6.5A5.865,5.865,0,0,0,31,41.09V39H29v2.812A6.026,6.026,0,0,0,26.35,45h-8.7A5.979,5.979,0,0,0,9,41.812V39H7v4.69A5.971,5.971,0,0,0,6.35,45Zm5,2a4,4,0,1,1,4,4A4,4,0,0,1,8,47ZM3.056,61a9,9,0,0,1,17.888,0Zm12.7-9.326A5.992,5.992,0,0,0,18,47h8a5.992,5.992,0,0,0,2.246,4.674A11.041,11.041,0,0,0,22,57.445,11.041,11.041,0,0,0,15.754,51.674ZM23.056,61a9,9,0,0,1,17.888,0ZM48,47a4,4,0,1,1,4,4A4,4,0,0,1,48,47ZM43.056,61a9,9,0,0,1,17.888,0Z"/><path d="M58,11H49V6A5,5,0,0,0,39,6v5H38a5.006,5.006,0,0,0-5,5V28a5.006,5.006,0,0,0,5,5h4v3.54a2.46,2.46,0,0,0,4.061,1.868L52.37,33H58a5.006,5.006,0,0,0,5-5V16a5.006,5.006,0,0,0-5-5ZM41,19V9h2V19Zm5.382,2-1.829,3.658a.64.64,0,0,1-1.1,0L41.618,21ZM47,19H45V9h2ZM44,3a3,3,0,0,1,3,3V7H41V6A3,3,0,0,1,44,3ZM61,28a3,3,0,0,1-3,3H51.63l-6.871,5.89A.476.476,0,0,1,44,36.54V31H38a3,3,0,0,1-3-3V16a3,3,0,0,1,3-3h1v7.236l2.658,5.317a2.619,2.619,0,0,0,4.684,0L49,20.236V13h9a3,3,0,0,1,3,3Z"/><path d="M51,15h8v2H51Z"/><path d="M51,19h8v2H51Z"/><path d="M51,23h8v2H51Z"/><path d="M53,27h2v2H53Z"/><path d="M57,27h2v2H57Z"/></g></svg>