<svg xmlns="http://www.w3.org/2000/svg" width="66.438" height="99.327" viewBox="0 0 66.438 99.327"><defs><style>.a{fill:#d3a956;}</style></defs><path class="a" d="M69.925-17.623V0H3.487A45.228,45.228,0,0,1,9.942-18.942q5.419-8.953,21.345-23.748Q44.1-54.564,46.931-58.8A21.028,21.028,0,0,0,50.889-70.49q0-6.314-3.393-9.707t-9.424-3.393A12.705,12.705,0,0,0,28.6-80.008Q25.067-76.427,24.6-68.134L5.654-70.019q1.7-15.644,10.6-22.476t22.287-6.832q14.607,0,22.994,7.916a25.87,25.87,0,0,1,8.387,19.6,34.053,34.053,0,0,1-2.4,12.722,51.915,51.915,0,0,1-7.586,12.628A124.247,124.247,0,0,1,47.5-33.784Q38.543-25.539,36.14-22.853a33.72,33.72,0,0,0-3.911,5.23Z" transform="translate(-3.487 99.327)"/></svg>