<svg xmlns="http://www.w3.org/2000/svg" width="65.778" height="101.023" viewBox="0 0 65.778 101.023"><defs><style>.a{fill:#d3a956;}</style></defs><path class="a" d="M5.183-26.292,23.56-28.46q.848,6.974,4.712,10.7a12.959,12.959,0,0,0,9.33,3.722,12.762,12.762,0,0,0,9.848-4.429q4.005-4.429,4.005-12.062,0-7.162-3.817-11.309a12.249,12.249,0,0,0-9.377-4.146,32.522,32.522,0,0,0-8.67,1.414L31.664-60.03q7.633.188,11.686-3.345A11.934,11.934,0,0,0,47.4-72.846a10.761,10.761,0,0,0-2.969-7.963,10.637,10.637,0,0,0-7.869-2.969,11.484,11.484,0,0,0-8.293,3.393q-3.487,3.393-4.146,9.9L6.6-73.506q1.885-8.953,5.56-14.324a24.765,24.765,0,0,1,10.225-8.434A34.407,34.407,0,0,1,37.13-99.327q13.947,0,22.429,8.953a23.223,23.223,0,0,1,6.879,16.4q0,13-14.23,20.827A23.03,23.03,0,0,1,65.825-45a23.609,23.609,0,0,1,5.136,15.314A29.721,29.721,0,0,1,61.443-7.492Q51.925,1.7,37.7,1.7q-13.382,0-22.24-7.728T5.183-26.292Z" transform="translate(-5.183 99.327)"/></svg>