<svg xmlns="http://www.w3.org/2000/svg" width="66.532" height="99.233" viewBox="0 0 66.532 99.233"><defs><style>.a{fill:#d3a956;}</style></defs><path class="a" d="M6.125-25.444l18.942-1.979a16.014,16.014,0,0,0,4.759,10.178,13.023,13.023,0,0,0,9.188,3.77,12.663,12.663,0,0,0,10.036-4.853q4.1-4.853,4.1-14.56,0-9.047-4.052-13.617a13.548,13.548,0,0,0-10.649-4.571q-8.2,0-14.607,7.256L8.481-46.083l9.707-51.454H68.323V-79.82H32.512L29.591-63.045A28.918,28.918,0,0,1,42.5-66.155a28.507,28.507,0,0,1,21.392,9.141q8.764,9.141,8.764,23.842A35.823,35.823,0,0,1,65.59-11.4Q55.978,1.7,38.826,1.7q-13.759,0-22.382-7.351T6.125-25.444Z" transform="translate(-6.125 97.537)"/></svg>