<svg xmlns="http://www.w3.org/2000/svg" width="66.061" height="101.023" viewBox="0 0 66.061 101.023"><defs><style>.a{fill:#d3a956;}</style></defs><path class="a" d="M70.113-74.731,51.737-72.658q-.66-5.654-3.487-8.387A10.133,10.133,0,0,0,40.9-83.778q-6.031,0-10.178,5.419T25.539-55.883a22.125,22.125,0,0,1,17.623-8.387,26.778,26.778,0,0,1,20.308,9.047Q71.9-46.177,71.9-31.853,71.9-16.68,63-7.492T40.146,1.7A30.618,30.618,0,0,1,15.5-9.942Q5.843-21.581,5.843-48.156q0-27.141,10.083-39.156t26.1-12.015q11.309,0,18.659,6.314T70.113-74.731ZM27.141-33.36q0,9.235,4.241,14.277t9.707,5.042a11.026,11.026,0,0,0,8.764-4.1q3.487-4.1,3.487-13.523,0-9.612-3.77-14.089a11.822,11.822,0,0,0-9.424-4.476,11.835,11.835,0,0,0-9.235,4.288Q27.141-41.653,27.141-33.36Z" transform="translate(-5.843 99.327)"/></svg>