<svg xmlns="http://www.w3.org/2000/svg" width="65.119" height="101.118" viewBox="0 0 65.119 101.118"><defs><style>.a{fill:#d3a956;}</style></defs><path class="a" d="M22.146-53.339q-7.351-3.11-10.7-8.576A22.327,22.327,0,0,1,8.1-73.789a23.974,23.974,0,0,1,7.728-18.329q7.728-7.209,21.958-7.209,14.136,0,21.91,7.209a23.9,23.9,0,0,1,7.775,18.329,21.577,21.577,0,0,1-3.581,12.251,22.586,22.586,0,0,1-10.083,8.2,26.52,26.52,0,0,1,12.581,9.612A25.375,25.375,0,0,1,70.679-29.12q0,13.759-8.764,22.334T38.638,1.791q-13.476,0-22.429-7.162Q5.56-13.665,5.56-28.271A28.337,28.337,0,0,1,9.565-43.02Q13.57-49.758,22.146-53.339Zm3.864-19.13q0,5.654,3.2,8.811A11.687,11.687,0,0,0,37.79-60.5a11.751,11.751,0,0,0,8.623-3.2q3.251-3.2,3.251-8.858a11.465,11.465,0,0,0-3.2-8.481,11.465,11.465,0,0,0-8.481-3.2,11.878,11.878,0,0,0-8.717,3.2A11.5,11.5,0,0,0,26.01-72.469Zm-1.7,42.407q0,7.822,4.005,12.2a13.027,13.027,0,0,0,10.036,4.382,12.576,12.576,0,0,0,9.707-4.241q3.864-4.241,3.864-12.157,0-6.974-3.911-11.167a13,13,0,0,0-9.942-4.194q-6.974,0-10.366,4.759A17.557,17.557,0,0,0,24.313-30.062Z" transform="translate(-5.56 99.327)"/></svg>